# This file uses centimeters as units for non-parametric coordinates.

mtllib bright_109.mtl
g default
v 118.167494 0.000000 -31.693019
v 118.167494 0.000000 17.677867
v 178.296543 0.000000 17.218603
v 178.013650 0.000000 -50.293213
v 121.432517 0.000000 -50.293213
v 121.149609 0.000000 -47.767258
v 174.901676 0.000000 -47.996892
v 175.184584 0.000000 11.937066
v 121.562353 0.000000 11.707434
v 122.128170 0.000000 -31.693019
v 118.167494 21.475741 -31.693019
v 118.167494 21.475741 17.677867
v 178.296543 21.475741 17.218603
v 178.013650 21.475741 -50.293213
v 121.432517 21.475741 -50.293213
v 121.149609 21.475741 -47.767258
v 174.901676 21.475741 -47.996892
v 175.184584 21.475741 11.937066
v 121.562353 21.475741 11.707434
v 122.128170 21.475741 -31.693019
vt 0.266892 0.000000
vt 1.000000 0.000000
vt 0.993243 0.760135
vt 0.000000 0.753378
vt 0.000000 0.040541
vt 0.037162 0.037162
vt 0.033784 0.716216
vt 0.915541 0.719595
vt 0.895270 0.040541
vt 0.273649 0.047297
vt 0.266892 0.000000
vt 1.000000 0.000000
vt 0.993243 0.760135
vt 0.000000 0.753378
vt 0.000000 0.040541
vt 0.037162 0.037162
vt 0.033784 0.716216
vt 0.915541 0.719595
vt 0.895270 0.040541
vt 0.273649 0.047297
vt 0.266892 0.000000
vt 1.000000 0.000000
vt 0.993243 0.760135
vt 0.000000 0.753378
vt 0.000000 0.040541
vt 0.037162 0.037162
vt 0.033784 0.716216
vt 0.915541 0.719595
vt 0.895270 0.040541
vt 0.273649 0.047297
vn 0.000000 1.000000 0.000000
vn 0.000000 1.000000 0.000000
vn 0.000000 1.000000 0.000000
vn 0.000000 1.000000 0.000000
vn 0.000000 1.000000 0.000000
vn 0.000000 1.000000 0.000000
vn 0.000000 1.000000 0.000000
vn 0.000000 1.000000 0.000000
vn 0.000000 1.000000 0.000000
vn 0.000000 1.000000 0.000000
vn 0.000000 -1.000000 0.000000
vn 0.000000 -1.000000 0.000000
vn 0.000000 -1.000000 0.000000
vn 0.000000 -1.000000 0.000000
vn 0.000000 -1.000000 0.000000
vn 0.000000 -1.000000 0.000000
vn 0.000000 -1.000000 0.000000
vn 0.000000 -1.000000 0.000000
vn 0.000000 -1.000000 0.000000
vn 0.000000 -1.000000 0.000000
vn -1.000000 0.000000 0.000000
vn -1.000000 0.000000 0.000000
vn -1.000000 0.000000 0.000000
vn -1.000000 0.000000 0.000000
vn 0.007638 0.000000 0.999971
vn 0.007638 0.000000 0.999971
vn 0.007638 0.000000 0.999971
vn 0.007638 0.000000 0.999971
vn 0.999991 0.000000 -0.004190
vn 0.999991 0.000000 -0.004190
vn 0.999991 0.000000 -0.004190
vn 0.999991 0.000000 -0.004190
vn 0.000000 0.000000 -1.000000
vn 0.000000 0.000000 -1.000000
vn 0.000000 0.000000 -1.000000
vn 0.000000 0.000000 -1.000000
vn -0.993786 0.000000 -0.111304
vn -0.993786 0.000000 -0.111304
vn -0.993786 0.000000 -0.111304
vn -0.993786 0.000000 -0.111305
vn 0.004272 0.000000 0.999991
vn 0.004272 0.000000 0.999991
vn 0.004272 0.000000 0.999991
vn 0.004272 0.000000 0.999991
vn -0.999989 0.000000 0.004720
vn -0.999989 0.000000 0.004720
vn -0.999989 0.000000 0.004720
vn -0.999989 0.000000 0.004720
vn 0.004282 0.000000 -0.999991
vn 0.004282 0.000000 -0.999991
vn 0.004282 0.000000 -0.999991
vn 0.004282 0.000000 -0.999991
vn 0.999915 0.000000 0.013036
vn 0.999915 0.000000 0.013036
vn 0.999915 0.000000 0.013036
vn 0.999915 0.000000 0.013036
vn 0.000000 0.000000 -1.000000
vn 0.000000 0.000000 -1.000000
vn 0.000000 0.000000 -1.000000
vn 0.000000 0.000000 -1.000000
s 1
g polySurface11
usemtl initialShadingGroup
f 16/26/1 17/27/2 15/25/3
f 15/25/3 17/27/2 14/24/4
f 14/24/4 17/27/2 13/23/5
f 17/27/2 18/28/6 13/23/5
f 13/23/5 18/28/6 12/22/7
f 18/28/6 19/29/8 12/22/7
f 12/22/7 19/29/8 11/21/9
f 11/21/9 19/29/8 20/30/10
s 2
f 6/16/11 5/15/12 7/17/13
f 5/15/12 4/14/14 7/17/13
f 4/14/14 3/13/15 7/17/13
f 7/17/13 3/13/15 8/18/16
f 3/13/15 2/12/17 8/18/16
f 8/18/16 2/12/17 9/19/18
f 2/12/17 1/11/19 9/19/18
f 1/11/19 10/20/20 9/19/18
s 3
f 1/1/21 2/2/22 11/21/23
f 11/21/23 2/2/22 12/22/24
s 4
f 2/2/25 3/3/26 12/22/27
f 12/22/27 3/3/26 13/23/28
s 5
f 3/3/29 4/4/30 13/23/31
f 13/23/31 4/4/30 14/24/32
s 6
f 4/4/33 5/5/34 14/24/35
f 14/24/35 5/5/34 15/25/36
s 7
f 5/5/37 6/6/38 15/25/39
f 15/25/39 6/6/38 16/26/40
s 8
f 6/6/41 7/7/42 16/26/43
f 16/26/43 7/7/42 17/27/44
s 9
f 7/7/45 8/8/46 17/27/47
f 17/27/47 8/8/46 18/28/48
s 10
f 8/8/49 9/9/50 18/28/51
f 18/28/51 9/9/50 19/29/52
s 11
f 9/9/53 10/10/54 19/29/55
f 19/29/55 10/10/54 20/30/56
s 12
f 10/10/57 1/1/58 20/30/59
f 20/30/59 1/1/58 11/21/60
