# This file uses centimeters as units for non-parametric coordinates.

mtllib bright3d-2nd-floor_base.mtl
g default
v -78.112862 59.00000 -68.935783
v -173.066528 59.00000 -68.935783
v -175.878342 59.00000 75.317551
v -122.011536 59.00000 75.317551
v -122.475906 59.00000 120.825722
v -25.304655 59.00000 120.409760
v -25.844213 59.00000 74.007782
v 25.413784 59.00000 74.007782
v 25.413784 59.00000 124.726219
v 78.290459 59.00000 124.726219
v 128.469345 59.00000 114.474625
v 128.469345 59.00000 75.626457
v 173.792206 59.00000 74.547340
v 172.713089 59.00000 -73.831078
v 124.152878 59.00000 -78.687096
v 124.152878 59.00000 -100.269409
v 79.369576 59.00000 -122.391281
v 24.874228 59.00000 -121.312172
v 25.413784 59.00000 -68.975052
v -24.765097 59.00000 -70.593727
v -25.304655 59.00000 -121.851730
v -79.260445 59.00000 -120.772614
vt 0.720407 0.553841
vt 0.991959 0.553841
vt 1.000000 0.141301
vt 0.845950 0.141301
vt 0.847278 0.011155
vt 0.569384 0.012344
vt 0.570927 0.145046
vt 0.424338 0.145046
vt 0.424338 0.000000
vt 0.273119 0.000000
vt 0.129616 0.029318
vt 0.129616 0.140417
vt 0.000000 0.143503
vt 0.003086 0.567841
vt 0.141960 0.581728
vt 0.141960 0.643450
vt 0.270033 0.706715
vt 0.425881 0.703629
vt 0.424338 0.553954
vt 0.567841 0.558583
vt 0.569384 0.705172
vt 0.723689 0.702086
vn 0.000000 1.000000 -0.000000
vn 0.000000 1.000000 0.000000
vn 0.000000 1.000000 -0.000000
vn 0.000000 1.000000 0.000000
vn 0.000000 1.000000 0.000000
vn 0.000000 1.000000 0.000000
vn 0.000000 1.000000 0.000000
vn 0.000000 1.000000 0.000000
vn 0.000000 1.000000 0.000000
vn 0.000000 1.000000 -0.000000
vn 0.000000 1.000000 -0.000000
vn 0.000000 1.000000 -0.000000
vn 0.000000 1.000000 -0.000000
vn 0.000000 1.000000 0.000000
vn 0.000000 1.000000 0.000000
vn 0.000000 1.000000 -0.000000
vn 0.000000 1.000000 -0.000000
vn 0.000000 1.000000 -0.000000
vn 0.000000 1.000000 0.000000
vn 0.000000 1.000000 0.000000
vn 0.000000 1.000000 0.000000
vn 0.000000 1.000000 0.000000
s 1
g polySurface64
usemtl initialShadingGroup
f 3/3/1 4/4/2 2/2/3
f 2/2/3 4/4/2 1/1/4
f 5/5/5 6/6/6 4/4/2
f 6/6/6 7/7/7 4/4/2
f 4/4/2 7/7/7 1/1/4
f 9/9/8 10/10/9 8/8/10
f 21/21/11 22/22/12 20/20/13
f 22/22/12 1/1/4 20/20/13
f 1/1/4 7/7/7 20/20/13
f 7/7/7 8/8/10 20/20/13
f 20/20/13 8/8/10 19/19/14
f 13/13/15 14/14/16 12/12/17
f 14/14/16 15/15/18 12/12/17
f 18/18/19 19/19/14 17/17/20
f 11/11/21 12/12/17 10/10/9
f 10/10/9 12/12/17 8/8/10
f 12/12/17 15/15/18 8/8/10
f 8/8/10 15/15/18 19/19/14
f 15/15/18 16/16/22 19/19/14
f 16/16/22 17/17/20 19/19/14
