# This file uses centimeters as units for non-parametric coordinates.

mtllib bright_stair_1a_E.mtl
g default
v -104.656113 30.000000 -110.050667
v -127.405930 15.000000 -110.066437
v -127.405930 15.000000 -89.453941
v -97.656113 0.000000 -89.407921
v -97.656113 0.000000 -90.969116
v -126.038773 15.000000 -91.030884
v -125.961227 15.000000 -109.233276
v -104.656113 30.000000 -108.766724
v -126.500000 15.000000 -110.058548
v -118.857246 15.000000 -89.430923
vt 0.000000 0.000000
vt 0.497766 0.000000
vt 0.002027 0.297969
vt 0.712858 0.259271
vt 0.995531 0.000000
vt 1.000000 0.656885
vt 0.727277 0.387847
vt 0.502349 0.673815
vt 0.004699 0.690745
vt 0.002810 0.413093
vn -0.483270 0.875471 0.000000
vn -0.251475 0.967844 0.006212
vn -0.486796 0.873433 0.012025
vn -0.486796 0.873433 0.012025
vn -0.251475 0.967844 0.006212
vn -0.168300 0.985701 0.008255
vn 0.000000 1.000000 0.000000
vn 0.000000 1.000000 0.000000
vn -0.251475 0.967844 0.006212
vn -0.251475 0.967844 0.006212
vn 0.000000 1.000000 0.000000
vn -0.168300 0.985701 0.008255
vn -0.168300 0.985701 0.008255
vn 0.000000 1.000000 0.000000
vn 0.168967 0.985618 -0.002560
vn 0.000000 1.000000 0.000000
vn 0.338745 0.940875 -0.002560
vn 0.168967 0.985618 -0.002560
vn 0.494312 0.869284 0.000000
vn 0.493210 0.869902 -0.003727
vn 0.338745 0.940875 -0.002560
vn 0.338745 0.940875 -0.002560
vn 0.493210 0.869902 -0.003727
vn 0.168967 0.985618 -0.002560
s off
g bright_stair_1a_A4:polySurface53 pasted__pasted__group1 pasted__group2 group3
usemtl bright_stair_1a_A4:initialShadingGroup
f 1/1/1 9/2/2 8/3/3
f 8/3/4 9/2/5 7/4/6
f 2/5/7 3/6/8 9/2/9
f 9/2/10 3/6/11 7/4/12
f 7/4/13 3/6/14 6/7/15
f 3/6/16 10/8/17 6/7/18
f 4/9/19 5/10/20 10/8/21
f 10/8/22 5/10/23 6/7/24
