# This file uses centimeters as units for non-parametric coordinates.

mtllib bright_107-108.mtl
g default
v 92.453509 0.000000 -29.465337
v 92.346332 0.000000 -27.813756
v 101.223615 0.000000 -27.931729
v 101.330786 0.000000 0.970901
v 82.575246 0.000000 0.970901
v 82.575251 0.000000 2.622479
v 101.116438 0.000000 2.622479
v 101.223615 0.000000 6.635975
v 102.295357 0.000000 6.518005
v 102.402534 0.000000 -29.465337
v 92.453503 20.691578 -29.465337
v 92.346326 20.691578 -27.813756
v 101.223615 20.691578 -27.931729
v 101.330781 20.691578 0.970901
v 82.575240 20.691578 0.970901
v 82.575251 20.691578 2.622479
v 101.116438 20.691578 2.622479
v 101.223615 20.691578 6.635975
v 102.295351 20.691578 6.518005
v 102.402528 20.691578 -29.465337
vt 0.017978 0.123022
vt 0.060646 0.123022
vt 0.032705 0.471517
vt 0.775395 0.527615
vt 0.810700 0.033355
vt 0.855751 0.000000
vt 0.818280 0.524583
vt 1.000000 0.540611
vt 0.994802 0.570717
vt 0.000000 0.502706
vt 0.017978 0.123022
vt 0.060646 0.123022
vt 0.032705 0.471517
vt 0.775395 0.527615
vt 0.810700 0.033355
vt 0.855751 0.000000
vt 0.818280 0.524583
vt 1.000000 0.540611
vt 0.994802 0.570717
vt 0.000000 0.502706
vt 0.017978 0.123022
vt 0.060646 0.123022
vt 0.032705 0.471517
vt 0.775395 0.527615
vt 0.810700 0.033355
vt 0.855751 0.000000
vt 0.818280 0.524583
vt 1.000000 0.540611
vt 0.994802 0.570717
vt 0.000000 0.502706
vn 0.000000 1.000000 -0.000001
vn 0.000000 1.000000 0.000001
vn 0.000000 1.000000 0.000001
vn 0.000000 1.000000 0.000001
vn 0.000000 1.000000 -0.000000
vn 0.000000 1.000000 0.000001
vn 0.000000 1.000000 -0.000000
vn 0.000000 1.000000 0.000000
vn 0.000000 1.000000 0.000001
vn 0.000000 1.000000 0.000000
vn 0.000000 -1.000000 0.000000
vn 0.000000 -1.000000 0.000000
vn 0.000000 -1.000000 0.000000
vn 0.000000 -1.000000 0.000000
vn 0.000000 -1.000000 0.000000
vn 0.000000 -1.000000 0.000000
vn 0.000000 -1.000000 0.000000
vn 0.000000 -1.000000 0.000000
vn 0.000000 -1.000000 0.000000
vn 0.000000 -1.000000 0.000000
vn -0.997901 0.000000 -0.064757
vn -0.997901 -0.000000 -0.064757
vn -0.997901 -0.000000 -0.064757
vn -0.997901 -0.000001 -0.064757
vn 0.013288 0.000000 0.999912
vn 0.013288 0.000000 0.999912
vn 0.013288 0.000000 0.999912
vn 0.013288 0.000000 0.999912
vn -0.999993 0.000000 0.003708
vn -0.999993 0.000000 0.003708
vn -0.999993 0.000000 0.003708
vn -0.999993 0.000000 0.003708
vn 0.000000 0.000000 -1.000000
vn 0.000000 0.000000 -1.000000
vn 0.000000 0.000000 -1.000000
vn 0.000000 0.000000 -1.000000
vn -1.000000 -0.000001 0.000003
vn -1.000000 -0.000000 0.000005
vn -1.000000 -0.000000 0.000005
vn -1.000000 0.000000 0.000007
vn 0.000000 0.000000 1.000000
vn 0.000000 0.000000 1.000000
vn 0.000000 0.000000 1.000000
vn 0.000000 0.000000 1.000000
vn -0.999644 0.000000 0.026695
vn -0.999644 0.000000 0.026695
vn -0.999644 0.000000 0.026695
vn -0.999644 0.000000 0.026695
vn 0.109412 0.000000 0.993997
vn 0.109413 0.000000 0.993996
vn 0.109413 0.000000 0.993996
vn 0.109413 0.000000 0.993996
vn 0.999996 0.000000 0.002979
vn 0.999996 0.000000 0.002979
vn 0.999996 0.000000 0.002979
vn 0.999996 0.000001 0.002979
vn 0.000000 0.000000 -1.000000
vn 0.000000 0.000000 -1.000000
vn 0.000000 0.000000 -1.000000
vn 0.000000 0.000000 -1.000000
s 1
g polySurface16
usemtl initialShadingGroup
f 12/22/1 13/23/2 11/21/3
f 11/21/3 13/23/2 20/30/4
f 20/30/4 13/23/2 19/29/5
f 13/23/2 14/24/6 19/29/5
f 18/28/7 19/29/5 17/27/8
f 19/29/5 14/24/6 17/27/8
f 14/24/6 15/25/9 17/27/8
f 15/25/9 16/26/10 17/27/8
s 2
f 8/18/11 7/17/12 9/19/13
f 2/12/14 1/11/15 3/13/16
f 1/11/15 10/20/17 3/13/16
f 10/20/17 9/19/13 3/13/16
f 3/13/16 9/19/13 4/14/18
f 9/19/13 7/17/12 4/14/18
f 4/14/18 7/17/12 5/15/19
f 7/17/12 6/16/20 5/15/19
s 3
f 1/1/21 2/2/22 11/21/23
f 11/21/23 2/2/22 12/22/24
s 4
f 2/2/25 3/3/26 12/22/27
f 12/22/27 3/3/26 13/23/28
s 5
f 3/3/29 4/4/30 13/23/31
f 13/23/31 4/4/30 14/24/32
s 6
f 4/4/33 5/5/34 14/24/35
f 14/24/35 5/5/34 15/25/36
s 7
f 5/5/37 6/6/38 15/25/39
f 15/25/39 6/6/38 16/26/40
s 8
f 6/6/41 7/7/42 16/26/43
f 16/26/43 7/7/42 17/27/44
s 9
f 7/7/45 8/8/46 17/27/47
f 17/27/47 8/8/46 18/28/48
s 10
f 8/8/49 9/9/50 18/28/51
f 18/28/51 9/9/50 19/29/52
s 11
f 9/9/53 10/10/54 19/29/55
f 19/29/55 10/10/54 20/30/56
s 12
f 10/10/57 1/1/58 20/30/59
f 20/30/59 1/1/58 11/21/60
