# This file uses centimeters as units for non-parametric coordinates.

mtllib bright_111.mtl
g default
v 79.279568 0.000000 104.019507
v 121.149609 0.000000 104.249141
v 121.432517 0.000000 83.122992
v 178.579451 0.000000 83.122992
v 178.579451 0.000000 17.218603
v 118.113546 0.000000 17.448234
v 117.830645 0.000000 65.441327
v 120.942596 0.000000 65.211693
v 121.225504 0.000000 19.744555
v 175.184584 0.000000 19.514923
v 175.184584 0.000000 80.367408
v 79.562476 0.000000 80.597042
v 79.279568 21.253846 104.019507
v 121.149609 21.253846 104.249141
v 121.432517 21.253846 83.122992
v 178.579451 21.253846 83.122992
v 178.579451 21.253846 17.218603
v 118.113546 21.253846 17.448234
v 117.830645 21.253846 65.441327
v 120.942596 21.253846 65.211693
v 121.225504 21.253846 19.744555
v 175.184584 21.253846 19.514923
v 175.184584 21.253846 80.367408
v 79.562476 21.253846 80.597042
vt 0.000000 0.000000
vt 0.386066 0.000000
vt 0.387053 0.239994
vt 0.913957 0.243554
vt 0.908846 1.000000
vt 0.327235 0.985636
vt 0.328310 0.440455
vt 0.356986 0.443258
vt 0.356104 0.959746
vt 0.877756 0.968487
vt 0.882444 0.274644
vt 0.000740 0.276512
vt 0.000000 0.000000
vt 0.386066 0.000000
vt 0.387053 0.239994
vt 0.913957 0.243554
vt 0.908846 1.000000
vt 0.327235 0.985636
vt 0.328310 0.440455
vt 0.356986 0.443258
vt 0.356104 0.959746
vt 0.877756 0.968487
vt 0.882444 0.274644
vt 0.000740 0.276512
vt 0.000000 0.000000
vt 0.386066 0.000000
vt 0.387053 0.239994
vt 0.913957 0.243554
vt 0.908846 1.000000
vt 0.327235 0.985636
vt 0.328310 0.440455
vt 0.356986 0.443258
vt 0.356104 0.959746
vt 0.877756 0.968487
vt 0.882444 0.274644
vt 0.000740 0.276512
vn 0.000000 1.000000 0.000000
vn 0.000000 1.000000 0.000000
vn 0.000000 1.000000 0.000001
vn 0.000000 1.000000 -0.000000
vn 0.000000 1.000000 -0.000000
vn 0.000000 1.000000 -0.000001
vn 0.000000 1.000000 0.000000
vn 0.000000 1.000000 -0.000000
vn 0.000000 1.000000 -0.000000
vn 0.000000 1.000000 -0.000000
vn 0.000000 1.000000 -0.000000
vn 0.000000 1.000000 -0.000000
vn 0.000000 -1.000000 0.000000
vn 0.000000 -1.000000 0.000000
vn 0.000000 -1.000000 0.000000
vn 0.000000 -1.000000 0.000000
vn 0.000000 -1.000000 0.000000
vn 0.000000 -1.000000 0.000000
vn 0.000000 -1.000000 0.000000
vn 0.000000 -1.000000 0.000000
vn 0.000000 -1.000000 0.000000
vn 0.000000 -1.000000 0.000000
vn 0.000000 -1.000000 0.000000
vn 0.000000 -1.000000 0.000000
vn -0.005485 0.000000 0.999985
vn -0.005484 0.000000 0.999985
vn -0.005484 0.000000 0.999985
vn -0.005484 0.000000 0.999985
vn 0.999910 0.000000 0.013390
vn 0.999910 0.000000 0.013390
vn 0.999910 0.000000 0.013390
vn 0.999910 0.000000 0.013390
vn 0.000000 0.000000 1.000000
vn 0.000000 0.000000 1.000000
vn 0.000000 0.000000 1.000000
vn 0.000000 0.000000 1.000000
vn 1.000000 0.000000 0.000000
vn 1.000000 0.000000 0.000000
vn 1.000000 0.000000 0.000000
vn 1.000000 0.000000 0.000000
vn -0.003798 0.000000 -0.999993
vn -0.003798 0.000000 -0.999993
vn -0.003798 0.000000 -0.999993
vn -0.003798 0.000000 -0.999993
vn -0.999983 0.000000 -0.005895
vn -0.999983 0.000000 -0.005895
vn -0.999983 0.000000 -0.005895
vn -0.999983 0.000000 -0.005895
vn 0.073592 0.000000 0.997288
vn 0.073592 0.000000 0.997288
vn 0.073592 0.000000 0.997288
vn 0.073592 0.000000 0.997288
vn 0.999981 0.000000 0.006222
vn 0.999981 0.000000 0.006222
vn 0.999981 0.000000 0.006222
vn 0.999981 0.000000 0.006222
vn 0.004256 0.000000 0.999991
vn 0.004256 0.000000 0.999991
vn 0.004256 0.000000 0.999991
vn 0.004256 0.000000 0.999991
vn -1.000000 0.000000 0.000000
vn -1.000000 0.000000 0.000000
vn -1.000000 0.000000 0.000000
vn -1.000000 0.000000 0.000000
vn -0.002401 0.000000 -0.999997
vn -0.002401 0.000000 -0.999997
vn -0.002401 0.000000 -0.999997
vn -0.002402 0.000000 -0.999997
vn -0.999927 0.000000 -0.012078
vn -0.999927 0.000000 -0.012078
vn -0.999927 0.000000 -0.012078
vn -0.999927 0.000000 -0.012078
s 1
g polySurface10
usemtl initialShadingGroup
f 19/31/1 20/32/2 18/30/3
f 20/32/2 21/33/4 18/30/3
f 18/30/3 21/33/4 17/29/5
f 21/33/4 22/34/6 17/29/5
f 17/29/5 22/34/6 16/28/7
f 22/34/6 23/35/8 16/28/7
f 16/28/7 23/35/8 15/27/9
f 23/35/8 24/36/10 15/27/9
f 24/36/10 13/25/11 15/27/9
f 13/25/11 14/26/12 15/27/9
s 2
f 7/19/13 6/18/14 8/20/15
f 8/20/15 6/18/14 9/21/16
f 6/18/14 5/17/17 9/21/16
f 9/21/16 5/17/17 10/22/18
f 5/17/17 4/16/19 10/22/18
f 10/22/18 4/16/19 11/23/20
f 4/16/19 3/15/21 11/23/20
f 11/23/20 3/15/21 12/24/22
f 12/24/22 3/15/21 1/13/23
f 1/13/23 3/15/21 2/14/24
s 3
f 1/1/25 2/2/26 13/25/27
f 13/25/27 2/2/26 14/26/28
s 4
f 2/2/29 3/3/30 14/26/31
f 14/26/31 3/3/30 15/27/32
s 5
f 3/3/33 4/4/34 15/27/35
f 15/27/35 4/4/34 16/28/36
s 6
f 4/4/37 5/5/38 16/28/39
f 16/28/39 5/5/38 17/29/40
s 7
f 5/5/41 6/6/42 17/29/43
f 17/29/43 6/6/42 18/30/44
s 8
f 6/6/45 7/7/46 18/30/47
f 18/30/47 7/7/46 19/31/48
s 9
f 7/7/49 8/8/50 19/31/51
f 19/31/51 8/8/50 20/32/52
s 10
f 8/8/53 9/9/54 20/32/55
f 20/32/55 9/9/54 21/33/56
s 11
f 9/9/57 10/10/58 21/33/59
f 21/33/59 10/10/58 22/34/60
s 12
f 10/10/61 11/11/62 22/34/63
f 22/34/63 11/11/62 23/35/64
s 13
f 11/11/65 12/12/66 23/35/67
f 23/35/67 12/12/66 24/36/68
s 14
f 12/12/69 1/1/70 24/36/71
f 24/36/71 1/1/70 13/25/72
