# This file uses centimeters as units for non-parametric coordinates.

mtllib bright_2nd_floor_base.mtl
g default
v -78.112862 26.000006 -68.935783
v -173.066528 26.000006 -68.935783
v -175.878342 26.000006 75.317551
v -122.011536 26.000006 75.317551
v -122.475906 26.000006 120.825722
v -25.304655 26.000006 120.409760
v -25.844213 26.000006 74.007782
v 25.413784 26.000006 74.007782
v 25.413784 26.000006 124.726219
v 78.290459 26.000006 124.726219
v 122.000000 26.000006 75.626457
v 173.792206 26.000006 74.547340
v 172.713089 26.000006 -73.831078
v 124.152878 26.000006 -78.687096
v 124.152878 26.000006 -100.269409
v 79.369576 26.000006 -122.391281
v 24.874228 26.000006 -121.312172
v 25.413784 26.000006 -68.975052
v -24.765097 26.000006 -70.593727
v -25.304655 26.000006 -121.851730
v -79.260445 26.000006 -120.772614
v 77.991730 26.000006 74.888931
v 82.580605 26.000006 74.965836
v 75.866631 26.000006 122.401321
vt 0.720407 0.553841
vt 0.991959 0.553841
vt 1.000000 0.141301
vt 0.845950 0.141301
vt 0.847278 0.011155
vt 0.569384 0.012344
vt 0.570927 0.145046
vt 0.424338 0.145046
vt 0.424338 0.000000
vt 0.273119 0.000000
vt 0.129616 0.140417
vt 0.000000 0.143503
vt 0.003086 0.567841
vt 0.141960 0.581728
vt 0.141960 0.643450
vt 0.270033 0.706715
vt 0.425881 0.703629
vt 0.424338 0.553954
vt 0.567841 0.558583
vt 0.569384 0.705172
vt 0.723689 0.702086
vt 0.263902 0.142526
vt 0.249900 0.142306
vt 0.280051 0.006649
vn 0.000000 1.000000 -0.000000
vn 0.000000 1.000000 0.000000
vn 0.000000 1.000000 -0.000000
vn 0.000000 1.000000 0.000000
vn 0.000000 1.000000 0.000000
vn 0.000000 1.000000 0.000000
vn 0.000000 1.000000 0.000000
vn 0.000000 1.000000 0.000000
vn 0.000000 1.000000 0.000000
vn 0.000000 1.000000 0.000000
vn 0.000000 1.000000 -0.000000
vn 0.000000 1.000000 -0.000000
vn 0.000000 1.000000 -0.000000
vn 0.000000 1.000000 -0.000000
vn 0.000000 1.000000 0.000000
vn 0.000000 1.000000 -0.000000
vn 0.000000 1.000000 -0.000000
vn 0.000000 1.000000 -0.000000
vn 0.000000 1.000000 -0.000000
vn 0.000000 1.000000 0.000000
vn 0.000000 1.000000 0.000000
vn 0.000000 1.000000 -0.000000
vn 0.000000 1.000000 -0.000000
vn 0.000000 1.000000 0.000000
s 1
g polySurface64
usemtl initialShadingGroup
f 3/3/1 4/4/2 2/2/3
f 2/2/3 4/4/2 1/1/4
f 5/5/5 6/6/6 4/4/2
f 6/6/6 7/7/7 4/4/2
f 4/4/2 7/7/7 1/1/4
f 9/9/8 10/10/9 24/24/10 8/8/11
f 20/20/12 21/21/13 19/19/14
f 21/21/13 1/1/4 19/19/14
f 1/1/4 7/7/7 19/19/14
f 7/7/7 8/8/11 19/19/14
f 19/19/14 8/8/11 18/18/15
f 12/12/16 13/13/17 11/11/18
f 13/13/17 14/14/19 11/11/18
f 17/17/20 18/18/15 16/16/21
f 11/11/18 14/14/19 8/8/11 22/22/22 23/23/23
f 8/8/11 14/14/19 18/18/15
f 14/14/19 15/15/24 18/18/15
f 15/15/24 16/16/21 18/18/15
f 24/24/10 23/23/23 22/22/22 8/8/11
