# This file uses centimeters as units for non-parametric coordinates.

mtllib bright_stair_1b.mtl
g default
v 85.725098 60 105.613484
v 115.474917 45 105.629252
v 115.474917 45 85.016764
v 85.725106 30 84.970751
v 85.725098 30 93.268313
v 107.052524 45 93.330094
v 106.974982 45 97.720685
v 85.725106 60 97.254141
v 107.362528 45 105.621376
v 106.926245 45 84.993754
vt 0.000000 0.000000
vt 0.995531 0.000000
vt 1.000000 0.656885
vt 0.004699 0.690745
vt 0.002810 0.413093
vt 0.727277 0.387847
vt 0.712858 0.259271
vt 0.002027 0.297969
vt 0.497766 0.000000
vt 0.502349 0.673815
vn 0.483271 0.875471 -0.000000
vn 0.251475 0.967844 -0.006212
vn 0.486796 0.873433 -0.012024
vn 0.168300 0.985701 -0.008255
vn 0.000000 1.000000 -0.000000
vn -0.000000 1.000000 0.000000
vn -0.168967 0.985618 0.002560
vn -0.338744 0.940875 0.002560
vn -0.494312 0.869285 -0.000001
vn -0.493209 0.869903 0.003727
s 1
g pasted__polySurface53 group2
usemtl initialShadingGroup
f 1/1/1 9/9/2 8/8/3
f 8/8/3 9/9/2 7/7/4
f 2/2/5 3/3/6 9/9/2
f 9/9/2 3/3/6 7/7/4
f 7/7/4 3/3/6 6/6/7
f 3/3/6 10/10/8 6/6/7
f 4/4/9 5/5/10 10/10/8
f 10/10/8 5/5/10 6/6/7
