# This file uses centimeters as units for non-parametric coordinates.

mtllib bright_113_wall2.mtl
g default
v 54.532273 0.000000 46.197968
v 87.902881 0.000000 46.300002
v 87.810185 0.000000 44.361372
v 54.532273 0.000000 44.361372
v 54.532273 21.591209 46.197968
v 87.902881 21.591209 46.300002
v 87.810185 21.591209 44.361372
v 54.532273 21.591209 44.361372
vt 0.005694 0.000000
vt 1.000000 0.000000
vt 0.997075 0.052762
vt 0.000000 0.049977
vt 0.005694 0.000000
vt 1.000000 0.000000
vt 0.997075 0.052762
vt 0.000000 0.049977
vt 0.005694 0.000000
vt 1.000000 0.000000
vt 0.997075 0.052762
vt 0.000000 0.049977
vn 0.000000 1.000000 0.000002
vn 0.000000 1.000000 0.000001
vn 0.000000 1.000000 0.000001
vn 0.000000 1.000000 0.000000
vn 0.000000 -1.000000 0.000000
vn 0.000000 -1.000000 0.000000
vn 0.000000 -1.000000 0.000000
vn 0.000000 -1.000000 0.000000
vn -0.003058 0.000000 0.999995
vn -0.003058 0.000000 0.999995
vn -0.003058 0.000000 0.999995
vn -0.003058 0.000000 0.999995
vn 0.998859 0.000000 -0.047761
vn 0.998859 0.000000 -0.047761
vn 0.998859 0.000000 -0.047761
vn 0.998859 0.000000 -0.047761
vn 0.000000 0.000000 -1.000000
vn 0.000000 0.000000 -1.000000
vn 0.000000 0.000000 -1.000000
vn 0.000000 0.000000 -1.000000
vn -1.000000 0.000000 0.000000
vn -1.000000 0.000000 0.000000
vn -1.000000 0.000000 0.000000
vn -1.000000 0.000000 0.000000
s 1
g polySurface18
usemtl initialShadingGroup
f 6/10/1 7/11/2 5/9/3
f 5/9/3 7/11/2 8/12/4
s 2
f 4/8/5 3/7/6 1/5/7
f 1/5/7 3/7/6 2/6/8
s 3
f 1/1/9 2/2/10 5/9/11
f 5/9/11 2/2/10 6/10/12
s 4
f 2/2/13 3/3/14 6/10/15
f 6/10/15 3/3/14 7/11/16
s 5
f 3/3/17 4/4/18 7/11/19
f 7/11/19 4/4/18 8/12/20
s 6
f 4/4/21 1/1/22 8/12/23
f 8/12/23 1/1/22 5/9/24
