# This file uses centimeters as units for non-parametric coordinates.

mtllib bright_stair_1a.mtl
g default
v -104.656111 30 -110.050665
v -127.405930 15.0 -110.066433
v -127.405930 15.0 -89.453938
v -97.656111 0.000000 -89.407924
v -97.656111 0.000000 -97.705494
v -118.983537 15.0 -97.767275
v -118.905995 15.0 -102.157858
v -104.656111 30 -101.691314
v -119.293541 15.0 -110.058549
v -118.857250 15.0 -89.430927
vt 0.000000 0.000000
vt 0.995531 0.000000
vt 1.000000 0.656885
vt 0.004699 0.690745
vt 0.002810 0.413093
vt 0.727277 0.387847
vt 0.712858 0.259271
vt 0.002027 0.297969
vt 0.497766 0.000000
vt 0.502349 0.673815
vn -0.483270 0.875471 0.000000
vn -0.251475 0.967844 0.006212
vn -0.486796 0.873433 0.012025
vn -0.168300 0.985701 0.008255
vn 0.000000 1.000000 0.000000
vn 0.000000 1.000000 0.000000
vn 0.168967 0.985618 -0.002560
vn 0.338745 0.940875 -0.002560
vn 0.494312 0.869284 0.000000
vn 0.493210 0.869903 -0.003727
s 1
g polySurface53
usemtl initialShadingGroup
f 1/1/1 9/9/2 8/8/3
f 8/8/3 9/9/2 7/7/4
f 2/2/5 3/3/6 9/9/2
f 9/9/2 3/3/6 7/7/4
f 7/7/4 3/3/6 6/6/7
f 3/3/6 10/10/8 6/6/7
f 4/4/9 5/5/10 10/10/8
f 10/10/8 5/5/10 6/6/7
