# This file uses centimeters as units for non-parametric coordinates.

mtllib bright_105.mtl
g default
v 39.322963 0.000000 17.488014
v 82.855831 0.000000 17.564893
v 82.893157 0.000000 -29.275789
v 53.116711 0.000000 -29.275789
v 53.116711 0.000000 -27.132449
v 81.407170 0.000000 -27.214627
v 81.439679 0.000000 15.149824
v 39.285633 0.000000 15.344673
v 39.322958 20.781541 17.488015
v 82.855819 20.781541 17.564896
v 82.893145 20.781541 -29.275783
v 53.116706 20.781541 -29.275789
v 53.116706 20.781541 -27.132449
v 81.407159 20.781541 -27.214621
v 81.439667 20.781541 15.149827
v 39.285628 20.781541 15.344675
vt 0.000000 0.000000
vt 0.966840 0.000000
vt 0.958399 1.000000
vt 0.265440 0.997026
vt 0.265636 0.951382
vt 0.921285 0.945897
vt 0.933413 0.053800
vt 0.003954 0.045662
vt 0.000000 0.000000
vt 0.966840 0.000000
vt 0.958399 1.000000
vt 0.265440 0.997026
vt 0.265636 0.951382
vt 0.921285 0.945897
vt 0.933413 0.053800
vt 0.003954 0.045662
vt 0.000000 0.000000
vt 0.966840 0.000000
vt 0.958399 1.000000
vt 0.265440 0.997026
vt 0.265636 0.951382
vt 0.921285 0.945897
vt 0.933413 0.053800
vt 0.003954 0.045662
vn 0.000000 1.000000 0.000000
vn 0.000000 1.000000 0.000000
vn 0.000000 1.000000 0.000000
vn 0.000000 1.000000 0.000000
vn 0.000000 1.000000 0.000000
vn 0.000000 1.000000 0.000000
vn 0.000000 1.000000 0.000001
vn 0.000000 1.000000 0.000001
vn 0.000000 -1.000000 0.000000
vn 0.000000 -1.000000 0.000000
vn 0.000000 -1.000000 0.000000
vn 0.000000 -1.000000 0.000000
vn 0.000000 -1.000000 0.000000
vn 0.000000 -1.000000 0.000000
vn 0.000000 -1.000000 0.000000
vn 0.000000 -1.000000 0.000000
vn -0.001766 -0.000000 0.999998
vn -0.001766 -0.000000 0.999998
vn -0.001766 -0.000000 0.999998
vn -0.001766 -0.000000 0.999998
vn 1.000000 0.000000 0.000797
vn 1.000000 0.000000 0.000797
vn 1.000000 0.000000 0.000797
vn 1.000000 0.000001 0.000797
vn 0.000000 0.000000 -1.000000
vn 0.000000 0.000000 -1.000000
vn 0.000000 0.000000 -1.000000
vn 0.000000 0.000000 -1.000000
vn -1.000000 -0.000000 0.000000
vn -1.000000 -0.000000 0.000000
vn -1.000000 -0.000000 0.000000
vn -1.000000 -0.000000 0.000000
vn 0.002905 0.000000 0.999996
vn 0.002905 -0.000000 0.999996
vn 0.002905 -0.000000 0.999996
vn 0.002905 -0.000000 0.999996
vn -1.000000 0.000000 0.000767
vn -1.000000 -0.000001 0.000767
vn -1.000000 -0.000001 0.000767
vn -1.000000 -0.000001 0.000767
vn -0.004622 0.000000 -0.999989
vn -0.004622 0.000000 -0.999989
vn -0.004622 0.000000 -0.999989
vn -0.004622 0.000000 -0.999989
vn -0.999848 -0.000000 0.017414
vn -0.999848 -0.000000 0.017414
vn -0.999848 -0.000000 0.017414
vn -0.999848 -0.000000 0.017414
s 1
g polySurface15
usemtl initialShadingGroup
f 12/20/1 13/21/2 11/19/3
f 13/21/2 14/22/4 11/19/3
f 11/19/3 14/22/4 10/18/5
f 14/22/4 15/23/6 10/18/5
f 10/18/5 15/23/6 9/17/7
f 9/17/7 15/23/6 16/24/8
s 2
f 8/16/9 7/15/10 1/9/11
f 1/9/11 7/15/10 2/10/12
f 2/10/12 7/15/10 3/11/13
f 7/15/10 6/14/14 3/11/13
f 3/11/13 6/14/14 4/12/15
f 6/14/14 5/13/16 4/12/15
s 3
f 1/1/17 2/2/18 9/17/19
f 9/17/19 2/2/18 10/18/20
s 4
f 2/2/21 3/3/22 10/18/23
f 10/18/23 3/3/22 11/19/24
s 5
f 3/3/25 4/4/26 11/19/27
f 11/19/27 4/4/26 12/20/28
s 6
f 4/4/29 5/5/30 12/20/31
f 12/20/31 5/5/30 13/21/32
s 7
f 5/5/33 6/6/34 13/21/35
f 13/21/35 6/6/34 14/22/36
s 8
f 6/6/37 7/7/38 14/22/39
f 14/22/39 7/7/38 15/23/40
s 9
f 7/7/41 8/8/42 15/23/43
f 15/23/43 8/8/42 16/24/44
s 10
f 8/8/45 1/1/46 16/24/47
f 16/24/47 1/1/46 9/17/48
