# This file uses centimeters as units for non-parametric coordinates.

mtllib bright_111_2.mtl
g default
v 79.592239 0.000000 108.520538
v 121.388077 0.000000 108.520538
v 79.592239 21.328491 108.520538
v 121.388077 21.278891 108.520538
v 79.592239 21.328491 103.803772
v 121.388077 21.278891 103.803772
v 79.592239 0.000000 103.803772
v 121.388077 0.000000 103.803772
v 105.593025 0.000000 85.959969
v 105.593025 0.000000 104.219299
v 105.593025 2.761378 104.219299
v 105.593025 21.253845 104.219299
v 105.593025 21.253845 85.959969
v 105.593025 21.253845 84.683090
v 105.593025 0.000000 84.683090
v 79.513123 21.253845 84.683090
v 79.513123 17.546110 84.683090
v 79.513123 0.000000 84.683090
v 79.562477 21.253845 80.597038
v 79.562477 0.000000 80.597038
v 175.184586 21.253845 80.367409
v 175.184586 0.000000 80.367409
v 175.184586 21.253845 19.514923
v 175.184586 0.000000 19.514923
v 121.225502 21.253845 19.744553
v 121.225502 0.000000 19.744553
v 120.942596 21.253845 65.211693
v 120.942596 0.000000 65.211693
v 117.830643 21.253845 65.441330
v 117.830643 0.000000 65.441330
v 118.113548 21.253845 17.448235
v 118.113548 0.000000 17.448235
v 178.579453 21.253845 17.218605
v 178.579453 0.000000 17.218605
v 178.579453 21.253845 83.122993
v 178.579453 0.000000 83.122993
v 121.432518 21.253845 83.122993
v 121.432518 0.000000 83.122993
v 121.149612 21.253845 104.249138
v 121.149612 0.000000 104.249138
v 83.855927 0.000000 84.333824
v 79.960739 0.000000 84.339546
v 83.855927 2.567611 84.333824
v 79.960739 2.567611 84.339546
v 83.870422 2.567611 94.201637
v 79.975250 2.567611 94.207359
v 83.870422 0.000000 94.201637
v 79.975250 0.000000 94.207359
v 87.380310 0.000000 84.328644
v 83.485123 0.000000 84.334373
v 87.380310 4.712048 84.328644
v 83.485123 4.712048 84.334373
v 87.394821 4.712048 94.196457
v 83.499634 4.712048 94.202187
v 87.394821 0.000000 94.196457
v 83.499634 0.000000 94.202187
v 91.073502 0.000000 84.323219
v 87.178329 0.000000 84.328941
v 91.073502 7.431634 84.323219
v 87.178329 7.431634 84.328941
v 91.088013 7.431634 94.191032
v 87.192825 7.431634 94.196754
v 91.088013 0.000000 94.191032
v 87.192825 0.000000 94.196754
v 94.766693 0.000000 84.317787
v 90.871506 0.000000 84.323517
v 94.766693 10.002060 84.317787
v 90.871506 10.002060 84.323517
v 94.781204 10.002060 94.185600
v 90.886017 10.002060 94.191330
v 94.781204 0.000000 94.185600
v 90.886017 0.000000 94.191330
v 98.578018 0.000000 84.312187
v 94.682846 0.000000 84.317917
v 98.578018 12.572243 84.312187
v 94.682846 12.572243 84.317917
v 98.592529 12.572243 94.180000
v 94.697342 12.572243 94.185730
v 98.592529 0.000000 94.180000
v 94.697342 0.000000 94.185730
v 102.153091 0.000000 84.306938
v 98.257904 0.000000 84.312660
v 102.153091 14.975956 84.306938
v 98.257904 14.975956 84.312660
v 102.167587 14.975956 94.174751
v 98.272400 14.975956 94.180473
v 102.167587 0.000000 94.174751
v 98.272400 0.000000 94.180473
v 105.849533 0.000000 84.301506
v 101.954361 0.000000 84.307228
v 105.849533 17.573465 84.301506
v 101.954361 17.573465 84.307228
v 105.864044 17.573465 94.169319
v 101.968857 17.573465 94.175041
v 105.864044 0.000000 94.169319
v 101.968857 0.000000 94.175041
vt 0.375000 0.000000
vt 0.625000 0.000000
vt 0.375000 0.250000
vt 0.625000 0.250000
vt 0.375000 0.500000
vt 0.625000 0.500000
vt 0.375000 0.750000
vt 0.625000 0.750000
vt 0.375000 1.000000
vt 0.625000 1.000000
vt 0.875000 0.000000
vt 0.875000 0.250000
vt 0.125000 0.000000
vt 0.125000 0.250000
vt 0.709199 0.000000
vt 0.709199 0.028000
vt 0.864163 0.000000
vt 0.709199 0.215508
vt 0.864163 0.215508
vt 0.875000 0.215508
vt 0.875000 0.000000
vt 0.625000 0.750000
vt 0.625000 0.534492
vt 0.387404 0.750000
vt 0.387404 0.534492
vt 0.387404 0.572088
vt 0.000611 0.228274
vt 0.000611 0.228274
vt 0.000740 0.276512
vt 0.000611 0.228274
vt 0.000611 0.228274
vt 0.000740 0.276512
vt 0.882444 0.274644
vt 0.882444 0.274644
vt 0.877756 0.968487
vt 0.877756 0.968487
vt 0.356104 0.959746
vt 0.356104 0.959746
vt 0.356986 0.443258
vt 0.356986 0.443258
vt 0.328310 0.440455
vt 0.328310 0.440455
vt 0.327235 0.985636
vt 0.327235 0.985636
vt 0.908846 1.000000
vt 0.908846 1.000000
vt 0.913957 0.243554
vt 0.913957 0.243554
vt 0.387053 0.239994
vt 0.387053 0.239994
vt 0.386066 0.000000
vt 0.386066 0.000000
vt 0.335907 0.000000
vt 0.335907 0.000000
vt 0.335907 0.000000
vt 0.335907 0.000000
vt 0.335907 0.000000
vt 0.334505 0.207412
vt 0.386066 0.000000
vt 0.387053 0.239994
vt 0.334505 0.207412
vt 0.334404 0.222488
vt 0.000740 0.276512
vt 0.000611 0.228274
vt 0.882444 0.274644
vt 0.913957 0.243554
vt 0.877756 0.968487
vt 0.908846 1.000000
vt 0.356104 0.959746
vt 0.327235 0.985636
vt 0.356986 0.443258
vt 0.328310 0.440455
vt 0.335907 0.000000
vt 0.334505 0.207412
vt 0.334505 0.207412
vt 0.334404 0.222488
vt 0.000611 0.228274
vt 0.375000 0.000000
vt 0.625000 0.000000
vt 0.375000 0.250000
vt 0.625000 0.250000
vt 0.375000 0.500000
vt 0.625000 0.500000
vt 0.375000 0.750000
vt 0.625000 0.750000
vt 0.375000 1.000000
vt 0.625000 1.000000
vt 0.875000 0.000000
vt 0.875000 0.250000
vt 0.125000 0.000000
vt 0.125000 0.250000
vt 0.375000 0.000000
vt 0.625000 0.000000
vt 0.375000 0.250000
vt 0.625000 0.250000
vt 0.375000 0.500000
vt 0.625000 0.500000
vt 0.375000 0.750000
vt 0.625000 0.750000
vt 0.375000 1.000000
vt 0.625000 1.000000
vt 0.875000 0.000000
vt 0.875000 0.250000
vt 0.125000 0.000000
vt 0.125000 0.250000
vt 0.375000 0.000000
vt 0.625000 0.000000
vt 0.375000 0.250000
vt 0.625000 0.250000
vt 0.375000 0.500000
vt 0.625000 0.500000
vt 0.375000 0.750000
vt 0.625000 0.750000
vt 0.375000 1.000000
vt 0.625000 1.000000
vt 0.875000 0.000000
vt 0.875000 0.250000
vt 0.125000 0.000000
vt 0.125000 0.250000
vt 0.375000 0.000000
vt 0.625000 0.000000
vt 0.375000 0.250000
vt 0.625000 0.250000
vt 0.375000 0.500000
vt 0.625000 0.500000
vt 0.375000 0.750000
vt 0.625000 0.750000
vt 0.375000 1.000000
vt 0.625000 1.000000
vt 0.875000 0.000000
vt 0.875000 0.250000
vt 0.125000 0.000000
vt 0.125000 0.250000
vt 0.375000 0.000000
vt 0.625000 0.000000
vt 0.375000 0.250000
vt 0.625000 0.250000
vt 0.375000 0.500000
vt 0.625000 0.500000
vt 0.375000 0.750000
vt 0.625000 0.750000
vt 0.375000 1.000000
vt 0.625000 1.000000
vt 0.875000 0.000000
vt 0.875000 0.250000
vt 0.125000 0.000000
vt 0.125000 0.250000
vt 0.375000 0.000000
vt 0.625000 0.000000
vt 0.375000 0.250000
vt 0.625000 0.250000
vt 0.375000 0.500000
vt 0.625000 0.500000
vt 0.375000 0.750000
vt 0.625000 0.750000
vt 0.375000 1.000000
vt 0.625000 1.000000
vt 0.875000 0.000000
vt 0.875000 0.250000
vt 0.125000 0.000000
vt 0.125000 0.250000
vt 0.375000 0.000000
vt 0.625000 0.000000
vt 0.375000 0.250000
vt 0.625000 0.250000
vt 0.375000 0.500000
vt 0.625000 0.500000
vt 0.375000 0.750000
vt 0.625000 0.750000
vt 0.375000 1.000000
vt 0.625000 1.000000
vt 0.875000 0.000000
vt 0.875000 0.250000
vt 0.125000 0.000000
vt 0.125000 0.250000
vn 0.000000 0.000000 1.000000
vn -0.000000 0.000000 1.000000
vn -0.000000 0.000000 1.000000
vn -0.000000 0.000000 1.000000
vn 0.001187 0.999999 0.000000
vn 0.001187 0.999999 0.000000
vn 0.001187 0.999999 0.000000
vn 0.001187 0.999999 0.000000
vn 0.000000 0.000000 -1.000000
vn 0.000000 0.000000 -1.000000
vn 0.000000 0.000000 -1.000000
vn 0.000000 0.000000 -1.000000
vn 0.000000 -1.000000 0.000000
vn 0.000000 -1.000000 0.000000
vn 0.000000 -1.000000 0.000000
vn 0.000000 -1.000000 0.000000
vn 1.000000 0.000000 0.000000
vn 1.000000 0.000000 0.000000
vn 1.000000 0.000000 0.000000
vn 1.000000 0.000000 0.000000
vn -1.000000 0.000000 0.000000
vn -1.000000 0.000000 0.000000
vn -1.000000 0.000000 0.000000
vn -1.000000 0.000000 0.000000
vn -1.000000 0.000000 0.000000
vn -1.000000 0.000000 0.000000
vn -1.000000 0.000000 0.000000
vn -1.000000 0.000000 0.000000
vn -1.000000 0.000000 0.000000
vn -1.000000 0.000000 0.000000
vn -1.000000 0.000000 0.000000
vn 0.000000 0.000000 1.000000
vn 0.000000 0.000000 1.000000
vn 0.000000 0.000000 1.000000
vn 0.000000 0.000000 1.000000
vn 0.000000 0.000000 1.000000
vn -0.999927 0.000000 -0.012078
vn -0.999927 0.000000 -0.012078
vn -0.999927 0.000000 -0.012078
vn -0.999927 0.000000 -0.012078
vn -0.999927 0.000000 -0.012078
vn -0.999927 0.000000 -0.012078
vn -0.999927 0.000000 -0.012078
vn -0.002401 0.000000 -0.999997
vn -0.002401 0.000000 -0.999997
vn -0.002401 0.000000 -0.999997
vn -0.002401 0.000000 -0.999997
vn -0.002401 0.000000 -0.999997
vn -0.002401 0.000000 -0.999997
vn -1.000000 0.000000 0.000000
vn -1.000000 0.000000 0.000000
vn -1.000000 0.000000 0.000000
vn -1.000000 0.000000 0.000000
vn -1.000000 0.000000 0.000000
vn -1.000000 0.000000 0.000000
vn 0.004256 0.000000 0.999991
vn 0.004256 0.000000 0.999991
vn 0.004256 0.000000 0.999991
vn 0.004256 0.000000 0.999991
vn 0.004256 0.000000 0.999991
vn 0.004256 0.000000 0.999991
vn 0.999981 0.000000 0.006222
vn 0.999981 0.000000 0.006222
vn 0.999981 0.000000 0.006222
vn 0.999981 0.000000 0.006222
vn 0.999981 0.000000 0.006222
vn 0.999981 0.000000 0.006222
vn 0.073587 0.000000 0.997289
vn 0.073587 0.000000 0.997289
vn 0.073587 0.000000 0.997289
vn 0.073595 0.000000 0.997288
vn 0.073595 0.000000 0.997288
vn 0.073595 0.000000 0.997288
vn -0.999983 0.000000 -0.005895
vn -0.999983 0.000000 -0.005895
vn -0.999983 0.000000 -0.005895
vn -0.999983 0.000000 -0.005895
vn -0.999983 0.000000 -0.005895
vn -0.999983 0.000000 -0.005895
vn -0.003798 0.000000 -0.999993
vn -0.003798 0.000000 -0.999993
vn -0.003798 0.000000 -0.999993
vn -0.003798 0.000000 -0.999993
vn -0.003798 0.000000 -0.999993
vn -0.003798 0.000000 -0.999993
vn 1.000000 0.000000 0.000000
vn 1.000000 0.000000 0.000000
vn 1.000000 0.000000 0.000000
vn 1.000000 0.000000 0.000000
vn 1.000000 0.000000 0.000000
vn 1.000000 0.000000 0.000000
vn 0.000000 0.000000 1.000000
vn 0.000000 0.000000 1.000000
vn 0.000000 0.000000 1.000000
vn 0.000000 0.000000 1.000000
vn 0.000000 0.000000 1.000000
vn 0.000000 0.000000 1.000000
vn 0.999910 0.000000 0.013390
vn 0.999910 0.000000 0.013390
vn 0.999910 0.000000 0.013390
vn 0.999910 0.000000 0.013390
vn 0.999910 0.000000 0.013390
vn 0.999910 0.000000 0.013390
vn -0.001919 0.000000 0.999998
vn -0.001919 0.000000 0.999998
vn -0.001919 0.000000 0.999998
vn -0.001918 0.000000 0.999998
vn -0.001918 0.000000 0.999998
vn -0.001918 0.000000 0.999998
vn -0.001918 0.000000 0.999998
vn 0.000000 -1.000000 0.000000
vn 0.000000 -1.000000 0.000000
vn 0.000000 -1.000000 0.000000
vn 0.000000 -1.000000 0.000000
vn 0.000000 -1.000000 0.000000
vn 0.000000 -1.000000 0.000000
vn 0.000000 -1.000000 0.000000
vn 0.000000 -1.000000 0.000000
vn 0.000000 -1.000000 0.000000
vn 0.000000 -1.000000 0.000000
vn 0.000000 -1.000000 0.000000
vn 0.000000 -1.000000 0.000000
vn 0.000000 -1.000000 0.000000
vn 0.000000 -1.000000 0.000000
vn 0.000000 -1.000000 0.000000
vn 0.000000 -1.000000 0.000000
vn 0.000000 -1.000000 0.000000
vn 0.000000 -1.000000 0.000000
vn 0.000000 -1.000000 0.000000
vn 0.000000 -1.000000 0.000000
vn 0.000000 -1.000000 0.000000
vn 0.000000 -1.000000 0.000000
vn 0.000000 -1.000000 0.000000
vn 0.000000 -1.000000 0.000000
vn 0.000000 -1.000000 0.000000
vn 0.000000 -1.000000 0.000000
vn 0.000000 -1.000000 0.000000
vn 0.000000 -1.000000 0.000000
vn 0.000000 -1.000000 0.000000
vn 0.000000 -1.000000 0.000000
vn 0.000000 -1.000000 0.000000
vn 0.000000 -1.000000 0.000000
vn 0.000000 -1.000000 0.000000
vn 0.000000 1.000000 0.000000
vn 0.000000 1.000000 0.000000
vn 0.000000 1.000000 0.000000
vn 0.000000 1.000000 0.000000
vn 0.000000 1.000000 0.000000
vn 0.000000 1.000000 -0.000000
vn 0.000000 1.000000 -0.000000
vn 0.000000 1.000000 -0.000000
vn 0.000000 1.000000 0.000000
vn 0.000000 1.000000 0.000001
vn 0.000000 1.000000 0.000001
vn 0.000000 1.000000 0.000001
vn 0.000000 1.000000 0.000000
vn 0.000000 1.000000 0.000000
vn 0.000000 1.000000 0.000000
vn 0.000000 1.000000 0.000000
vn 0.000000 1.000000 0.000000
vn 0.000000 1.000000 0.000000
vn 0.000000 1.000000 0.000000
vn 0.000000 1.000000 0.000000
vn 0.000000 1.000000 0.000000
vn 0.000000 1.000000 0.000000
vn 0.000000 1.000000 0.000000
vn 0.000000 1.000000 0.000000
vn 0.000000 1.000000 0.000000
vn 0.000000 1.000000 0.000000
vn 0.000000 1.000000 0.000000
vn 0.000000 1.000000 0.000000
vn 0.000000 1.000000 0.000000
vn 0.000000 1.000000 0.000000
vn 0.000000 1.000000 -0.000000
vn 0.000000 1.000000 -0.000000
vn 0.000000 1.000000 -0.000000
vn -0.001468 0.000000 -0.999999
vn -0.001469 0.000000 -0.999999
vn -0.001469 0.000000 -0.999999
vn -0.001471 0.000000 -0.999999
vn 0.000000 1.000000 -0.000000
vn 0.000000 1.000000 -0.000000
vn 0.000000 1.000000 -0.000000
vn 0.000000 1.000000 0.000000
vn 0.001471 0.000000 0.999999
vn 0.001469 0.000000 0.999999
vn 0.001469 0.000000 0.999999
vn 0.001468 0.000000 0.999999
vn 0.000000 -1.000000 0.000000
vn 0.000000 -1.000000 0.000000
vn 0.000000 -1.000000 0.000000
vn 0.000000 -1.000000 0.000000
vn -0.999999 0.000000 0.001471
vn -0.999999 0.000000 0.001471
vn -0.999999 0.000000 0.001471
vn -0.999999 0.000000 0.001471
vn 0.999999 0.000000 -0.001469
vn 0.999999 0.000000 -0.001469
vn 0.999999 0.000000 -0.001469
vn 0.999999 0.000000 -0.001469
vn -0.001470 0.000000 -0.999999
vn -0.001470 0.000000 -0.999999
vn -0.001470 0.000000 -0.999999
vn -0.001470 0.000000 -0.999999
vn 0.000000 1.000000 0.000000
vn 0.000000 1.000000 0.000000
vn 0.000000 1.000000 0.000000
vn 0.000000 1.000000 0.000000
vn 0.001473 0.000000 0.999999
vn 0.001471 0.000000 0.999999
vn 0.001471 0.000000 0.999999
vn 0.001470 0.000000 0.999999
vn 0.000000 -1.000000 0.000000
vn 0.000000 -1.000000 0.000000
vn 0.000000 -1.000000 0.000000
vn 0.000000 -1.000000 0.000000
vn -0.999999 0.000000 0.001471
vn -0.999999 0.000000 0.001471
vn -0.999999 0.000000 0.001471
vn -0.999999 0.000000 0.001471
vn 0.999999 0.000000 -0.001471
vn 0.999999 0.000000 -0.001471
vn 0.999999 0.000000 -0.001471
vn 0.999999 0.000000 -0.001471
vn -0.001467 0.000000 -0.999999
vn -0.001470 0.000000 -0.999999
vn -0.001470 0.000000 -0.999999
vn -0.001472 0.000000 -0.999999
vn 0.000000 1.000000 -0.000000
vn 0.000000 1.000000 -0.000000
vn 0.000000 1.000000 -0.000000
vn 0.000000 1.000000 0.000000
vn 0.001467 0.000000 0.999999
vn 0.001470 0.000000 0.999999
vn 0.001470 0.000000 0.999999
vn 0.001472 0.000000 0.999999
vn 0.000000 -1.000000 0.000000
vn 0.000000 -1.000000 0.000000
vn 0.000000 -1.000000 0.000000
vn 0.000000 -1.000000 0.000000
vn -0.999999 0.000000 0.001469
vn -0.999999 0.000000 0.001469
vn -0.999999 0.000000 0.001469
vn -0.999999 0.000000 0.001469
vn 0.999999 0.000000 -0.001471
vn 0.999999 0.000000 -0.001471
vn 0.999999 0.000000 -0.001471
vn 0.999999 0.000000 -0.001471
vn -0.001469 0.000000 -0.999999
vn -0.001471 0.000000 -0.999999
vn -0.001471 0.000000 -0.999999
vn -0.001473 0.000000 -0.999999
vn 0.000000 1.000000 -0.000000
vn 0.000000 1.000000 -0.000000
vn 0.000000 1.000000 -0.000000
vn 0.000000 1.000000 0.000000
vn 0.001466 0.000000 0.999999
vn 0.001469 0.000000 0.999999
vn 0.001469 0.000000 0.999999
vn 0.001473 0.000000 0.999999
vn 0.000000 -1.000000 0.000000
vn 0.000000 -1.000000 0.000000
vn 0.000000 -1.000000 0.000000
vn 0.000000 -1.000000 0.000000
vn -0.999999 0.000000 0.001471
vn -0.999999 0.000000 0.001471
vn -0.999999 0.000000 0.001471
vn -0.999999 0.000000 0.001471
vn 0.999999 0.000000 -0.001471
vn 0.999999 0.000000 -0.001471
vn 0.999999 0.000000 -0.001471
vn 0.999999 0.000000 -0.001471
vn -0.001471 0.000000 -0.999999
vn -0.001471 0.000000 -0.999999
vn -0.001471 0.000000 -0.999999
vn -0.001471 0.000000 -0.999999
vn 0.000000 1.000000 -0.000000
vn 0.000000 1.000000 -0.000000
vn 0.000000 1.000000 -0.000000
vn 0.000000 1.000000 0.000000
vn 0.001471 0.000000 0.999999
vn 0.001471 0.000000 0.999999
vn 0.001471 0.000000 0.999999
vn 0.001471 0.000000 0.999999
vn 0.000000 -1.000000 0.000000
vn 0.000000 -1.000000 0.000000
vn 0.000000 -1.000000 0.000000
vn 0.000000 -1.000000 0.000000
vn -0.999999 0.000000 0.001469
vn -0.999999 0.000000 0.001469
vn -0.999999 0.000000 0.001469
vn -0.999999 0.000000 0.001469
vn 0.999999 0.000000 -0.001471
vn 0.999999 0.000000 -0.001471
vn 0.999999 0.000000 -0.001471
vn 0.999999 0.000000 -0.001471
vn -0.001469 0.000000 -0.999999
vn -0.001469 0.000000 -0.999999
vn -0.001469 0.000000 -0.999999
vn -0.001469 0.000000 -0.999999
vn 0.000000 1.000000 0.000000
vn 0.000000 1.000000 -0.000000
vn 0.000000 1.000000 -0.000000
vn 0.000000 1.000000 -0.000000
vn 0.001469 0.000000 0.999999
vn 0.001469 0.000000 0.999999
vn 0.001469 0.000000 0.999999
vn 0.001469 0.000000 0.999999
vn 0.000000 -1.000000 0.000000
vn 0.000000 -1.000000 0.000000
vn 0.000000 -1.000000 0.000000
vn 0.000000 -1.000000 0.000000
vn -0.999999 0.000000 0.001469
vn -0.999999 0.000000 0.001469
vn -0.999999 0.000000 0.001469
vn -0.999999 0.000000 0.001469
vn 0.999999 0.000000 -0.001469
vn 0.999999 0.000000 -0.001469
vn 0.999999 0.000000 -0.001469
vn 0.999999 0.000000 -0.001469
vn -0.001469 0.000000 -0.999999
vn -0.001469 0.000000 -0.999999
vn -0.001469 0.000000 -0.999999
vn -0.001469 0.000000 -0.999999
vn 0.000000 1.000000 0.000000
vn 0.000000 1.000000 -0.000000
vn 0.000000 1.000000 -0.000000
vn 0.000000 1.000000 -0.000000
vn 0.001469 0.000000 0.999999
vn 0.001469 0.000000 0.999999
vn 0.001469 0.000000 0.999999
vn 0.001469 0.000000 0.999999
vn 0.000000 -1.000000 0.000000
vn 0.000000 -1.000000 0.000000
vn 0.000000 -1.000000 0.000000
vn 0.000000 -1.000000 0.000000
vn -0.999999 0.000000 0.001469
vn -0.999999 0.000000 0.001469
vn -0.999999 0.000000 0.001469
vn -0.999999 0.000000 0.001469
vn 0.999999 0.000000 -0.001471
vn 0.999999 0.000000 -0.001471
vn 0.999999 0.000000 -0.001471
vn 0.999999 0.000000 -0.001471
s 1
g polySurface29
usemtl initialShadingGroup
f 1/1/1 2/2/2 3/3/3
f 3/3/3 2/2/2 4/4/4
s 2
f 3/3/5 4/4/6 5/5/7
f 5/5/7 4/4/6 6/6/8
s 3
f 5/5/9 6/6/10 7/7/11
f 7/7/11 6/6/10 8/8/12
s 4
f 7/7/13 8/8/14 1/9/15
f 1/9/15 8/8/14 2/10/16
s 5
f 2/2/17 8/11/18 4/4/19
f 4/4/19 8/11/18 6/12/20
s 6
f 7/13/21 1/1/22 5/14/23
f 5/14/23 1/1/22 3/3/24
s 7
f 10/15/25 11/16/26 9/17/27
f 12/18/28 13/19/29 11/16/26
f 14/20/30 15/21/31 13/19/29
f 15/21/31 9/17/27 13/19/29
f 9/17/27 11/16/26 13/19/29
s 8
f 15/22/32 14/23/33 18/24/34
f 16/25/35 17/26/36 14/23/33
f 14/23/33 17/26/36 18/24/34
s off
usemtl bright_111:initialShadingGroup
f 17/27/37 16/28/38 19/29/39
s 10
f 18/30/40 17/31/41 20/32/42
f 20/32/42 17/31/41 19/29/43
s off
f 21/33/44 20/32/45 19/29/46
f 22/34/47 20/32/48 21/33/49
f 23/35/50 22/34/51 21/33/52
f 24/36/53 22/34/54 23/35/55
f 25/37/56 24/36/57 23/35/58
f 26/38/59 24/36/60 25/37/61
f 27/39/62 26/38/63 25/37/64
f 28/40/65 26/38/66 27/39/67
f 29/41/68 28/40/69 27/39/70
f 30/42/71 28/40/72 29/41/73
f 31/43/74 30/42/75 29/41/76
f 32/44/77 30/42/78 31/43/79
f 33/45/80 32/44/81 31/43/82
f 34/46/83 32/44/84 33/45/85
f 35/47/86 34/46/87 33/45/88
f 36/48/89 34/46/90 35/47/91
f 37/49/92 36/48/93 35/47/94
f 38/50/95 36/48/96 37/49/97
f 39/51/98 38/50/99 37/49/100
f 40/52/101 38/50/102 39/51/103
s 31
f 12/53/104 11/54/105 39/51/106
f 39/51/106 11/54/105 40/52/107
s off
f 11/55/108 10/56/109 40/52/110
s 33
f 10/57/111 9/58/112 40/59/113
f 40/59/113 9/58/112 38/60/114
s 34
f 9/61/115 15/62/116 38/60/117
f 38/60/117 15/62/116 20/63/118
f 15/62/116 18/64/119 20/63/118
s off
f 22/65/120 38/60/121 20/63/122
f 36/66/123 38/60/124 22/65/125
f 24/67/126 36/66/127 22/65/128
f 34/68/129 36/66/130 24/67/131
f 26/69/132 34/68/133 24/67/134
f 32/70/135 34/68/136 26/69/137
f 28/71/138 32/70/139 26/69/140
f 30/72/141 32/70/142 28/71/143
s 43
f 12/73/144 39/51/145 13/74/146
f 13/74/146 39/51/145 37/49/147
s 44
f 13/75/148 37/49/149 14/76/150
f 37/49/149 19/29/151 14/76/150
f 14/76/150 19/29/151 16/77/152
s off
f 21/33/153 19/29/154 37/49/155
f 35/47/156 21/33/157 37/49/158
f 23/35/159 21/33/160 35/47/161
f 33/45/162 23/35/163 35/47/164
f 25/37/165 23/35/166 33/45/167
f 31/43/168 25/37/169 33/45/170
f 27/39/171 25/37/172 31/43/173
f 29/41/174 27/39/175 31/43/176
s 53
usemtl initialShadingGroup
f 41/78/177 42/79/178 43/80/179
f 43/80/179 42/79/178 44/81/180
s 54
f 43/80/181 44/81/182 45/82/183
f 45/82/183 44/81/182 46/83/184
s 55
f 45/82/185 46/83/186 47/84/187
f 47/84/187 46/83/186 48/85/188
s 56
f 47/84/189 48/85/190 41/86/191
f 41/86/191 48/85/190 42/87/192
s 57
f 42/79/193 48/88/194 44/81/195
f 44/81/195 48/88/194 46/89/196
s 58
f 47/90/197 41/78/198 45/91/199
f 45/91/199 41/78/198 43/80/200
s 59
f 49/92/201 50/93/202 51/94/203
f 51/94/203 50/93/202 52/95/204
s 60
f 51/94/205 52/95/206 53/96/207
f 53/96/207 52/95/206 54/97/208
s 61
f 53/96/209 54/97/210 55/98/211
f 55/98/211 54/97/210 56/99/212
s 62
f 55/98/213 56/99/214 49/100/215
f 49/100/215 56/99/214 50/101/216
s 63
f 50/93/217 56/102/218 52/95/219
f 52/95/219 56/102/218 54/103/220
s 64
f 55/104/221 49/92/222 53/105/223
f 53/105/223 49/92/222 51/94/224
s 65
f 57/106/225 58/107/226 59/108/227
f 59/108/227 58/107/226 60/109/228
s 66
f 59/108/229 60/109/230 61/110/231
f 61/110/231 60/109/230 62/111/232
s 67
f 61/110/233 62/111/234 63/112/235
f 63/112/235 62/111/234 64/113/236
s 68
f 63/112/237 64/113/238 57/114/239
f 57/114/239 64/113/238 58/115/240
s 69
f 58/107/241 64/116/242 60/109/243
f 60/109/243 64/116/242 62/117/244
s 70
f 63/118/245 57/106/246 61/119/247
f 61/119/247 57/106/246 59/108/248
s 71
f 65/120/249 66/121/250 67/122/251
f 67/122/251 66/121/250 68/123/252
s 72
f 67/122/253 68/123/254 69/124/255
f 69/124/255 68/123/254 70/125/256
s 73
f 69/124/257 70/125/258 71/126/259
f 71/126/259 70/125/258 72/127/260
s 74
f 71/126/261 72/127/262 65/128/263
f 65/128/263 72/127/262 66/129/264
s 75
f 66/121/265 72/130/266 68/123/267
f 68/123/267 72/130/266 70/131/268
s 76
f 71/132/269 65/120/270 69/133/271
f 69/133/271 65/120/270 67/122/272
s 77
f 73/134/273 74/135/274 75/136/275
f 75/136/275 74/135/274 76/137/276
s 78
f 75/136/277 76/137/278 77/138/279
f 77/138/279 76/137/278 78/139/280
s 79
f 77/138/281 78/139/282 79/140/283
f 79/140/283 78/139/282 80/141/284
s 80
f 79/140/285 80/141/286 73/142/287
f 73/142/287 80/141/286 74/143/288
s 81
f 74/135/289 80/144/290 76/137/291
f 76/137/291 80/144/290 78/145/292
s 82
f 79/146/293 73/134/294 77/147/295
f 77/147/295 73/134/294 75/136/296
s 83
f 81/148/297 82/149/298 83/150/299
f 83/150/299 82/149/298 84/151/300
s 84
f 83/150/301 84/151/302 85/152/303
f 85/152/303 84/151/302 86/153/304
s 85
f 85/152/305 86/153/306 87/154/307
f 87/154/307 86/153/306 88/155/308
s 86
f 87/154/309 88/155/310 81/156/311
f 81/156/311 88/155/310 82/157/312
s 87
f 82/149/313 88/158/314 84/151/315
f 84/151/315 88/158/314 86/159/316
s 88
f 87/160/317 81/148/318 85/161/319
f 85/161/319 81/148/318 83/150/320
s 89
f 89/162/321 90/163/322 91/164/323
f 91/164/323 90/163/322 92/165/324
s 90
f 91/164/325 92/165/326 93/166/327
f 93/166/327 92/165/326 94/167/328
s 91
f 93/166/329 94/167/330 95/168/331
f 95/168/331 94/167/330 96/169/332
s 92
f 95/168/333 96/169/334 89/170/335
f 89/170/335 96/169/334 90/171/336
s 93
f 90/163/337 96/172/338 92/165/339
f 92/165/339 96/172/338 94/173/340
s 94
f 95/174/341 89/162/342 93/175/343
f 93/175/343 89/162/342 91/164/344
