# This file uses centimeters as units for non-parametric coordinates.

mtllib bright_stair_3b.mtl
g bright_stair_1b:default1
v -85.725098 90.000000 -96.263082
v -115.474915 75.000000 -96.278845
v -115.474915 75.000000 -75.666357
v -85.725105 60.000000 -75.620344
v -85.725098 60.000000 -83.917906
v -107.052521 75.000000 -83.979689
v -106.974983 75.000000 -88.370283
v -85.725105 90.000000 -87.903738
v -107.362526 75.000000 -96.270971
v -106.926247 75.000000 -75.643347
vt 0.000000 0.000000
vt 0.995531 0.000000
vt 1.000000 0.656885
vt 0.004699 0.690745
vt 0.002810 0.413093
vt 0.727277 0.387847
vt 0.712858 0.259271
vt 0.002027 0.297969
vt 0.497766 0.000000
vt 0.502349 0.673815
vn -0.483271 0.875471 -0.000000
vn -0.251475 0.967844 0.006212
vn -0.486796 0.873433 0.012024
vn -0.486796 0.873433 0.012024
vn -0.251475 0.967844 0.006212
vn -0.168300 0.985701 0.008255
vn -0.000000 1.000000 0.000000
vn 0.000000 1.000000 0.000000
vn -0.251475 0.967844 0.006212
vn -0.251475 0.967844 0.006212
vn 0.000000 1.000000 0.000000
vn -0.168300 0.985701 0.008255
vn -0.168300 0.985701 0.008255
vn 0.000000 1.000000 0.000000
vn 0.168967 0.985618 -0.002560
vn 0.000000 1.000000 0.000000
vn 0.338744 0.940875 -0.002560
vn 0.168967 0.985618 -0.002560
vn 0.494312 0.869285 0.000001
vn 0.493209 0.869903 -0.003727
vn 0.338744 0.940875 -0.002560
vn 0.338744 0.940875 -0.002560
vn 0.493209 0.869903 -0.003727
vn 0.168967 0.985618 -0.002560
s off
g bright_stair_1b:group2 bright_stair_1b:pasted__polySurface53 polySurface21
usemtl bright_stair_1b:initialShadingGroup
f 1/1/1 9/9/2 8/8/3
f 8/8/4 9/9/5 7/7/6
f 2/2/7 3/3/8 9/9/9
f 9/9/10 3/3/11 7/7/12
f 7/7/13 3/3/14 6/6/15
f 3/3/16 10/10/17 6/6/18
f 4/4/19 5/5/20 10/10/21
f 10/10/22 5/5/23 6/6/24
