# This file uses centimeters as units for non-parametric coordinates.

mtllib bright_2nd_floor_walls.mtl
g default
v -174.600006 29.925341 -22.500000
v -100.041794 29.925341 -22.500000
v -174.600006 54.437111 -22.500000
v -100.041794 54.437111 -22.500000
v -168.100006 29.925341 -22.789913
v -168.100006 29.925341 -70.199997
v -168.100006 54.437111 -22.789913
v -168.100006 54.437111 -70.199997
v -168.100006 29.925341 -70.199997
v -88.200005 29.925341 -70.199997
v -168.100006 54.437111 -70.199997
v -88.200005 54.437111 -70.199997
v -103.699997 29.925341 -22.789913
v -103.699997 29.925341 -56.600006
v -103.699997 54.437111 -22.789913
v -103.699997 54.437111 -56.600006
v -104.250000 29.925341 -56.900002
v -77.600006 29.925341 -56.900002
v -104.250000 54.437111 -56.900002
v -77.600006 54.437111 -56.900002
v -97.799995 29.925341 38.600006
v -97.099998 29.925341 -56.600006
v -97.799995 54.437111 38.600006
v -97.099998 54.437111 -56.600006
v -65.424995 29.925341 -56.900002
v -43.699989 29.925341 -56.900002
v -65.424995 54.437111 -56.900002
v -43.699989 54.437111 -56.900002
v -44.400002 29.925341 6.000000
v -44.400002 29.925341 -56.600006
v -44.400002 54.437111 6.000000
v -44.400002 54.437111 -56.600006
v -97.925003 29.925341 -0.200000
v -43.900005 29.925341 -0.200000
v -97.925003 54.437111 -0.200000
v -43.900005 54.437111 -0.200000
v -76.400002 29.925341 -68.199997
v -76.400002 29.925341 -120.000000
v -76.400002 54.437111 -68.199997
v -76.400002 54.437111 -120.000000
v -27.500000 29.925341 -68.199997
v -27.500000 29.925341 -120.000000
v -27.500000 54.437111 -68.199997
v -27.500000 54.437111 -120.000000
v -77.400009 29.925341 -119.400002
v -26.750000 29.925341 -119.400002
v -77.400009 54.437111 -119.400002
v -26.750000 54.437111 -119.400002
v -64.300018 29.925341 -70.199997
v -26.450005 29.925341 -70.199997
v -64.300018 54.437111 -70.199997
v -26.450005 54.437111 -70.199997
v 25.400003 29.925341 -70.199997
v 65.299995 29.925341 -70.199997
v 25.400003 54.437111 -70.199997
v 65.299995 54.437111 -70.199997
v 27.425007 29.925341 -68.199997
v 27.425007 29.925341 -120.000000
v 27.425007 54.437111 -68.199997
v 27.425007 54.437111 -120.000000
v 76.325005 29.925341 -68.199997
v 76.325005 29.925341 -120.000000
v 76.325005 54.437111 -68.199997
v 76.325005 54.437111 -120.000000
v 26.424994 29.925341 -119.400002
v 77.075005 29.925341 -119.400002
v 26.424994 54.437111 -119.400002
v 77.075005 54.437111 -119.400002
v 98.599998 29.925341 -68.199997
v 98.599998 29.925341 -96.899963
v 98.599998 54.437111 -68.199997
v 98.599998 54.437111 -96.899963
v 75.974991 29.925341 -96.699997
v 120.800003 29.925341 -96.699997
v 75.974991 54.437111 -96.699997
v 120.800003 54.437111 -96.699997
v 74.774994 29.925341 -70.199997
v 89.099998 29.925341 -70.199997
v 74.774994 54.437111 -70.199997
v 89.099998 54.437111 -70.199997
v 106.539902 29.925341 -70.199997
v 120.864906 29.925341 -70.199997
v 106.539902 54.437111 -70.199997
v 120.864906 54.437111 -70.199997
v 119.500000 29.925341 -29.000008
v 119.500000 29.925341 -98.500000
v 119.500000 54.437111 -29.000008
v 119.500000 54.437111 -98.500000
v 119.674988 29.925341 -71.500000
v 173.199997 29.925341 -71.500000
v 119.674988 54.437111 -71.500000
v 173.199997 54.437111 -71.500000
v 171.899994 29.925341 73.000008
v 171.899994 29.925341 -73.699997
v 171.899994 54.437111 73.000008
v 171.899994 54.437111 -73.699997
v 117.599991 29.925341 -18.400000
v 173.199997 29.925341 -18.400000
v 117.599991 54.437111 -18.400000
v 173.199997 54.437111 -18.400000
v 117.599991 29.925341 19.299999
v 173.199997 29.925341 19.299999
v 117.599991 54.437111 19.299999
v 173.199997 54.437111 19.299999
v 88.400009 29.925341 72.500000
v 173.199997 29.925341 72.500000
v 88.400009 54.437111 72.500000
v 173.199997 54.437111 72.500000
v 119.500000 29.925341 40.500000
v 119.500000 29.925341 -6.149979
v 119.500000 54.437111 40.500000
v 119.500000 54.437111 -6.149979
v 119.500000 29.925341 72.549995
v 119.500000 29.925341 53.100002
v 119.500000 54.437111 72.549995
v 119.500000 54.437111 53.100002
v 76.500000 29.925341 122.500000
v 76.500000 29.925341 71.075012
v 76.500000 54.437111 122.500000
v 76.500000 54.437111 71.075012
v 27.200001 29.925341 122.500000
v 27.200001 29.925341 71.075012
v 27.200001 54.437111 122.500000
v 27.200001 54.437111 71.075012
v 25.900005 29.925341 122.900002
v 76.900002 29.925341 122.900002
v 25.900005 54.437111 122.900002
v 76.900002 54.437111 122.900002
v -32.300018 29.925341 71.400002
v 57.799995 29.925341 71.400002
v -32.300018 54.437111 71.400002
v 57.799995 54.437111 71.400002
v 68.150009 29.925341 71.400002
v 76.900009 29.925341 71.400002
v 68.150009 54.437111 71.400002
v 76.900009 54.437111 71.400002
v -27.600002 29.925341 120.600006
v -27.600002 29.925341 71.075012
v -27.600002 54.437111 120.600006
v -27.600002 54.437111 71.075012
v -76.599998 29.925341 120.600006
v -76.599998 29.925341 71.075012
v -76.599998 54.437111 120.600006
v -76.599998 54.437111 71.075012
v -77.235092 29.925341 119.800003
v -26.235094 29.925341 119.800003
v -77.235092 54.437111 119.800003
v -26.235094 54.437111 119.800003
v -90.199997 29.925341 72.599998
v -44.835091 29.925341 72.599998
v -90.199997 54.437111 72.599998
v -44.835091 54.437111 72.599998
v -119.500000 29.925341 98.699997
v -76.000000 29.925341 98.699997
v -119.500000 54.437111 98.699997
v -76.000000 54.437111 98.699997
v -119.500000 29.925341 99.862495
v -119.500000 29.925341 71.800018
v -119.500000 54.437111 99.862495
v -119.500000 54.437111 71.800018
v -175.099991 29.925341 73.500000
v -105.417542 29.925341 73.500000
v -175.099991 54.437111 73.500000
v -105.417542 54.437111 73.500000
v -150.899994 29.925341 73.693756
v -150.899994 29.925341 65.162521
v -150.899994 54.437111 73.693756
v -150.899994 54.437111 65.162521
v -150.899994 29.925341 53.293758
v -150.899994 29.925341 43.899998
v -150.899994 54.437111 53.293758
v -150.899994 54.437111 43.899998
v -174.900009 29.925341 47.500000
v -150.250015 29.925341 47.500000
v -174.900009 54.437111 47.500000
v -150.250015 54.437111 47.500000
v -150.899994 29.925341 29.400002
v -150.899994 29.925341 23.103119
v -150.899994 54.437111 29.400002
v -150.899994 54.437111 23.103119
v -150.899994 29.925341 53.293758
v -150.899994 29.925341 43.899998
v -150.899994 54.437111 53.293758
v -150.899994 54.437111 43.899998
v -174.900009 29.925341 24.500000
v -112.400009 29.925341 24.500000
v -174.900009 54.437111 24.500000
v -112.400009 54.437111 24.500000
v -174.300003 29.925341 74.300011
v -174.300003 29.925341 -23.399996
v -174.300003 54.437111 74.300011
v -174.300003 54.437111 -23.399996
v -44.400002 29.925341 55.399994
v -44.400002 29.925341 19.099997
v -44.400002 54.437111 55.399994
v -44.400002 54.437111 19.099997
v -82.800003 29.925341 37.599998
v -43.217545 29.925341 37.599998
v -82.800003 54.437111 37.599998
v -43.217545 54.437111 37.599998
v -27.600000 29.925341 55.600029
v -27.600000 29.925341 -55.300003
v -27.600000 54.437111 55.600029
v -27.600000 54.437111 -55.300003
v -27.950008 29.925341 54.500000
v 50.099991 29.925341 54.500000
v -27.950008 54.437111 54.500000
v 50.099991 54.437111 54.500000
v 78.000000 29.925341 55.600029
v 78.000000 29.925341 -55.300003
v 78.000000 54.437111 55.600029
v 78.000000 54.437111 -55.300003
v -27.950008 29.925341 -54.599998
v 50.099991 29.925341 -54.599998
v -27.950008 54.437111 -54.599998
v 50.099991 54.437111 -54.599998
v 63.400009 29.925341 55.799999
v 104.824997 29.925341 56.700001
v 63.400009 54.437111 55.799999
v 104.824997 54.437111 56.700001
v 25.675003 29.925341 3.100000
v 103.725006 29.925341 3.100000
v 25.675003 54.437111 3.100000
v 103.725006 54.437111 3.100000
v 103.699997 29.925341 -9.999989
v 103.699997 29.925341 -55.300003
v 103.699997 54.437111 -9.999989
v 103.699997 54.437111 -55.300003
v 103.699997 29.925341 43.599998
v 103.699997 29.925341 3.799999
v 103.699997 54.437111 43.599998
v 103.699997 54.437111 3.799999
v 62.099998 29.925341 -54.599998
v 104.024994 29.925341 -54.599998
v 62.099998 54.437111 -54.599998
v 104.024994 54.437111 -54.599998
v 27.100000 29.925341 55.600029
v 27.100000 29.925341 -55.300003
v 27.100000 54.437111 55.600029
v 27.100000 54.437111 -55.300003
vt 0.000000 0.000000
vt 1.000000 0.000000
vt 0.000000 0.324675
vt 1.000000 0.324675
vt 0.000000 0.000000
vt 1.000000 0.000000
vt 0.000000 0.324675
vt 1.000000 0.324675
vt 0.000000 0.000000
vt 1.000000 0.000000
vt 0.000000 0.324675
vt 1.000000 0.324675
vt 0.000000 0.000000
vt 1.000000 0.000000
vt 0.000000 0.324675
vt 1.000000 0.324675
vt 0.000000 0.000000
vt 1.000000 0.000000
vt 0.000000 0.324675
vt 1.000000 0.324675
vt 0.000000 0.000000
vt 1.000000 0.000000
vt 0.000000 0.324675
vt 1.000000 0.324675
vt 0.000000 0.000000
vt 1.000000 0.000000
vt 0.000000 0.324675
vt 1.000000 0.324675
vt 0.000000 0.000000
vt 1.000000 0.000000
vt 0.000000 0.324675
vt 1.000000 0.324675
vt 0.000000 0.000000
vt 1.000000 0.000000
vt 0.000000 0.324675
vt 1.000000 0.324675
vt 0.000000 0.000000
vt 1.000000 0.000000
vt 0.000000 0.324675
vt 1.000000 0.324675
vt 0.000000 0.000000
vt 1.000000 0.000000
vt 0.000000 0.324675
vt 1.000000 0.324675
vt 0.000000 0.000000
vt 1.000000 0.000000
vt 0.000000 0.324675
vt 1.000000 0.324675
vt 0.000000 0.000000
vt 1.000000 0.000000
vt 0.000000 0.324675
vt 1.000000 0.324675
vt 0.000000 0.000000
vt 1.000000 0.000000
vt 0.000000 0.324675
vt 1.000000 0.324675
vt 0.000000 0.000000
vt 1.000000 0.000000
vt 0.000000 0.324675
vt 1.000000 0.324675
vt 0.000000 0.000000
vt 1.000000 0.000000
vt 0.000000 0.324675
vt 1.000000 0.324675
vt 0.000000 0.000000
vt 1.000000 0.000000
vt 0.000000 0.324675
vt 1.000000 0.324675
vt 0.000000 0.000000
vt 1.000000 0.000000
vt 0.000000 0.324675
vt 1.000000 0.324675
vt 0.000000 0.000000
vt 1.000000 0.000000
vt 0.000000 0.324675
vt 1.000000 0.324675
vt 0.000000 0.000000
vt 1.000000 0.000000
vt 0.000000 0.324675
vt 1.000000 0.324675
vt 0.000000 0.000000
vt 1.000000 0.000000
vt 0.000000 0.324675
vt 1.000000 0.324675
vt 0.000000 0.000000
vt 1.000000 0.000000
vt 0.000000 0.324675
vt 1.000000 0.324675
vt 0.000000 0.000000
vt 1.000000 0.000000
vt 0.000000 0.324675
vt 1.000000 0.324675
vt 0.000000 0.000000
vt 1.000000 0.000000
vt 0.000000 0.324675
vt 1.000000 0.324675
vt 0.000000 0.000000
vt 1.000000 0.000000
vt 0.000000 0.324675
vt 1.000000 0.324675
vt 0.000000 0.000000
vt 1.000000 0.000000
vt 0.000000 0.324675
vt 1.000000 0.324675
vt 0.000000 0.000000
vt 1.000000 0.000000
vt 0.000000 0.324675
vt 1.000000 0.324675
vt 0.000000 0.000000
vt 1.000000 0.000000
vt 0.000000 0.324675
vt 1.000000 0.324675
vt 0.000000 0.000000
vt 1.000000 0.000000
vt 0.000000 0.324675
vt 1.000000 0.324675
vt 0.000000 0.000000
vt 1.000000 0.000000
vt 0.000000 0.324675
vt 1.000000 0.324675
vt 0.000000 0.000000
vt 1.000000 0.000000
vt 0.000000 0.324675
vt 1.000000 0.324675
vt 0.000000 0.000000
vt 1.000000 0.000000
vt 0.000000 0.324675
vt 1.000000 0.324675
vt 0.000000 0.000000
vt 1.000000 0.000000
vt 0.000000 0.324675
vt 1.000000 0.324675
vt 0.000000 0.000000
vt 1.000000 0.000000
vt 0.000000 0.324675
vt 1.000000 0.324675
vt 0.000000 0.000000
vt 1.000000 0.000000
vt 0.000000 0.324675
vt 1.000000 0.324675
vt 0.000000 0.000000
vt 1.000000 0.000000
vt 0.000000 0.324675
vt 1.000000 0.324675
vt 0.000000 0.000000
vt 1.000000 0.000000
vt 0.000000 0.324675
vt 1.000000 0.324675
vt 0.000000 0.000000
vt 1.000000 0.000000
vt 0.000000 0.324675
vt 1.000000 0.324675
vt 0.000000 0.000000
vt 1.000000 0.000000
vt 0.000000 0.324675
vt 1.000000 0.324675
vt 0.000000 0.000000
vt 1.000000 0.000000
vt 0.000000 0.324675
vt 1.000000 0.324675
vt 0.000000 0.000000
vt 1.000000 0.000000
vt 0.000000 0.324675
vt 1.000000 0.324675
vt 0.000000 0.000000
vt 1.000000 0.000000
vt 0.000000 0.324675
vt 1.000000 0.324675
vt 0.000000 0.000000
vt 1.000000 0.000000
vt 0.000000 0.324675
vt 1.000000 0.324675
vt 0.000000 0.000000
vt 1.000000 0.000000
vt 0.000000 0.324675
vt 1.000000 0.324675
vt 0.000000 0.000000
vt 1.000000 0.000000
vt 0.000000 0.324675
vt 1.000000 0.324675
vt 0.000000 0.000000
vt 1.000000 0.000000
vt 0.000000 0.324675
vt 1.000000 0.324675
vt 0.000000 0.000000
vt 1.000000 0.000000
vt 0.000000 0.324675
vt 1.000000 0.324675
vt 0.000000 0.000000
vt 1.000000 0.000000
vt 0.000000 0.324675
vt 1.000000 0.324675
vt 0.000000 0.000000
vt 1.000000 0.000000
vt 0.000000 0.324675
vt 1.000000 0.324675
vt 0.000000 0.000000
vt 1.000000 0.000000
vt 0.000000 0.324675
vt 1.000000 0.324675
vt 0.000000 0.000000
vt 1.000000 0.000000
vt 0.000000 0.324675
vt 1.000000 0.324675
vt 0.000000 0.000000
vt 1.000000 0.000000
vt 0.000000 0.324675
vt 1.000000 0.324675
vt 0.000000 0.000000
vt 1.000000 0.000000
vt 0.000000 0.324675
vt 1.000000 0.324675
vt 0.000000 0.000000
vt 1.000000 0.000000
vt 0.000000 0.324675
vt 1.000000 0.324675
vt 0.000000 0.000000
vt 1.000000 0.000000
vt 0.000000 0.324675
vt 1.000000 0.324675
vt 0.000000 0.000000
vt 1.000000 0.000000
vt 0.000000 0.324675
vt 1.000000 0.324675
vt 0.000000 0.000000
vt 1.000000 0.000000
vt 0.000000 0.324675
vt 1.000000 0.324675
vt 0.000000 0.000000
vt 1.000000 0.000000
vt 0.000000 0.324675
vt 1.000000 0.324675
vt 0.000000 0.000000
vt 1.000000 0.000000
vt 0.000000 0.324675
vt 1.000000 0.324675
vt 0.000000 0.000000
vt 1.000000 0.000000
vt 0.000000 0.324675
vt 1.000000 0.324675
vn 0.000000 0.000000 1.000000
vn 0.000000 0.000000 1.000000
vn 0.000000 0.000000 1.000000
vn 0.000000 0.000000 1.000000
vn 1.000000 0.000000 0.000000
vn 1.000000 0.000000 0.000000
vn 1.000000 0.000000 0.000000
vn 1.000000 0.000000 0.000000
vn 0.000000 0.000000 1.000000
vn 0.000000 0.000000 1.000000
vn 0.000000 0.000000 1.000000
vn 0.000000 0.000000 1.000000
vn 1.000000 0.000000 0.000000
vn 1.000000 0.000000 0.000000
vn 1.000000 0.000000 0.000000
vn 1.000000 0.000000 0.000000
vn 0.000000 0.000000 1.000000
vn 0.000000 0.000000 1.000000
vn 0.000000 0.000000 1.000000
vn 0.000000 0.000000 1.000000
vn 0.999973 0.000000 0.007353
vn 0.999973 0.000000 0.007353
vn 0.999973 0.000000 0.007353
vn 0.999973 0.000000 0.007353
vn 0.000000 0.000000 1.000000
vn 0.000000 0.000000 1.000000
vn 0.000000 0.000000 1.000000
vn 0.000000 0.000000 1.000000
vn 1.000000 0.000000 0.000000
vn 1.000000 0.000000 0.000000
vn 1.000000 0.000000 0.000000
vn 1.000000 0.000000 0.000000
vn 0.000000 0.000000 1.000000
vn 0.000000 0.000000 1.000000
vn 0.000000 0.000000 1.000000
vn 0.000000 0.000000 1.000000
vn 1.000000 0.000000 0.000000
vn 1.000000 0.000000 0.000000
vn 1.000000 0.000000 0.000000
vn 1.000000 0.000000 0.000000
vn 1.000000 0.000000 0.000000
vn 1.000000 0.000000 0.000000
vn 1.000000 0.000000 0.000000
vn 1.000000 0.000000 0.000000
vn 0.000000 0.000000 1.000000
vn 0.000000 0.000000 1.000000
vn 0.000000 0.000000 1.000000
vn 0.000000 0.000000 1.000000
vn 0.000000 0.000000 1.000000
vn 0.000000 0.000000 1.000000
vn 0.000000 0.000000 1.000000
vn 0.000000 0.000000 1.000000
vn 0.000000 0.000000 1.000000
vn 0.000000 0.000000 1.000000
vn 0.000000 0.000000 1.000000
vn 0.000000 0.000000 1.000000
vn 1.000000 0.000000 0.000000
vn 1.000000 0.000000 0.000000
vn 1.000000 0.000000 0.000000
vn 1.000000 0.000000 0.000000
vn 1.000000 0.000000 0.000000
vn 1.000000 0.000000 0.000000
vn 1.000000 0.000000 0.000000
vn 1.000000 0.000000 0.000000
vn 0.000000 0.000000 1.000000
vn 0.000000 0.000000 1.000000
vn 0.000000 0.000000 1.000000
vn 0.000000 0.000000 1.000000
vn 1.000000 0.000000 0.000000
vn 1.000000 0.000000 0.000000
vn 1.000000 0.000000 0.000000
vn 1.000000 0.000000 0.000000
vn 0.000000 0.000000 1.000000
vn 0.000000 0.000000 1.000000
vn 0.000000 0.000000 1.000000
vn 0.000000 0.000000 1.000000
vn 0.000000 0.000000 1.000000
vn 0.000000 0.000000 1.000000
vn 0.000000 0.000000 1.000000
vn 0.000000 0.000000 1.000000
vn 0.000000 0.000000 1.000000
vn 0.000000 0.000000 1.000000
vn 0.000000 0.000000 1.000000
vn 0.000000 0.000000 1.000000
vn 1.000000 0.000000 0.000000
vn 1.000000 0.000000 0.000000
vn 1.000000 0.000000 0.000000
vn 1.000000 0.000000 0.000000
vn 0.000000 0.000000 1.000000
vn 0.000000 0.000000 1.000000
vn 0.000000 0.000000 1.000000
vn 0.000000 0.000000 1.000000
vn 1.000000 0.000000 0.000000
vn 1.000000 0.000000 0.000000
vn 1.000000 0.000000 0.000000
vn 1.000000 0.000000 0.000000
vn 0.000000 0.000000 1.000000
vn 0.000000 0.000000 1.000000
vn 0.000000 0.000000 1.000000
vn 0.000000 0.000000 1.000000
vn 0.000000 0.000000 1.000000
vn 0.000000 0.000000 1.000000
vn 0.000000 0.000000 1.000000
vn 0.000000 0.000000 1.000000
vn 0.000000 0.000000 1.000000
vn 0.000000 0.000000 1.000000
vn 0.000000 0.000000 1.000000
vn 0.000000 0.000000 1.000000
vn 1.000000 0.000000 0.000000
vn 1.000000 0.000000 0.000000
vn 1.000000 0.000000 0.000000
vn 1.000000 0.000000 0.000000
vn 1.000000 0.000000 0.000000
vn 1.000000 0.000000 0.000000
vn 1.000000 0.000000 0.000000
vn 1.000000 0.000000 0.000000
vn 1.000000 0.000000 0.000000
vn 1.000000 0.000000 0.000000
vn 1.000000 0.000000 0.000000
vn 1.000000 0.000000 0.000000
vn 1.000000 0.000000 0.000000
vn 1.000000 0.000000 0.000000
vn 1.000000 0.000000 0.000000
vn 1.000000 0.000000 0.000000
vn 0.000000 0.000000 1.000000
vn 0.000000 0.000000 1.000000
vn 0.000000 0.000000 1.000000
vn 0.000000 0.000000 1.000000
vn 0.000000 0.000000 1.000000
vn 0.000000 0.000000 1.000000
vn 0.000000 0.000000 1.000000
vn 0.000000 0.000000 1.000000
vn 0.000000 0.000000 1.000000
vn 0.000000 0.000000 1.000000
vn 0.000000 0.000000 1.000000
vn 0.000000 0.000000 1.000000
vn 1.000000 0.000000 0.000000
vn 1.000000 0.000000 0.000000
vn 1.000000 0.000000 0.000000
vn 1.000000 0.000000 0.000000
vn 1.000000 0.000000 0.000000
vn 1.000000 0.000000 0.000000
vn 1.000000 0.000000 0.000000
vn 1.000000 0.000000 0.000000
vn 0.000000 0.000000 1.000000
vn 0.000000 0.000000 1.000000
vn 0.000000 0.000000 1.000000
vn 0.000000 0.000000 1.000000
vn 0.000000 0.000000 1.000000
vn 0.000000 0.000000 1.000000
vn 0.000000 0.000000 1.000000
vn 0.000000 0.000000 1.000000
vn 0.000000 0.000000 1.000000
vn 0.000000 0.000000 1.000000
vn 0.000000 0.000000 1.000000
vn 0.000000 0.000000 1.000000
vn 1.000000 0.000000 0.000000
vn 1.000000 0.000000 0.000000
vn 1.000000 0.000000 0.000000
vn 1.000000 0.000000 0.000000
vn 0.000000 0.000000 1.000000
vn 0.000000 0.000000 1.000000
vn 0.000000 0.000000 1.000000
vn 0.000000 0.000000 1.000000
vn 1.000000 0.000000 0.000000
vn 1.000000 0.000000 0.000000
vn 1.000000 0.000000 0.000000
vn 1.000000 0.000000 0.000000
vn 1.000000 0.000000 0.000000
vn 1.000000 0.000000 0.000000
vn 1.000000 0.000000 0.000000
vn 1.000000 0.000000 0.000000
vn 0.000000 0.000000 1.000000
vn 0.000000 0.000000 1.000000
vn 0.000000 0.000000 1.000000
vn 0.000000 0.000000 1.000000
vn 1.000000 0.000000 0.000000
vn 1.000000 0.000000 0.000000
vn 1.000000 0.000000 0.000000
vn 1.000000 0.000000 0.000000
vn 1.000000 0.000000 0.000000
vn 1.000000 0.000000 0.000000
vn 1.000000 0.000000 0.000000
vn 1.000000 0.000000 0.000000
vn 0.000000 0.000000 1.000000
vn 0.000000 0.000000 1.000000
vn 0.000000 0.000000 1.000000
vn 0.000000 0.000000 1.000000
vn 1.000000 0.000000 0.000000
vn 1.000000 0.000000 0.000000
vn 1.000000 0.000000 0.000000
vn 1.000000 0.000000 0.000000
vn 1.000000 0.000000 0.000000
vn 1.000000 0.000000 0.000000
vn 1.000000 0.000000 0.000000
vn 1.000000 0.000000 0.000000
vn 0.000000 0.000000 1.000000
vn 0.000000 0.000000 1.000000
vn 0.000000 0.000000 1.000000
vn 0.000000 0.000000 1.000000
vn 1.000000 0.000000 0.000000
vn 1.000000 0.000000 0.000000
vn 1.000000 0.000000 0.000000
vn 1.000000 0.000000 0.000000
vn 0.000000 0.000000 1.000000
vn 0.000000 0.000000 1.000000
vn 0.000000 0.000000 1.000000
vn 0.000000 0.000000 1.000000
vn 1.000000 0.000000 0.000000
vn 1.000000 0.000000 0.000000
vn 1.000000 0.000000 0.000000
vn 1.000000 0.000000 0.000000
vn 0.000000 0.000000 1.000000
vn 0.000000 0.000000 1.000000
vn 0.000000 0.000000 1.000000
vn 0.000000 0.000000 1.000000
vn -0.021721 0.000000 0.999764
vn -0.021721 0.000000 0.999764
vn -0.021721 0.000000 0.999764
vn -0.021721 0.000000 0.999764
vn 0.000000 0.000000 1.000000
vn 0.000000 0.000000 1.000000
vn 0.000000 0.000000 1.000000
vn 0.000000 0.000000 1.000000
vn 1.000000 0.000000 0.000000
vn 1.000000 0.000000 0.000000
vn 1.000000 0.000000 0.000000
vn 1.000000 0.000000 0.000000
vn 1.000000 0.000000 0.000000
vn 1.000000 0.000000 0.000000
vn 1.000000 0.000000 0.000000
vn 1.000000 0.000000 0.000000
vn 0.000000 0.000000 1.000000
vn 0.000000 0.000000 1.000000
vn 0.000000 0.000000 1.000000
vn 0.000000 0.000000 1.000000
vn 1.000000 0.000000 0.000000
vn 1.000000 0.000000 0.000000
vn 1.000000 0.000000 0.000000
vn 1.000000 0.000000 0.000000
s 1
g polySurface63
usemtl initialShadingGroup
f 1/1/1 2/2/2 3/3/3
f 3/3/3 2/2/2 4/4/4
s 2
f 5/5/5 6/6/6 7/7/7
f 7/7/7 6/6/6 8/8/8
s 3
f 9/9/9 10/10/10 11/11/11
f 11/11/11 10/10/10 12/12/12
s 4
f 13/13/13 14/14/14 15/15/15
f 15/15/15 14/14/14 16/16/16
s 5
f 17/17/17 18/18/18 19/19/19
f 19/19/19 18/18/18 20/20/20
s 6
f 21/21/21 22/22/22 23/23/23
f 23/23/23 22/22/22 24/24/24
s 7
f 25/25/25 26/26/26 27/27/27
f 27/27/27 26/26/26 28/28/28
s 8
f 29/29/29 30/30/30 31/31/31
f 31/31/31 30/30/30 32/32/32
s 9
f 33/33/33 34/34/34 35/35/35
f 35/35/35 34/34/34 36/36/36
s 10
f 37/37/37 38/38/38 39/39/39
f 39/39/39 38/38/38 40/40/40
s 11
f 41/41/41 42/42/42 43/43/43
f 43/43/43 42/42/42 44/44/44
s 12
f 45/45/45 46/46/46 47/47/47
f 47/47/47 46/46/46 48/48/48
s 13
f 49/49/49 50/50/50 51/51/51
f 51/51/51 50/50/50 52/52/52
s 14
f 53/53/53 54/54/54 55/55/55
f 55/55/55 54/54/54 56/56/56
s 15
f 57/57/57 58/58/58 59/59/59
f 59/59/59 58/58/58 60/60/60
s 16
f 61/61/61 62/62/62 63/63/63
f 63/63/63 62/62/62 64/64/64
s 17
f 65/65/65 66/66/66 67/67/67
f 67/67/67 66/66/66 68/68/68
s 18
f 69/69/69 70/70/70 71/71/71
f 71/71/71 70/70/70 72/72/72
s 19
f 73/73/73 74/74/74 75/75/75
f 75/75/75 74/74/74 76/76/76
s 20
f 77/77/77 78/78/78 79/79/79
f 79/79/79 78/78/78 80/80/80
s 21
f 81/81/81 82/82/82 83/83/83
f 83/83/83 82/82/82 84/84/84
s 22
f 85/85/85 86/86/86 87/87/87
f 87/87/87 86/86/86 88/88/88
s 23
f 89/89/89 90/90/90 91/91/91
f 91/91/91 90/90/90 92/92/92
s 24
f 93/93/93 94/94/94 95/95/95
f 95/95/95 94/94/94 96/96/96
s 25
f 97/97/97 98/98/98 99/99/99
f 99/99/99 98/98/98 100/100/100
s 26
f 101/101/101 102/102/102 103/103/103
f 103/103/103 102/102/102 104/104/104
s 27
f 105/105/105 106/106/106 107/107/107
f 107/107/107 106/106/106 108/108/108
s 28
f 109/109/109 110/110/110 111/111/111
f 111/111/111 110/110/110 112/112/112
s 29
f 113/113/113 114/114/114 115/115/115
f 115/115/115 114/114/114 116/116/116
s 30
f 117/117/117 118/118/118 119/119/119
f 119/119/119 118/118/118 120/120/120
s 31
f 121/121/121 122/122/122 123/123/123
f 123/123/123 122/122/122 124/124/124
s 32
f 125/125/125 126/126/126 127/127/127
f 127/127/127 126/126/126 128/128/128
s 33
f 129/129/129 130/130/130 131/131/131
f 131/131/131 130/130/130 132/132/132
s 34
f 133/133/133 134/134/134 135/135/135
f 135/135/135 134/134/134 136/136/136
s 35
f 137/137/137 138/138/138 139/139/139
f 139/139/139 138/138/138 140/140/140
s 36
f 141/141/141 142/142/142 143/143/143
f 143/143/143 142/142/142 144/144/144
s 37
f 145/145/145 146/146/146 147/147/147
f 147/147/147 146/146/146 148/148/148
s 38
f 149/149/149 150/150/150 151/151/151
f 151/151/151 150/150/150 152/152/152
s 39
f 153/153/153 154/154/154 155/155/155
f 155/155/155 154/154/154 156/156/156
s 40
f 157/157/157 158/158/158 159/159/159
f 159/159/159 158/158/158 160/160/160
s 41
f 161/161/161 162/162/162 163/163/163
f 163/163/163 162/162/162 164/164/164
s 42
f 165/165/165 166/166/166 167/167/167
f 167/167/167 166/166/166 168/168/168
s 43
f 169/169/169 170/170/170 171/171/171
f 171/171/171 170/170/170 172/172/172
s 44
f 173/173/173 174/174/174 175/175/175
f 175/175/175 174/174/174 176/176/176
s 45
f 177/177/177 178/178/178 179/179/179
f 179/179/179 178/178/178 180/180/180
s 46
f 181/181/181 182/182/182 183/183/183
f 183/183/183 182/182/182 184/184/184
s 47
f 185/185/185 186/186/186 187/187/187
f 187/187/187 186/186/186 188/188/188
s 48
f 189/189/189 190/190/190 191/191/191
f 191/191/191 190/190/190 192/192/192
s 49
f 193/193/193 194/194/194 195/195/195
f 195/195/195 194/194/194 196/196/196
s 50
f 197/197/197 198/198/198 199/199/199
f 199/199/199 198/198/198 200/200/200
s 51
f 201/201/201 202/202/202 203/203/203
f 203/203/203 202/202/202 204/204/204
s 52
f 205/205/205 206/206/206 207/207/207
f 207/207/207 206/206/206 208/208/208
s 53
f 209/209/209 210/210/210 211/211/211
f 211/211/211 210/210/210 212/212/212
s 54
f 213/213/213 214/214/214 215/215/215
f 215/215/215 214/214/214 216/216/216
s 55
f 217/217/217 218/218/218 219/219/219
f 219/219/219 218/218/218 220/220/220
s 56
f 221/221/221 222/222/222 223/223/223
f 223/223/223 222/222/222 224/224/224
s 57
f 225/225/225 226/226/226 227/227/227
f 227/227/227 226/226/226 228/228/228
s 58
f 229/229/229 230/230/230 231/231/231
f 231/231/231 230/230/230 232/232/232
s 59
f 233/233/233 234/234/234 235/235/235
f 235/235/235 234/234/234 236/236/236
s 60
f 237/237/237 238/238/238 239/239/239
f 239/239/239 238/238/238 240/240/240
