# This file uses centimeters as units for non-parametric coordinates.

mtllib bright_124_wall2.mtl
g default
v -159.120753 0.000000 11.486932
v -161.442964 0.000000 11.443764
v -161.442964 0.000000 80.101655
v -118.566179 0.000000 80.101655
v -118.566179 0.000000 76.564733
v -159.186295 0.000000 76.772785
v -159.120753 18.766624 11.486925
v -161.442964 18.766624 11.443757
v -161.442964 18.766624 80.101655
v -118.566179 18.766624 80.101655
v -118.566179 18.766624 76.564733
v -159.186295 18.766624 76.772778
vt 0.805785 0.000000
vt 0.839394 0.000000
vt 0.748485 1.000000
vt 0.000000 0.931956
vt 0.004683 0.880441
vt 0.713499 0.947934
vt 0.805785 0.000000
vt 0.839394 0.000000
vt 0.748485 1.000000
vt 0.000000 0.931956
vt 0.004683 0.880441
vt 0.713499 0.947934
vt 0.805785 0.000000
vt 0.839394 0.000000
vt 0.748485 1.000000
vt 0.000000 0.931956
vt 0.004683 0.880441
vt 0.713499 0.947934
vn 0.000000 1.000000 0.000000
vn 0.000000 1.000000 -0.000000
vn 0.000000 1.000000 0.000000
vn 0.000000 1.000000 -0.000000
vn 0.000000 1.000000 -0.000000
vn 0.000000 1.000000 0.000000
vn 0.000000 -1.000000 0.000000
vn 0.000000 -1.000000 0.000000
vn 0.000000 -1.000000 0.000000
vn 0.000000 -1.000000 0.000000
vn 0.000000 -1.000000 0.000000
vn 0.000000 -1.000000 0.000000
vn 0.018587 -0.000000 -0.999827
vn 0.018586 -0.000000 -0.999827
vn 0.018586 -0.000000 -0.999827
vn 0.018586 -0.000000 -0.999827
vn -1.000000 -0.000000 0.000000
vn -1.000000 -0.000000 0.000000
vn -1.000000 -0.000000 0.000000
vn -1.000000 0.000000 0.000000
vn 0.000000 0.000000 1.000000
vn 0.000000 0.000000 1.000000
vn 0.000000 0.000000 1.000000
vn 0.000000 0.000000 1.000000
vn 1.000000 0.000000 0.000000
vn 1.000000 0.000000 0.000000
vn 1.000000 0.000000 0.000000
vn 1.000000 0.000000 0.000000
vn -0.005122 0.000000 -0.999987
vn -0.005122 -0.000000 -0.999987
vn -0.005122 -0.000000 -0.999987
vn -0.005122 -0.000000 -0.999987
vn 0.999999 0.000001 0.001004
vn 0.999999 -0.000000 0.001004
vn 0.999999 -0.000000 0.001004
vn 0.999999 -0.000001 0.001004
s 1
g polySurface5
usemtl initialShadingGroup
f 8/14/1 9/15/2 7/13/3
f 7/13/3 9/15/2 12/18/4
f 9/15/2 10/16/5 12/18/4
f 10/16/5 11/17/6 12/18/4
s 2
f 5/11/7 4/10/8 6/12/9
f 4/10/8 3/9/10 6/12/9
f 3/9/10 2/8/11 6/12/9
f 1/7/12 6/12/9 2/8/11
s 3
f 1/1/13 2/2/14 7/13/15
f 7/13/15 2/2/14 8/14/16
s 4
f 2/2/17 3/3/18 8/14/19
f 8/14/19 3/3/18 9/15/20
s 5
f 3/3/21 4/4/22 9/15/23
f 9/15/23 4/4/22 10/16/24
s 6
f 4/4/25 5/5/26 10/16/27
f 10/16/27 5/5/26 11/17/28
s 7
f 5/5/29 6/6/30 11/17/31
f 11/17/31 6/6/30 12/18/32
s 8
f 6/6/33 1/1/34 12/18/35
f 12/18/35 1/1/34 7/13/36
g default
v -159.120753 0.000000 11.486932
v -161.442964 0.000000 11.443764
v -161.442964 0.000000 80.101655
v -118.566179 0.000000 80.101655
v -118.566179 0.000000 76.564733
v -159.186295 0.000000 76.772785
v -159.120753 18.766624 11.486925
v -161.442964 18.766624 11.443757
v -161.442964 18.766624 80.101655
v -118.566179 18.766624 80.101655
v -118.566179 18.766624 76.564733
v -159.186295 18.766624 76.772778
vt 0.805785 0.000000
vt 0.839394 0.000000
vt 0.748485 1.000000
vt 0.000000 0.931956
vt 0.004683 0.880441
vt 0.713499 0.947934
vt 0.805785 0.000000
vt 0.839394 0.000000
vt 0.748485 1.000000
vt 0.000000 0.931956
vt 0.004683 0.880441
vt 0.713499 0.947934
vt 0.805785 0.000000
vt 0.839394 0.000000
vt 0.748485 1.000000
vt 0.000000 0.931956
vt 0.004683 0.880441
vt 0.713499 0.947934
vn 0.000000 1.000000 0.000000
vn 0.000000 1.000000 -0.000000
vn 0.000000 1.000000 0.000000
vn 0.000000 1.000000 -0.000000
vn 0.000000 1.000000 -0.000000
vn 0.000000 1.000000 0.000000
vn 0.000000 -1.000000 0.000000
vn 0.000000 -1.000000 0.000000
vn 0.000000 -1.000000 0.000000
vn 0.000000 -1.000000 0.000000
vn 0.000000 -1.000000 0.000000
vn 0.000000 -1.000000 0.000000
vn 0.018587 -0.000000 -0.999827
vn 0.018586 -0.000000 -0.999827
vn 0.018586 -0.000000 -0.999827
vn 0.018586 -0.000000 -0.999827
vn -1.000000 -0.000000 0.000000
vn -1.000000 -0.000000 0.000000
vn -1.000000 -0.000000 0.000000
vn -1.000000 0.000000 0.000000
vn 0.000000 0.000000 1.000000
vn 0.000000 0.000000 1.000000
vn 0.000000 0.000000 1.000000
vn 0.000000 0.000000 1.000000
vn 1.000000 0.000000 0.000000
vn 1.000000 0.000000 0.000000
vn 1.000000 0.000000 0.000000
vn 1.000000 0.000000 0.000000
vn -0.005122 0.000000 -0.999987
vn -0.005122 -0.000000 -0.999987
vn -0.005122 -0.000000 -0.999987
vn -0.005122 -0.000000 -0.999987
vn 0.999999 0.000001 0.001004
vn 0.999999 -0.000000 0.001004
vn 0.999999 -0.000000 0.001004
vn 0.999999 -0.000001 0.001004
s 1
g polySurface5
f 20/32/37 21/33/38 19/31/39
f 19/31/39 21/33/38 24/36/40
f 21/33/38 22/34/41 24/36/40
f 22/34/41 23/35/42 24/36/40
s 2
f 17/29/43 16/28/44 18/30/45
f 16/28/44 15/27/46 18/30/45
f 15/27/46 14/26/47 18/30/45
f 13/25/48 18/30/45 14/26/47
s 3
f 13/19/49 14/20/50 19/31/51
f 19/31/51 14/20/50 20/32/52
s 4
f 14/20/53 15/21/54 20/32/55
f 20/32/55 15/21/54 21/33/56
s 5
f 15/21/57 16/22/58 21/33/59
f 21/33/59 16/22/58 22/34/60
s 6
f 16/22/61 17/23/62 22/34/63
f 22/34/63 17/23/62 23/35/64
s 7
f 17/23/65 18/24/66 23/35/67
f 23/35/67 18/24/66 24/36/68
s 8
f 18/24/69 13/19/70 24/36/71
f 24/36/71 13/19/70 19/31/72
