# This file uses centimeters as units for non-parametric coordinates.

mtllib bright_stair1b_obst.mtl
g default
v 83.855927 0.000000 84.333824
v 79.960739 0.000000 84.339546
v 83.855927 1.097073 84.333824
v 79.960739 1.097073 84.339546
v 83.870422 1.097073 94.201637
v 79.975250 1.097073 94.207359
v 83.870422 0.000000 94.201637
v 79.975250 0.000000 94.207359
v 87.380310 0.000000 84.328644
v 83.485123 0.000000 84.334373
v 87.380310 3.241510 84.328644
v 83.485123 3.241510 84.334373
v 87.394821 3.241510 94.196457
v 83.499634 3.241510 94.202187
v 87.394821 0.000000 94.196457
v 83.499634 0.000000 94.202187
v 91.073502 0.000000 84.323219
v 87.178329 0.000000 84.328941
v 91.073502 5.961096 84.323219
v 87.178329 5.961096 84.328941
v 91.088013 5.961096 94.191032
v 87.192825 5.961096 94.196754
v 91.088013 0.000000 94.191032
v 87.192825 0.000000 94.196754
v 94.766693 0.000000 84.317787
v 90.871506 0.000000 84.323517
v 94.766693 8.531522 84.317787
v 90.871506 8.531522 84.323517
v 94.781204 8.531522 94.185600
v 90.886017 8.531522 94.191330
v 94.781204 0.000000 94.185600
v 90.886017 0.000000 94.191330
v 98.578018 0.000000 84.312187
v 94.682846 0.000000 84.317917
v 98.578018 11.101705 84.312187
v 94.682846 11.101705 84.317917
v 98.592529 11.101705 94.180000
v 94.697342 11.101705 94.185730
v 98.592529 0.000000 94.180000
v 94.697342 0.000000 94.185730
v 102.153091 0.000000 84.306938
v 98.257904 0.000000 84.312660
v 102.153091 13.505418 84.306938
v 98.257904 13.505418 84.312660
v 102.167587 13.505418 94.174751
v 98.272400 13.505418 94.180473
v 102.167587 0.000000 94.174751
v 98.272400 0.000000 94.180473
v 105.849533 0.000000 84.301506
v 101.954361 0.000000 84.307228
v 105.849533 13.102926 84.301506
v 101.954361 13.102926 84.307228
v 105.864044 13.102926 94.169319
v 101.968857 13.102926 94.175041
v 105.864044 0.000000 94.169319
v 101.968857 0.000000 94.175041
v 79.592239 0.000000 108.520538
v 121.388077 0.000000 108.520538
v 79.592239 21.328491 108.520538
v 121.388077 21.278891 108.520538
v 79.592239 21.328491 103.803772
v 121.388077 21.278891 103.803772
v 79.592239 0.000000 103.803772
v 121.388077 0.000000 103.803772
vt 0.375000 0.000000
vt 0.625000 0.000000
vt 0.375000 0.250000
vt 0.625000 0.250000
vt 0.375000 0.500000
vt 0.625000 0.500000
vt 0.375000 0.750000
vt 0.625000 0.750000
vt 0.375000 1.000000
vt 0.625000 1.000000
vt 0.875000 0.000000
vt 0.875000 0.250000
vt 0.125000 0.000000
vt 0.125000 0.250000
vt 0.375000 0.000000
vt 0.625000 0.000000
vt 0.375000 0.250000
vt 0.625000 0.250000
vt 0.375000 0.500000
vt 0.625000 0.500000
vt 0.375000 0.750000
vt 0.625000 0.750000
vt 0.375000 1.000000
vt 0.625000 1.000000
vt 0.875000 0.000000
vt 0.875000 0.250000
vt 0.125000 0.000000
vt 0.125000 0.250000
vt 0.375000 0.000000
vt 0.625000 0.000000
vt 0.375000 0.250000
vt 0.625000 0.250000
vt 0.375000 0.500000
vt 0.625000 0.500000
vt 0.375000 0.750000
vt 0.625000 0.750000
vt 0.375000 1.000000
vt 0.625000 1.000000
vt 0.875000 0.000000
vt 0.875000 0.250000
vt 0.125000 0.000000
vt 0.125000 0.250000
vt 0.375000 0.000000
vt 0.625000 0.000000
vt 0.375000 0.250000
vt 0.625000 0.250000
vt 0.375000 0.500000
vt 0.625000 0.500000
vt 0.375000 0.750000
vt 0.625000 0.750000
vt 0.375000 1.000000
vt 0.625000 1.000000
vt 0.875000 0.000000
vt 0.875000 0.250000
vt 0.125000 0.000000
vt 0.125000 0.250000
vt 0.375000 0.000000
vt 0.625000 0.000000
vt 0.375000 0.250000
vt 0.625000 0.250000
vt 0.375000 0.500000
vt 0.625000 0.500000
vt 0.375000 0.750000
vt 0.625000 0.750000
vt 0.375000 1.000000
vt 0.625000 1.000000
vt 0.875000 0.000000
vt 0.875000 0.250000
vt 0.125000 0.000000
vt 0.125000 0.250000
vt 0.375000 0.000000
vt 0.625000 0.000000
vt 0.375000 0.250000
vt 0.625000 0.250000
vt 0.375000 0.500000
vt 0.625000 0.500000
vt 0.375000 0.750000
vt 0.625000 0.750000
vt 0.375000 1.000000
vt 0.625000 1.000000
vt 0.875000 0.000000
vt 0.875000 0.250000
vt 0.125000 0.000000
vt 0.125000 0.250000
vt 0.375000 0.000000
vt 0.625000 0.000000
vt 0.375000 0.250000
vt 0.625000 0.250000
vt 0.375000 0.500000
vt 0.625000 0.500000
vt 0.375000 0.750000
vt 0.625000 0.750000
vt 0.375000 1.000000
vt 0.625000 1.000000
vt 0.875000 0.000000
vt 0.875000 0.250000
vt 0.125000 0.000000
vt 0.125000 0.250000
vt 0.375000 0.000000
vt 0.625000 0.000000
vt 0.375000 0.250000
vt 0.625000 0.250000
vt 0.375000 0.500000
vt 0.625000 0.500000
vt 0.375000 0.750000
vt 0.625000 0.750000
vt 0.375000 1.000000
vt 0.625000 1.000000
vt 0.875000 0.000000
vt 0.875000 0.250000
vt 0.125000 0.000000
vt 0.125000 0.250000
vn -0.001468 0.000000 -0.999999
vn -0.001469 0.000000 -0.999999
vn -0.001469 0.000000 -0.999999
vn -0.001469 0.000000 -0.999999
vn -0.001469 0.000000 -0.999999
vn -0.001471 0.000000 -0.999999
vn 0.000000 1.000000 0.000000
vn 0.000000 1.000000 0.000000
vn 0.000000 1.000000 0.000000
vn 0.000000 1.000000 0.000000
vn 0.000000 1.000000 0.000000
vn 0.000000 1.000000 0.000000
vn 0.001471 0.000000 0.999999
vn 0.001469 0.000000 0.999999
vn 0.001469 0.000000 0.999999
vn 0.001469 0.000000 0.999999
vn 0.001469 0.000000 0.999999
vn 0.001468 0.000000 0.999999
vn 0.000000 -1.000000 0.000000
vn 0.000000 -1.000000 0.000000
vn 0.000000 -1.000000 0.000000
vn 0.000000 -1.000000 0.000000
vn 0.000000 -1.000000 0.000000
vn 0.000000 -1.000000 0.000000
vn -0.999999 0.000000 0.001471
vn -0.999999 0.000000 0.001471
vn -0.999999 0.000000 0.001471
vn -0.999999 0.000000 0.001471
vn -0.999999 0.000000 0.001471
vn -0.999999 0.000000 0.001471
vn 0.999999 0.000000 -0.001469
vn 0.999999 0.000000 -0.001469
vn 0.999999 0.000000 -0.001469
vn 0.999999 0.000000 -0.001469
vn 0.999999 0.000000 -0.001469
vn 0.999999 0.000000 -0.001469
vn -0.001470 0.000000 -0.999999
vn -0.001470 0.000000 -0.999999
vn -0.001470 0.000000 -0.999999
vn -0.001470 0.000000 -0.999999
vn -0.001470 0.000000 -0.999999
vn -0.001470 0.000000 -0.999999
vn 0.000000 1.000000 0.000000
vn 0.000000 1.000000 0.000000
vn 0.000000 1.000000 0.000000
vn 0.000000 1.000000 0.000000
vn 0.000000 1.000000 0.000000
vn 0.000000 1.000000 0.000000
vn 0.001473 0.000000 0.999999
vn 0.001471 0.000000 0.999999
vn 0.001471 0.000000 0.999999
vn 0.001471 0.000000 0.999999
vn 0.001471 0.000000 0.999999
vn 0.001470 0.000000 0.999999
vn 0.000000 -1.000000 0.000000
vn 0.000000 -1.000000 0.000000
vn 0.000000 -1.000000 0.000000
vn 0.000000 -1.000000 0.000000
vn 0.000000 -1.000000 0.000000
vn 0.000000 -1.000000 0.000000
vn -0.999999 0.000000 0.001471
vn -0.999999 0.000000 0.001471
vn -0.999999 0.000000 0.001471
vn -0.999999 0.000000 0.001471
vn -0.999999 0.000000 0.001471
vn -0.999999 0.000000 0.001471
vn 0.999999 0.000000 -0.001471
vn 0.999999 0.000000 -0.001471
vn 0.999999 0.000000 -0.001471
vn 0.999999 0.000000 -0.001471
vn 0.999999 0.000000 -0.001471
vn 0.999999 0.000000 -0.001471
vn -0.001467 0.000000 -0.999999
vn -0.001470 0.000000 -0.999999
vn -0.001470 0.000000 -0.999999
vn -0.001470 0.000000 -0.999999
vn -0.001470 0.000000 -0.999999
vn -0.001472 0.000000 -0.999999
vn 0.000000 1.000000 0.000000
vn 0.000000 1.000000 0.000000
vn 0.000000 1.000000 0.000000
vn 0.000000 1.000000 0.000000
vn 0.000000 1.000000 0.000000
vn 0.000000 1.000000 0.000000
vn 0.001467 0.000000 0.999999
vn 0.001470 0.000000 0.999999
vn 0.001470 0.000000 0.999999
vn 0.001470 0.000000 0.999999
vn 0.001470 0.000000 0.999999
vn 0.001472 0.000000 0.999999
vn 0.000000 -1.000000 0.000000
vn 0.000000 -1.000000 0.000000
vn 0.000000 -1.000000 0.000000
vn 0.000000 -1.000000 0.000000
vn 0.000000 -1.000000 0.000000
vn 0.000000 -1.000000 0.000000
vn -0.999999 0.000000 0.001469
vn -0.999999 0.000000 0.001469
vn -0.999999 0.000000 0.001469
vn -0.999999 0.000000 0.001469
vn -0.999999 0.000000 0.001469
vn -0.999999 0.000000 0.001469
vn 0.999999 0.000000 -0.001471
vn 0.999999 0.000000 -0.001471
vn 0.999999 0.000000 -0.001471
vn 0.999999 0.000000 -0.001471
vn 0.999999 0.000000 -0.001471
vn 0.999999 0.000000 -0.001471
vn -0.001469 0.000000 -0.999999
vn -0.001471 0.000000 -0.999999
vn -0.001471 0.000000 -0.999999
vn -0.001471 0.000000 -0.999999
vn -0.001471 0.000000 -0.999999
vn -0.001473 0.000000 -0.999999
vn 0.000000 1.000000 0.000000
vn 0.000000 1.000000 0.000000
vn 0.000000 1.000000 0.000000
vn 0.000000 1.000000 0.000000
vn 0.000000 1.000000 0.000000
vn 0.000000 1.000000 0.000000
vn 0.001466 0.000000 0.999999
vn 0.001469 0.000000 0.999999
vn 0.001469 0.000000 0.999999
vn 0.001469 0.000000 0.999999
vn 0.001469 0.000000 0.999999
vn 0.001473 0.000000 0.999999
vn 0.000000 -1.000000 0.000000
vn 0.000000 -1.000000 0.000000
vn 0.000000 -1.000000 0.000000
vn 0.000000 -1.000000 0.000000
vn 0.000000 -1.000000 0.000000
vn 0.000000 -1.000000 0.000000
vn -0.999999 0.000000 0.001471
vn -0.999999 0.000000 0.001471
vn -0.999999 0.000000 0.001471
vn -0.999999 0.000000 0.001471
vn -0.999999 0.000000 0.001471
vn -0.999999 0.000000 0.001471
vn 0.999999 0.000000 -0.001471
vn 0.999999 0.000000 -0.001471
vn 0.999999 0.000000 -0.001471
vn 0.999999 0.000000 -0.001471
vn 0.999999 0.000000 -0.001471
vn 0.999999 0.000000 -0.001471
vn -0.001471 0.000000 -0.999999
vn -0.001471 0.000000 -0.999999
vn -0.001471 0.000000 -0.999999
vn -0.001471 0.000000 -0.999999
vn -0.001471 0.000000 -0.999999
vn -0.001471 0.000000 -0.999999
vn 0.000000 1.000000 0.000000
vn 0.000000 1.000000 0.000000
vn 0.000000 1.000000 0.000000
vn 0.000000 1.000000 0.000000
vn 0.000000 1.000000 0.000000
vn 0.000000 1.000000 0.000000
vn 0.001471 0.000000 0.999999
vn 0.001471 0.000000 0.999999
vn 0.001471 0.000000 0.999999
vn 0.001471 0.000000 0.999999
vn 0.001471 0.000000 0.999999
vn 0.001471 0.000000 0.999999
vn 0.000000 -1.000000 0.000000
vn 0.000000 -1.000000 0.000000
vn 0.000000 -1.000000 0.000000
vn 0.000000 -1.000000 0.000000
vn 0.000000 -1.000000 0.000000
vn 0.000000 -1.000000 0.000000
vn -0.999999 0.000000 0.001469
vn -0.999999 0.000000 0.001469
vn -0.999999 0.000000 0.001469
vn -0.999999 0.000000 0.001469
vn -0.999999 0.000000 0.001469
vn -0.999999 0.000000 0.001469
vn 0.999999 0.000000 -0.001471
vn 0.999999 0.000000 -0.001471
vn 0.999999 0.000000 -0.001471
vn 0.999999 0.000000 -0.001471
vn 0.999999 0.000000 -0.001471
vn 0.999999 0.000000 -0.001471
vn -0.001469 0.000000 -0.999999
vn -0.001469 0.000000 -0.999999
vn -0.001469 0.000000 -0.999999
vn -0.001469 0.000000 -0.999999
vn -0.001469 0.000000 -0.999999
vn -0.001469 0.000000 -0.999999
vn 0.000000 1.000000 0.000000
vn 0.000000 1.000000 0.000000
vn 0.000000 1.000000 0.000000
vn 0.000000 1.000000 0.000000
vn 0.000000 1.000000 0.000000
vn 0.000000 1.000000 0.000000
vn 0.001469 0.000000 0.999999
vn 0.001469 0.000000 0.999999
vn 0.001469 0.000000 0.999999
vn 0.001469 0.000000 0.999999
vn 0.001469 0.000000 0.999999
vn 0.001469 0.000000 0.999999
vn 0.000000 -1.000000 0.000000
vn 0.000000 -1.000000 0.000000
vn 0.000000 -1.000000 0.000000
vn 0.000000 -1.000000 0.000000
vn 0.000000 -1.000000 0.000000
vn 0.000000 -1.000000 0.000000
vn -0.999999 0.000000 0.001469
vn -0.999999 0.000000 0.001469
vn -0.999999 0.000000 0.001469
vn -0.999999 0.000000 0.001469
vn -0.999999 0.000000 0.001469
vn -0.999999 0.000000 0.001469
vn 0.999999 0.000000 -0.001469
vn 0.999999 0.000000 -0.001469
vn 0.999999 0.000000 -0.001469
vn 0.999999 0.000000 -0.001469
vn 0.999999 0.000000 -0.001469
vn 0.999999 0.000000 -0.001469
vn -0.001469 0.000000 -0.999999
vn -0.001469 0.000000 -0.999999
vn -0.001469 0.000000 -0.999999
vn -0.001469 0.000000 -0.999999
vn -0.001469 0.000000 -0.999999
vn -0.001469 0.000000 -0.999999
vn 0.000000 1.000000 0.000000
vn 0.000000 1.000000 0.000000
vn 0.000000 1.000000 0.000000
vn 0.000000 1.000000 0.000000
vn 0.000000 1.000000 0.000000
vn 0.000000 1.000000 0.000000
vn 0.001469 0.000000 0.999999
vn 0.001469 0.000000 0.999999
vn 0.001469 0.000000 0.999999
vn 0.001469 0.000000 0.999999
vn 0.001469 0.000000 0.999999
vn 0.001469 0.000000 0.999999
vn 0.000000 -1.000000 0.000000
vn 0.000000 -1.000000 0.000000
vn 0.000000 -1.000000 0.000000
vn 0.000000 -1.000000 0.000000
vn 0.000000 -1.000000 0.000000
vn 0.000000 -1.000000 0.000000
vn -0.999999 0.000000 0.001469
vn -0.999999 0.000000 0.001469
vn -0.999999 0.000000 0.001469
vn -0.999999 0.000000 0.001469
vn -0.999999 0.000000 0.001469
vn -0.999999 0.000000 0.001469
vn 0.999999 0.000000 -0.001471
vn 0.999999 0.000000 -0.001471
vn 0.999999 0.000000 -0.001471
vn 0.999999 0.000000 -0.001471
vn 0.999999 0.000000 -0.001471
vn 0.999999 0.000000 -0.001471
vn 0.000000 0.000000 1.000000
vn 0.000000 0.000000 1.000000
vn 0.000000 0.000000 1.000000
vn 0.000000 0.000000 1.000000
vn 0.000000 0.000000 1.000000
vn 0.000000 0.000000 1.000000
vn 0.001187 0.999999 0.000000
vn 0.001187 0.999999 0.000000
vn 0.001187 0.999999 0.000000
vn 0.001187 0.999999 0.000000
vn 0.001187 0.999999 0.000000
vn 0.001187 0.999999 0.000000
vn 0.000000 0.000000 -1.000000
vn 0.000000 0.000000 -1.000000
vn 0.000000 0.000000 -1.000000
vn 0.000000 0.000000 -1.000000
vn 0.000000 0.000000 -1.000000
vn 0.000000 0.000000 -1.000000
vn 0.000000 -1.000000 0.000000
vn 0.000000 -1.000000 0.000000
vn 0.000000 -1.000000 0.000000
vn 0.000000 -1.000000 0.000000
vn 0.000000 -1.000000 0.000000
vn 0.000000 -1.000000 0.000000
vn 1.000000 0.000000 0.000000
vn 1.000000 0.000000 0.000000
vn 1.000000 0.000000 0.000000
vn 1.000000 0.000000 0.000000
vn 1.000000 0.000000 0.000000
vn 1.000000 0.000000 0.000000
vn -1.000000 0.000000 0.000000
vn -1.000000 0.000000 0.000000
vn -1.000000 0.000000 0.000000
vn -1.000000 0.000000 0.000000
vn -1.000000 0.000000 0.000000
vn -1.000000 0.000000 0.000000
s off
g polySurface116
usemtl bright_111_2:initialShadingGroup
f 1/1/1 2/2/2 3/3/3
f 3/3/4 2/2/5 4/4/6
f 3/3/7 4/4/8 5/5/9
f 5/5/10 4/4/11 6/6/12
f 5/5/13 6/6/14 7/7/15
f 7/7/16 6/6/17 8/8/18
f 7/7/19 8/8/20 1/9/21
f 1/9/22 8/8/23 2/10/24
f 2/2/25 8/11/26 4/4/27
f 4/4/28 8/11/29 6/12/30
f 7/13/31 1/1/32 5/14/33
f 5/14/34 1/1/35 3/3/36
f 9/15/37 10/16/38 11/17/39
f 11/17/40 10/16/41 12/18/42
f 11/17/43 12/18/44 13/19/45
f 13/19/46 12/18/47 14/20/48
f 13/19/49 14/20/50 15/21/51
f 15/21/52 14/20/53 16/22/54
f 15/21/55 16/22/56 9/23/57
f 9/23/58 16/22/59 10/24/60
f 10/16/61 16/25/62 12/18/63
f 12/18/64 16/25/65 14/26/66
f 15/27/67 9/15/68 13/28/69
f 13/28/70 9/15/71 11/17/72
f 17/29/73 18/30/74 19/31/75
f 19/31/76 18/30/77 20/32/78
f 19/31/79 20/32/80 21/33/81
f 21/33/82 20/32/83 22/34/84
f 21/33/85 22/34/86 23/35/87
f 23/35/88 22/34/89 24/36/90
f 23/35/91 24/36/92 17/37/93
f 17/37/94 24/36/95 18/38/96
f 18/30/97 24/39/98 20/32/99
f 20/32/100 24/39/101 22/40/102
f 23/41/103 17/29/104 21/42/105
f 21/42/106 17/29/107 19/31/108
f 25/43/109 26/44/110 27/45/111
f 27/45/112 26/44/113 28/46/114
f 27/45/115 28/46/116 29/47/117
f 29/47/118 28/46/119 30/48/120
f 29/47/121 30/48/122 31/49/123
f 31/49/124 30/48/125 32/50/126
f 31/49/127 32/50/128 25/51/129
f 25/51/130 32/50/131 26/52/132
f 26/44/133 32/53/134 28/46/135
f 28/46/136 32/53/137 30/54/138
f 31/55/139 25/43/140 29/56/141
f 29/56/142 25/43/143 27/45/144
f 33/57/145 34/58/146 35/59/147
f 35/59/148 34/58/149 36/60/150
f 35/59/151 36/60/152 37/61/153
f 37/61/154 36/60/155 38/62/156
f 37/61/157 38/62/158 39/63/159
f 39/63/160 38/62/161 40/64/162
f 39/63/163 40/64/164 33/65/165
f 33/65/166 40/64/167 34/66/168
f 34/58/169 40/67/170 36/60/171
f 36/60/172 40/67/173 38/68/174
f 39/69/175 33/57/176 37/70/177
f 37/70/178 33/57/179 35/59/180
f 41/71/181 42/72/182 43/73/183
f 43/73/184 42/72/185 44/74/186
f 43/73/187 44/74/188 45/75/189
f 45/75/190 44/74/191 46/76/192
f 45/75/193 46/76/194 47/77/195
f 47/77/196 46/76/197 48/78/198
f 47/77/199 48/78/200 41/79/201
f 41/79/202 48/78/203 42/80/204
f 42/72/205 48/81/206 44/74/207
f 44/74/208 48/81/209 46/82/210
f 47/83/211 41/71/212 45/84/213
f 45/84/214 41/71/215 43/73/216
f 49/85/217 50/86/218 51/87/219
f 51/87/220 50/86/221 52/88/222
f 51/87/223 52/88/224 53/89/225
f 53/89/226 52/88/227 54/90/228
f 53/89/229 54/90/230 55/91/231
f 55/91/232 54/90/233 56/92/234
f 55/91/235 56/92/236 49/93/237
f 49/93/238 56/92/239 50/94/240
f 50/86/241 56/95/242 52/88/243
f 52/88/244 56/95/245 54/96/246
f 55/97/247 49/85/248 53/98/249
f 53/98/250 49/85/251 51/87/252
f 57/99/253 58/100/254 59/101/255
f 59/101/256 58/100/257 60/102/258
f 59/101/259 60/102/260 61/103/261
f 61/103/262 60/102/263 62/104/264
f 61/103/265 62/104/266 63/105/267
f 63/105/268 62/104/269 64/106/270
f 63/105/271 64/106/272 57/107/273
f 57/107/274 64/106/275 58/108/276
f 58/100/277 64/109/278 60/102/279
f 60/102/280 64/109/281 62/110/282
f 63/111/283 57/99/284 61/112/285
f 61/112/286 57/99/287 59/101/288
