# This file uses centimeters as units for non-parametric coordinates.

mtllib bright_vending.mtl
g default
v -118.498103 0.000000 76.433567
v -118.498103 0.000000 102.563267
v -82.640636 0.000000 102.563267
v -82.497205 0.000000 99.640866
v -116.059795 0.000000 99.812773
v -116.203220 0.000000 78.496439
v -92.967581 0.000000 78.668346
v -92.967586 0.000000 83.825526
v -90.816134 0.000000 83.825526
v -90.959571 0.000000 76.433574
v -118.498103 19.302815 76.433567
v -118.498103 19.302815 102.563267
v -82.640642 19.302815 102.563267
v -82.497205 19.302815 99.640866
v -116.059795 19.302815 99.812773
v -116.203220 19.302815 78.496439
v -92.967586 19.302815 78.668346
v -92.967586 19.302815 83.825526
v -90.816140 19.302815 83.825526
v -90.959577 19.302815 76.433574
vt 0.000000 0.000000
vt 0.605578 0.000000
vt 0.605578 0.996016
vt 0.537849 1.000000
vt 0.541833 0.067729
vt 0.047809 0.063745
vt 0.051793 0.701195
vt 0.171315 0.709163
vt 0.171315 0.768924
vt 0.015936 0.752988
vt 0.000000 0.000000
vt 0.605578 0.000000
vt 0.605578 0.996016
vt 0.537849 1.000000
vt 0.541833 0.067729
vt 0.047809 0.063745
vt 0.051793 0.701195
vt 0.171315 0.709163
vt 0.171315 0.768924
vt 0.015936 0.752988
vt 0.000000 0.000000
vt 0.605578 0.000000
vt 0.605578 0.996016
vt 0.537849 1.000000
vt 0.541833 0.067729
vt 0.047809 0.063745
vt 0.051793 0.701195
vt 0.171315 0.709163
vt 0.171315 0.768924
vt 0.015936 0.752988
vn 0.000000 1.000000 0.000001
vn 0.000000 1.000000 0.000000
vn 0.000000 1.000000 0.000000
vn 0.000000 1.000000 0.000000
vn 0.000000 1.000000 0.000000
vn 0.000000 1.000000 0.000000
vn 0.000000 1.000000 0.000000
vn 0.000000 1.000000 0.000000
vn 0.000000 1.000000 0.000000
vn 0.000000 1.000000 0.000000
vn 0.000000 -1.000000 0.000000
vn 0.000000 -1.000000 0.000000
vn 0.000000 -1.000000 0.000000
vn 0.000000 -1.000000 0.000000
vn 0.000000 -1.000000 0.000000
vn 0.000000 -1.000000 0.000000
vn 0.000000 -1.000000 0.000000
vn 0.000000 -1.000000 0.000000
vn 0.000000 -1.000000 0.000000
vn 0.000000 -1.000000 0.000000
vn -1.000000 0.000000 0.000000
vn -1.000000 0.000000 0.000000
vn -1.000000 0.000000 0.000000
vn -1.000000 0.000000 0.000000
vn 0.000000 0.000000 1.000000
vn 0.000000 0.000000 1.000000
vn 0.000000 0.000000 1.000000
vn 0.000000 0.000000 1.000000
vn 0.998798 0.000001 0.049021
vn 0.998798 0.000000 0.049022
vn 0.998798 0.000000 0.049022
vn 0.998798 0.000000 0.049023
vn -0.005122 0.000000 -0.999987
vn -0.005122 0.000000 -0.999987
vn -0.005122 0.000000 -0.999987
vn -0.005122 0.000000 -0.999987
vn 0.999977 0.000000 -0.006728
vn 0.999977 0.000000 -0.006728
vn 0.999977 0.000000 -0.006728
vn 0.999977 0.000000 -0.006728
vn -0.007398 0.000000 0.999973
vn -0.007398 0.000000 0.999973
vn -0.007398 0.000000 0.999973
vn -0.007399 0.000000 0.999973
vn -1.000000 0.000000 -0.000001
vn -1.000000 0.000000 -0.000001
vn -1.000000 0.000000 -0.000001
vn -1.000000 0.000000 0.000000
vn 0.000000 0.000000 1.000000
vn 0.000000 0.000000 1.000000
vn 0.000000 0.000000 1.000000
vn 0.000000 0.000000 1.000000
vn 0.999812 0.000000 -0.019401
vn 0.999812 0.000000 -0.019401
vn 0.999812 0.000000 -0.019401
vn 0.999812 0.000001 -0.019401
vn 0.000001 0.000000 -1.000000
vn 0.000000 0.000000 -1.000000
vn 0.000000 0.000000 -1.000000
vn 0.000000 0.000000 -1.000000
s 1
g polySurface7
usemtl initialShadingGroup
f 14/24/1 15/25/2 13/23/3
f 13/23/3 15/25/2 12/22/4
f 12/22/4 15/25/2 11/21/5
f 15/25/2 16/26/6 11/21/5
f 11/21/5 16/26/6 20/30/7
f 16/26/6 17/27/8 20/30/7
f 20/30/7 17/27/8 19/29/9
f 17/27/8 18/28/10 19/29/9
s 2
f 4/14/11 3/13/12 5/15/13
f 3/13/12 2/12/14 5/15/13
f 2/12/14 1/11/15 5/15/13
f 5/15/13 1/11/15 6/16/16
f 1/11/15 10/20/17 6/16/16
f 6/16/16 10/20/17 7/17/18
f 10/20/17 9/19/19 7/17/18
f 9/19/19 8/18/20 7/17/18
s 3
f 1/1/21 2/2/22 11/21/23
f 11/21/23 2/2/22 12/22/24
s 4
f 2/2/25 3/3/26 12/22/27
f 12/22/27 3/3/26 13/23/28
s 5
f 3/3/29 4/4/30 13/23/31
f 13/23/31 4/4/30 14/24/32
s 6
f 4/4/33 5/5/34 14/24/35
f 14/24/35 5/5/34 15/25/36
s 7
f 5/5/37 6/6/38 15/25/39
f 15/25/39 6/6/38 16/26/40
s 8
f 6/6/41 7/7/42 16/26/43
f 16/26/43 7/7/42 17/27/44
s 9
f 7/7/45 8/8/46 17/27/47
f 17/27/47 8/8/46 18/28/48
s 10
f 8/8/49 9/9/50 18/28/51
f 18/28/51 9/9/50 19/29/52
s 11
f 9/9/53 10/10/54 19/29/55
f 19/29/55 10/10/54 20/30/56
s 12
f 10/10/57 1/1/58 20/30/59
f 20/30/59 1/1/58 11/21/60
g default
v -118.498103 0.000000 76.433567
v -118.498103 0.000000 102.563267
v -82.640636 0.000000 102.563267
v -82.497205 0.000000 99.640866
v -116.059795 0.000000 99.812773
v -116.203220 0.000000 78.496439
v -92.967581 0.000000 78.668346
v -92.967586 0.000000 83.825526
v -90.816134 0.000000 83.825526
v -90.959571 0.000000 76.433574
v -118.498103 19.302815 76.433567
v -118.498103 19.302815 102.563267
v -82.640642 19.302815 102.563267
v -82.497205 19.302815 99.640866
v -116.059795 19.302815 99.812773
v -116.203220 19.302815 78.496439
v -92.967586 19.302815 78.668346
v -92.967586 19.302815 83.825526
v -90.816140 19.302815 83.825526
v -90.959577 19.302815 76.433574
vt 0.000000 0.000000
vt 0.605578 0.000000
vt 0.605578 0.996016
vt 0.537849 1.000000
vt 0.541833 0.067729
vt 0.047809 0.063745
vt 0.051793 0.701195
vt 0.171315 0.709163
vt 0.171315 0.768924
vt 0.015936 0.752988
vt 0.000000 0.000000
vt 0.605578 0.000000
vt 0.605578 0.996016
vt 0.537849 1.000000
vt 0.541833 0.067729
vt 0.047809 0.063745
vt 0.051793 0.701195
vt 0.171315 0.709163
vt 0.171315 0.768924
vt 0.015936 0.752988
vt 0.000000 0.000000
vt 0.605578 0.000000
vt 0.605578 0.996016
vt 0.537849 1.000000
vt 0.541833 0.067729
vt 0.047809 0.063745
vt 0.051793 0.701195
vt 0.171315 0.709163
vt 0.171315 0.768924
vt 0.015936 0.752988
vn 0.000000 1.000000 0.000001
vn 0.000000 1.000000 0.000000
vn 0.000000 1.000000 0.000000
vn 0.000000 1.000000 0.000000
vn 0.000000 1.000000 0.000000
vn 0.000000 1.000000 0.000000
vn 0.000000 1.000000 0.000000
vn 0.000000 1.000000 0.000000
vn 0.000000 1.000000 0.000000
vn 0.000000 1.000000 0.000000
vn 0.000000 -1.000000 0.000000
vn 0.000000 -1.000000 0.000000
vn 0.000000 -1.000000 0.000000
vn 0.000000 -1.000000 0.000000
vn 0.000000 -1.000000 0.000000
vn 0.000000 -1.000000 0.000000
vn 0.000000 -1.000000 0.000000
vn 0.000000 -1.000000 0.000000
vn 0.000000 -1.000000 0.000000
vn 0.000000 -1.000000 0.000000
vn -1.000000 0.000000 0.000000
vn -1.000000 0.000000 0.000000
vn -1.000000 0.000000 0.000000
vn -1.000000 0.000000 0.000000
vn 0.000000 0.000000 1.000000
vn 0.000000 0.000000 1.000000
vn 0.000000 0.000000 1.000000
vn 0.000000 0.000000 1.000000
vn 0.998798 0.000001 0.049021
vn 0.998798 0.000000 0.049022
vn 0.998798 0.000000 0.049022
vn 0.998798 0.000000 0.049023
vn -0.005122 0.000000 -0.999987
vn -0.005122 0.000000 -0.999987
vn -0.005122 0.000000 -0.999987
vn -0.005122 0.000000 -0.999987
vn 0.999977 0.000000 -0.006728
vn 0.999977 0.000000 -0.006728
vn 0.999977 0.000000 -0.006728
vn 0.999977 0.000000 -0.006728
vn -0.007398 0.000000 0.999973
vn -0.007398 0.000000 0.999973
vn -0.007398 0.000000 0.999973
vn -0.007399 0.000000 0.999973
vn -1.000000 0.000000 -0.000001
vn -1.000000 0.000000 -0.000001
vn -1.000000 0.000000 -0.000001
vn -1.000000 0.000000 0.000000
vn 0.000000 0.000000 1.000000
vn 0.000000 0.000000 1.000000
vn 0.000000 0.000000 1.000000
vn 0.000000 0.000000 1.000000
vn 0.999812 0.000000 -0.019401
vn 0.999812 0.000000 -0.019401
vn 0.999812 0.000000 -0.019401
vn 0.999812 0.000001 -0.019401
vn 0.000001 0.000000 -1.000000
vn 0.000000 0.000000 -1.000000
vn 0.000000 0.000000 -1.000000
vn 0.000000 0.000000 -1.000000
s 1
g polySurface7
f 34/54/61 35/55/62 33/53/63
f 33/53/63 35/55/62 32/52/64
f 32/52/64 35/55/62 31/51/65
f 35/55/62 36/56/66 31/51/65
f 31/51/65 36/56/66 40/60/67
f 36/56/66 37/57/68 40/60/67
f 40/60/67 37/57/68 39/59/69
f 37/57/68 38/58/70 39/59/69
s 2
f 24/44/71 23/43/72 25/45/73
f 23/43/72 22/42/74 25/45/73
f 22/42/74 21/41/75 25/45/73
f 25/45/73 21/41/75 26/46/76
f 21/41/75 30/50/77 26/46/76
f 26/46/76 30/50/77 27/47/78
f 30/50/77 29/49/79 27/47/78
f 29/49/79 28/48/80 27/47/78
s 3
f 21/31/81 22/32/82 31/51/83
f 31/51/83 22/32/82 32/52/84
s 4
f 22/32/85 23/33/86 32/52/87
f 32/52/87 23/33/86 33/53/88
s 5
f 23/33/89 24/34/90 33/53/91
f 33/53/91 24/34/90 34/54/92
s 6
f 24/34/93 25/35/94 34/54/95
f 34/54/95 25/35/94 35/55/96
s 7
f 25/35/97 26/36/98 35/55/99
f 35/55/99 26/36/98 36/56/100
s 8
f 26/36/101 27/37/102 36/56/103
f 36/56/103 27/37/102 37/57/104
s 9
f 27/37/105 28/38/106 37/57/107
f 37/57/107 28/38/106 38/58/108
s 10
f 28/38/109 29/39/110 38/58/111
f 38/58/111 29/39/110 39/59/112
s 11
f 29/39/113 30/40/114 39/59/115
f 39/59/115 30/40/114 40/60/116
s 12
f 30/40/117 21/31/118 40/60/119
f 40/60/119 21/31/118 31/51/120
