# This file uses centimeters as units for non-parametric coordinates.

mtllib bright_2nd_floor.mtl
g default
v -82.596649 0.000000 -75.327881
v -75.897247 0.000000 -75.327881
v -82.596649 0.000000 -83.888229
v -75.897247 0.000000 -83.888229
v -84.457596 -0.000000 -82.399475
v -33.839863 -0.000000 -82.399475
v -84.457596 0.000000 -134.133774
v -33.839863 0.000000 -134.133774
v -47.556568 -0.000000 79.024811
v -40.816505 -0.000000 79.024811
v -34.076447 -0.000000 79.024811
v -47.556568 -0.000000 1.561848
v -40.816505 -0.000000 1.561848
v -34.076447 -0.000000 1.561848
v -47.556568 0.000000 -75.901115
v -40.816505 0.000000 -75.901115
v -34.076447 0.000000 -75.901115
v -34.206245 -0.000000 -65.241318
v 48.823139 -0.000000 -65.241318
v 131.852524 -0.000000 -65.241318
v -34.206245 -0.000000 -70.776611
v 48.823139 -0.000000 -70.776611
v 131.852524 -0.000000 -70.776611
v -34.206245 0.000000 -76.311897
v 48.823139 0.000000 -76.311897
v 131.852524 0.000000 -76.311897
v 121.269463 -0.000000 81.013412
v 126.804756 -0.000000 81.013412
v 132.340042 -0.000000 81.013412
v 121.269463 -0.000000 7.508241
v 126.804756 -0.000000 7.508241
v 132.340042 -0.000000 7.508241
v 121.269463 0.000000 -65.996933
v 126.804756 0.000000 -65.996933
v 132.340042 0.000000 -65.996933
v 33.536148 -0.000000 -84.244934
v 84.144539 -0.000000 -84.244934
v 33.536148 0.000000 -134.522552
v 84.144539 0.000000 -134.522552
v 77.198280 -0.000000 -76.306366
v 82.159897 -0.000000 -76.306366
v 77.198280 0.000000 -83.914169
v 82.159897 0.000000 -83.914169
v 90.098465 -0.000000 -81.929520
v 109.283348 -0.000000 -81.929520
v 90.098465 0.000000 -108.060646
v 109.283348 0.000000 -108.060646
v 114.597382 -0.000000 -76.307808
v 119.228218 -0.000000 -76.307808
v 114.597382 0.000000 -81.930962
v 119.228218 0.000000 -81.930962
v 114.190056 -0.000000 -81.877876
v 134.742813 -0.000000 -81.877876
v 114.190056 0.000000 -107.403076
v 134.742813 0.000000 -107.403076
v 104.652512 -0.000000 -76.307808
v 109.283340 -0.000000 -76.307808
v 104.652512 0.000000 -81.930962
v 109.283340 0.000000 -81.930962
v 138.049088 0.000000 -24.199026
v 193.783844 0.000000 -24.199026
v 138.049088 0.000000 -79.126030
v 193.783844 0.000000 -79.126030
v 131.990952 0.000000 -24.602901
v 138.452957 0.000000 -24.602901
v 131.990952 0.000000 -30.257149
v 138.452957 0.000000 -30.257149
v 138.452957 0.000000 19.015602
v 192.168350 0.000000 19.015602
v 138.452957 0.000000 -17.333151
v 192.168350 0.000000 -17.333151
v 132.394836 -0.000000 -8.851773
v 138.452957 -0.000000 -8.851773
v 132.394836 0.000000 -15.313774
v 138.452957 0.000000 -15.313774
v 139.260712 0.000000 80.000725
v 193.783829 0.000000 80.000725
v 139.260712 0.000000 25.477604
v 193.783829 0.000000 25.477604
v 131.587097 0.000000 57.383732
v 141.683960 0.000000 57.383732
v 131.587097 0.000000 49.306232
v 141.683960 0.000000 49.306232
v -40.783905 0.000000 78.789101
v 121.573860 0.000000 78.789101
v -40.783905 0.000000 66.672859
v 121.573860 0.000000 66.672859
v 35.060955 -0.000000 59.403111
v 85.949211 -0.000000 59.403111
v 35.060955 0.000000 7.707104
v 85.949211 0.000000 7.707104
v 60.908958 -0.000000 66.672859
v 66.967087 -0.000000 66.672859
v 60.908958 0.000000 59.403111
v 66.967087 0.000000 59.403111
v 91.199585 -0.000000 0.841228
v 114.220467 -0.000000 0.841228
v 91.199585 0.000000 -57.720650
v 114.220467 0.000000 -57.720650
v 114.220451 0.000000 1.245102
v 121.894089 0.000000 1.245102
v 114.220451 0.000000 -7.640149
v 121.894089 0.000000 -7.640149
v 33.849331 0.000000 0.033476
v 85.949211 0.000000 0.033476
v 33.849331 0.000000 -56.105152
v 85.949211 0.000000 -56.105152
v 59.697334 0.000000 -54.893528
v 67.370956 0.000000 -54.893528
v 59.697334 0.000000 -65.394272
v 67.370956 0.000000 -65.394272
v 92.552193 -0.000000 62.516727
v 114.662956 -0.000000 62.516727
v 92.552193 0.000000 7.930791
v 114.662956 0.000000 7.930791
v 114.662956 -0.000000 59.752884
v 121.918045 -0.000000 59.752884
v 114.662956 0.000000 52.843273
v 121.918045 0.000000 52.843273
v -97.839256 -0.000000 -75.879784
v -90.238686 -0.000000 -75.879784
v -97.839256 0.000000 -110.014275
v -90.238686 0.000000 -110.014275
v 32.784046 0.000000 136.795074
v 84.606140 0.000000 136.795074
v 32.784046 0.000000 83.591057
v 84.606140 0.000000 83.591057
v 68.368546 0.000000 84.972977
v 75.278160 0.000000 84.972977
v 68.368546 0.000000 78.063362
v 75.278160 0.000000 78.063362
v -85.370331 0.000000 134.722183
v -32.511795 0.000000 134.722183
v -85.370331 0.000000 88.773262
v -32.511795 0.000000 88.773262
v -47.367458 0.000000 89.809708
v -39.766888 0.000000 89.809708
v -47.367458 0.000000 77.717880
v -39.766888 0.000000 77.717880
v -168.155777 0.000000 79.225296
v -53.255402 0.000000 79.225296
v -168.155777 0.000000 46.460739
v -53.255402 0.000000 46.460739
v -166.609787 0.000000 48.704887
v -114.046860 0.000000 48.704887
v -166.609787 0.000000 30.751705
v -114.046860 0.000000 30.751705
v -134.493546 0.000000 110.643356
v -88.712936 0.000000 110.643356
v -134.493546 0.000000 85.060081
v -88.712936 0.000000 85.060081
v -119.233345 0.000000 85.508911
v -105.319618 0.000000 85.508911
v -119.233345 0.000000 78.327637
v -105.319618 0.000000 78.327637
v -54.153057 -0.000000 78.776466
v -46.522957 -0.000000 78.776466
v -54.153057 0.000000 68.004562
v -46.522957 0.000000 68.004562
v -197.778503 0.000000 82.367104
v -173.990540 0.000000 82.367104
v -197.778503 0.000000 56.334984
v -173.990540 0.000000 56.334984
v -196.432022 0.000000 50.949036
v -174.439377 0.000000 50.949036
v -196.432022 0.000000 29.405220
v -174.439377 0.000000 29.405220
v -174.888199 -0.000000 46.909573
v -164.565125 -0.000000 46.909573
v -174.888199 0.000000 35.688835
v -164.565125 0.000000 35.688835
v -173.990555 -0.000000 72.492851
v -167.706924 -0.000000 72.492851
v -173.990555 0.000000 62.618607
v -167.706924 0.000000 62.618607
v -108.910263 0.000000 40.625957
v -53.255394 0.000000 40.625957
v -108.910263 0.000000 4.719594
v -53.255394 0.000000 4.719594
v -106.666115 -0.000000 46.460739
v -97.240692 -0.000000 46.460739
v -106.666115 0.000000 40.177124
v -97.240692 0.000000 40.177124
v -53.255402 -0.000000 19.082138
v -46.971779 -0.000000 19.082138
v -53.255402 0.000000 11.900866
v -46.971779 0.000000 11.900866
v -108.461433 0.000000 -1.115192
v -53.255402 0.000000 -1.115192
v -108.461433 0.000000 -58.116547
v -53.255402 0.000000 -58.116547
v -121.028656 0.000000 -66.644302
v -47.420612 0.000000 -66.644302
v -121.028656 0.000000 -75.620895
v -47.420612 0.000000 -75.620895
v -85.122299 0.000000 -56.770054
v -76.145699 0.000000 -56.770054
v -85.122299 0.000000 -67.541962
v -76.145699 0.000000 -67.541962
v -189.210861 0.000000 -27.596136
v -121.068558 0.000000 -27.596136
v -189.210861 0.000000 -78.313873
v -121.068558 0.000000 -78.313873
v -194.636703 -0.000000 25.365755
v -114.296211 -0.000000 25.365755
v -194.636703 0.000000 -22.210178
v -114.296211 0.000000 -22.210178
v -125.516953 0.000000 31.649366
v -116.091537 0.000000 31.649366
v -125.516953 0.000000 24.916924
v -116.091537 0.000000 24.916924
v 89.788345 -0.000000 107.870667
v 97.388931 -0.000000 107.870667
v 89.788345 0.000000 77.967392
v 97.388931 0.000000 77.967392
vt 0.000000 0.000000
vt 0.782609 0.000000
vt 0.000000 1.000000
vt 0.782609 1.000000
vt 0.000000 0.000000
vt 0.978417 0.000000
vt 0.978417 1.000000
vt 0.000000 1.000000
vt 0.000000 0.000000
vt 0.056306 0.000000
vt 0.000000 0.500000
vt 0.056306 0.500000
vt 0.112613 0.000000
vt 0.112613 0.500000
vt 0.000000 1.000000
vt 0.056306 1.000000
vt 0.112613 1.000000
vt 0.000000 0.000000
vt 0.500000 0.000000
vt 0.000000 0.033333
vt 0.500000 0.033333
vt 1.000000 0.000000
vt 1.000000 0.033333
vt 0.000000 0.066667
vt 0.500000 0.066667
vt 1.000000 0.066667
vt 0.000000 0.000000
vt 0.038889 0.000000
vt 0.000000 0.500000
vt 0.038889 0.500000
vt 0.077778 0.000000
vt 0.077778 0.500000
vt 0.000000 1.000000
vt 0.038889 1.000000
vt 0.077778 1.000000
vt 0.000000 0.000000
vt 1.000000 0.000000
vt 0.000000 0.993464
vt 1.000000 0.993464
vt 0.000000 0.000000
vt 0.652174 0.000000
vt 0.000000 1.000000
vt 0.652174 1.000000
vt 0.000000 0.000000
vt 0.734177 0.000000
vt 0.000000 1.000000
vt 0.734177 1.000000
vt 0.000000 0.000000
vt 0.823529 0.000000
vt 0.000000 1.000000
vt 0.823529 1.000000
vt 0.000000 0.000000
vt 0.805195 0.000000
vt 0.000000 1.000000
vt 0.805195 1.000000
vt 0.000000 0.000000
vt 0.823529 0.000000
vt 0.000000 1.000000
vt 0.823529 1.000000
vt 0.000000 0.000000
vt 1.000000 0.000000
vt 0.000000 0.985507
vt 1.000000 0.985507
vt 0.000000 0.000000
vt 1.000000 0.000000
vt 0.000000 0.875000
vt 1.000000 0.875000
vt 0.000000 0.000000
vt 1.000000 0.000000
vt 0.000000 0.676692
vt 1.000000 0.676692
vt 0.000000 0.000000
vt 0.937500 0.000000
vt 0.000000 1.000000
vt 0.937500 1.000000
vt 0.000000 0.000000
vt 1.000000 0.000000
vt 0.000000 1.000000
vt 1.000000 1.000000
vt 0.000000 0.000000
vt 1.000000 0.000000
vt 0.000000 0.800000
vt 1.000000 0.800000
vt 0.000000 0.000000
vt 1.000000 0.000000
vt 0.000000 0.074627
vt 1.000000 0.074627
vt 0.000000 0.000000
vt 0.984375 0.000000
vt 0.000000 1.000000
vt 0.984375 1.000000
vt 0.000000 0.000000
vt 0.833333 0.000000
vt 0.000000 1.000000
vt 0.833333 1.000000
vt 0.000000 0.000000
vt 0.393103 0.000000
vt 0.000000 1.000000
vt 0.393103 1.000000
vt 0.000000 0.000000
vt 0.863636 0.000000
vt 0.000000 1.000000
vt 0.863636 1.000000
vt 0.000000 0.000000
vt 0.928058 0.000000
vt 0.000000 1.000000
vt 0.928058 1.000000
vt 0.000000 0.000000
vt 0.730769 0.000000
vt 0.000000 1.000000
vt 0.730769 1.000000
vt 0.000000 0.000000
vt 0.405063 0.000000
vt 0.000000 1.000000
vt 0.405063 1.000000
vt 0.000000 0.000000
vt 1.000000 0.000000
vt 0.000000 0.952381
vt 1.000000 0.952381
vt 0.000000 0.000000
vt 0.268293 0.000000
vt 0.000000 1.000000
vt 0.268293 1.000000
vt 0.000000 0.000000
vt 0.974026 0.000000
vt 0.000000 1.000000
vt 0.974026 1.000000
vt 0.000000 0.000000
vt 1.000000 0.000000
vt 0.000000 1.000000
vt 1.000000 1.000000
vt 0.000000 0.000000
vt 1.000000 0.000000
vt 0.000000 0.869281
vt 1.000000 0.869281
vt 0.000000 0.000000
vt 0.628571 0.000000
vt 0.000000 1.000000
vt 0.628571 1.000000
vt 0.000000 0.000000
vt 1.000000 0.000000
vt 0.000000 0.285156
vt 1.000000 0.285156
vt 0.000000 0.000000
vt 1.000000 0.000000
vt 0.000000 0.322581
vt 1.000000 0.322581
vt 0.000000 0.000000
vt 1.000000 0.000000
vt 0.000000 0.558824
vt 1.000000 0.558824
vt 0.000000 0.000000
vt 1.000000 0.000000
vt 0.000000 0.516129
vt 1.000000 0.516129
vt 0.000000 0.000000
vt 0.708333 0.000000
vt 0.000000 1.000000
vt 0.708333 1.000000
vt 0.000000 0.000000
vt 0.913793 0.000000
vt 0.000000 1.000000
vt 0.913793 1.000000
vt 0.000000 0.000000
vt 1.000000 0.000000
vt 0.000000 0.979592
vt 1.000000 0.979592
vt 0.000000 0.000000
vt 0.920000 0.000000
vt 0.000000 1.000000
vt 0.920000 1.000000
vt 0.000000 0.000000
vt 0.636364 0.000000
vt 0.000000 1.000000
vt 0.636364 1.000000
vt 0.000000 0.000000
vt 1.000000 0.000000
vt 0.000000 0.645161
vt 1.000000 0.645161
vt 0.000000 0.000000
vt 1.000000 0.000000
vt 0.000000 0.666667
vt 1.000000 0.666667
vt 0.000000 0.000000
vt 0.875000 0.000000
vt 0.000000 1.000000
vt 0.875000 1.000000
vt 0.000000 0.000000
vt 0.968504 0.000000
vt 0.000000 1.000000
vt 0.968504 1.000000
vt 0.000000 0.000000
vt 1.000000 0.000000
vt 0.000000 0.121951
vt 1.000000 0.121951
vt 0.000000 0.000000
vt 0.833333 0.000000
vt 0.000000 1.000000
vt 0.833333 1.000000
vt 0.000000 0.000000
vt 0.991150 0.000000
vt 0.000000 1.000000
vt 0.991150 1.000000
vt 0.000000 0.000000
vt 1.000000 0.000000
vt 0.000000 0.592179
vt 1.000000 0.592179
vt 0.000000 0.000000
vt 1.000000 0.000000
vt 0.000000 0.714286
vt 1.000000 0.714286
vt 0.000000 0.000000
vt 0.268293 0.000000
vt 0.000000 1.000000
vt 0.268293 1.000000
vn 0.000000 1.000000 0.000000
vn 0.000000 1.000000 0.000000
vn 0.000000 1.000000 0.000000
vn 0.000000 1.000000 0.000000
vn 0.000000 1.000000 0.000000
vn 0.000000 1.000000 0.000000
vn 0.000000 1.000000 0.000000
vn 0.000000 1.000000 0.000000
vn 0.000000 1.000000 0.000000
vn 0.000000 1.000000 0.000000
vn 0.000000 1.000000 0.000000
vn 0.000000 1.000000 0.000000
vn 0.000000 1.000000 0.000000
vn 0.000000 1.000000 0.000000
vn 0.000000 1.000000 0.000000
vn 0.000000 1.000000 0.000000
vn 0.000000 1.000000 0.000000
vn 0.000000 1.000000 0.000000
vn 0.000000 1.000000 0.000000
vn 0.000000 1.000000 0.000000
vn 0.000000 1.000000 0.000000
vn 0.000000 1.000000 0.000000
vn 0.000000 1.000000 0.000000
vn 0.000000 1.000000 0.000000
vn 0.000000 1.000000 0.000000
vn 0.000000 1.000000 0.000000
vn 0.000000 1.000000 0.000000
vn 0.000000 1.000000 0.000000
vn 0.000000 1.000000 0.000000
vn 0.000000 1.000000 0.000000
vn 0.000000 1.000000 0.000000
vn 0.000000 1.000000 0.000000
vn 0.000000 1.000000 0.000000
vn 0.000000 1.000000 0.000000
vn 0.000000 1.000000 0.000000
vn 0.000000 1.000000 0.000000
vn 0.000000 1.000000 0.000000
vn 0.000000 1.000000 0.000000
vn 0.000000 1.000000 0.000000
vn 0.000000 1.000000 0.000000
vn 0.000000 1.000000 0.000000
vn 0.000000 1.000000 0.000000
vn 0.000000 1.000000 0.000000
vn 0.000000 1.000000 0.000000
vn 0.000000 1.000000 0.000000
vn 0.000000 1.000000 0.000000
vn 0.000000 1.000000 0.000000
vn 0.000000 1.000000 0.000000
vn 0.000000 1.000000 0.000000
vn 0.000000 1.000000 0.000000
vn 0.000000 1.000000 0.000000
vn 0.000000 1.000000 0.000000
vn 0.000000 1.000000 0.000000
vn 0.000000 1.000000 0.000000
vn 0.000000 1.000000 0.000000
vn 0.000000 1.000000 0.000000
vn 0.000000 1.000000 0.000000
vn 0.000000 1.000000 0.000000
vn 0.000000 1.000000 0.000000
vn 0.000000 1.000000 0.000000
vn 0.000000 1.000000 0.000000
vn 0.000000 1.000000 0.000000
vn 0.000000 1.000000 0.000000
vn 0.000000 1.000000 0.000000
vn 0.000000 1.000000 0.000000
vn 0.000000 1.000000 0.000000
vn 0.000000 1.000000 0.000000
vn 0.000000 1.000000 0.000000
vn 0.000000 1.000000 0.000000
vn 0.000000 1.000000 0.000000
vn 0.000000 1.000000 0.000000
vn 0.000000 1.000000 0.000000
vn 0.000000 1.000000 0.000000
vn 0.000000 1.000000 0.000000
vn 0.000000 1.000000 0.000000
vn 0.000000 1.000000 0.000000
vn 0.000000 1.000000 0.000000
vn 0.000000 1.000000 0.000000
vn 0.000000 1.000000 0.000000
vn 0.000000 1.000000 0.000000
vn 0.000000 1.000000 0.000000
vn 0.000000 1.000000 0.000000
vn 0.000000 1.000000 0.000000
vn 0.000000 1.000000 0.000000
vn 0.000000 1.000000 0.000000
vn 0.000000 1.000000 0.000000
vn 0.000000 1.000000 0.000000
vn 0.000000 1.000000 0.000000
vn 0.000000 1.000000 0.000000
vn 0.000000 1.000000 0.000000
vn 0.000000 1.000000 0.000000
vn 0.000000 1.000000 0.000000
vn 0.000000 1.000000 0.000000
vn 0.000000 1.000000 0.000000
vn 0.000000 1.000000 0.000000
vn 0.000000 1.000000 0.000000
vn 0.000000 1.000000 0.000000
vn 0.000000 1.000000 0.000000
vn 0.000000 1.000000 0.000000
vn 0.000000 1.000000 0.000000
vn 0.000000 1.000000 0.000000
vn 0.000000 1.000000 0.000000
vn 0.000000 1.000000 0.000000
vn 0.000000 1.000000 0.000000
vn 0.000000 1.000000 0.000000
vn 0.000000 1.000000 0.000000
vn 0.000000 1.000000 0.000000
vn 0.000000 1.000000 0.000000
vn 0.000000 1.000000 0.000000
vn 0.000000 1.000000 0.000000
vn 0.000000 1.000000 0.000000
vn 0.000000 1.000000 0.000000
vn 0.000000 1.000000 0.000000
vn 0.000000 1.000000 0.000000
vn 0.000000 1.000000 0.000000
vn 0.000000 1.000000 0.000000
vn 0.000000 1.000000 0.000000
vn 0.000000 1.000000 0.000000
vn 0.000000 1.000000 0.000000
vn 0.000000 1.000000 0.000000
vn 0.000000 1.000000 0.000000
vn 0.000000 1.000000 0.000000
vn 0.000000 1.000000 0.000000
vn 0.000000 1.000000 0.000000
vn 0.000000 1.000000 0.000000
vn 0.000000 1.000000 0.000000
vn 0.000000 1.000000 0.000000
vn 0.000000 1.000000 0.000000
vn 0.000000 1.000000 0.000000
vn 0.000000 1.000000 0.000000
vn 0.000000 1.000000 0.000000
vn 0.000000 1.000000 0.000000
vn 0.000000 1.000000 0.000000
vn 0.000000 1.000000 0.000000
vn 0.000000 1.000000 0.000000
vn 0.000000 1.000000 0.000000
vn 0.000000 1.000000 0.000000
vn 0.000000 1.000000 0.000000
vn 0.000000 1.000000 0.000000
vn 0.000000 1.000000 0.000000
vn 0.000000 1.000000 0.000000
vn 0.000000 1.000000 0.000000
vn 0.000000 1.000000 0.000000
vn 0.000000 1.000000 0.000000
vn 0.000000 1.000000 0.000000
vn 0.000000 1.000000 0.000000
vn 0.000000 1.000000 0.000000
vn 0.000000 1.000000 0.000000
vn 0.000000 1.000000 0.000000
vn 0.000000 1.000000 0.000000
vn 0.000000 1.000000 0.000000
vn 0.000000 1.000000 0.000000
vn 0.000000 1.000000 0.000000
vn 0.000000 1.000000 0.000000
vn 0.000000 1.000000 0.000000
vn 0.000000 1.000000 0.000000
vn 0.000000 1.000000 0.000000
vn 0.000000 1.000000 0.000000
vn 0.000000 1.000000 0.000000
vn 0.000000 1.000000 0.000000
vn 0.000000 1.000000 0.000000
vn 0.000000 1.000000 0.000000
vn 0.000000 1.000000 0.000000
vn 0.000000 1.000000 0.000000
vn 0.000000 1.000000 0.000000
vn 0.000000 1.000000 0.000000
vn 0.000000 1.000000 0.000000
vn 0.000000 1.000000 0.000000
vn 0.000000 1.000000 0.000000
vn 0.000000 1.000000 0.000000
vn 0.000000 1.000000 0.000000
vn 0.000000 1.000000 0.000000
vn 0.000000 1.000000 0.000000
vn 0.000000 1.000000 0.000000
vn 0.000000 1.000000 0.000000
vn 0.000000 1.000000 0.000000
vn 0.000000 1.000000 0.000000
vn 0.000000 1.000000 0.000000
vn 0.000000 1.000000 0.000000
vn 0.000000 1.000000 0.000000
vn 0.000000 1.000000 0.000000
vn 0.000000 1.000000 0.000000
vn 0.000000 1.000000 0.000000
vn 0.000000 1.000000 0.000000
vn 0.000000 1.000000 0.000000
vn 0.000000 1.000000 0.000000
vn 0.000000 1.000000 0.000000
vn 0.000000 1.000000 0.000000
vn 0.000000 1.000000 0.000000
vn 0.000000 1.000000 0.000000
vn 0.000000 1.000000 0.000000
vn 0.000000 1.000000 0.000000
vn 0.000000 1.000000 0.000000
vn 0.000000 1.000000 0.000000
vn 0.000000 1.000000 0.000000
vn 0.000000 1.000000 0.000000
vn 0.000000 1.000000 0.000000
vn 0.000000 1.000000 0.000000
vn 0.000000 1.000000 0.000000
vn 0.000000 1.000000 0.000000
vn 0.000000 1.000000 0.000000
vn 0.000000 1.000000 0.000000
vn 0.000000 1.000000 0.000000
vn 0.000000 1.000000 0.000000
vn 0.000000 1.000000 0.000000
vn 0.000000 1.000000 0.000000
vn 0.000000 1.000000 0.000000
vn 0.000000 1.000000 0.000000
vn 0.000000 1.000000 0.000000
vn 0.000000 1.000000 0.000000
vn 0.000000 1.000000 0.000000
vn 0.000000 1.000000 0.000000
vn 0.000000 1.000000 0.000000
vn 0.000000 1.000000 0.000000
vn 0.000000 1.000000 0.000000
s 1
g polySurface55
usemtl initialShadingGroup
f 1/1/1 2/2/2 3/3/3
f 3/3/3 2/2/2 4/4/4
s 2
f 5/5/5 6/6/6 7/8/7
f 7/8/7 6/6/6 8/7/8
s 3
f 9/9/9 10/10/10 12/11/11
f 12/11/11 10/10/10 13/12/12
f 10/10/10 11/13/13 13/12/12
f 13/12/12 11/13/13 14/14/14
f 12/11/11 13/12/12 15/15/15
f 15/15/15 13/12/12 16/16/16
f 13/12/12 14/14/14 16/16/16
f 16/16/16 14/14/14 17/17/17
s 4
f 18/18/18 19/19/19 21/20/20
f 21/20/20 19/19/19 22/21/21
f 19/19/19 20/22/22 22/21/21
f 22/21/21 20/22/22 23/23/23
f 21/20/20 22/21/21 24/24/24
f 24/24/24 22/21/21 25/25/25
f 22/21/21 23/23/23 25/25/25
f 25/25/25 23/23/23 26/26/26
s 5
f 27/27/27 28/28/28 30/29/29
f 30/29/29 28/28/28 31/30/30
f 28/28/28 29/31/31 31/30/30
f 31/30/30 29/31/31 32/32/32
f 30/29/29 31/30/30 33/33/33
f 33/33/33 31/30/30 34/34/34
f 31/30/30 32/32/32 34/34/34
f 34/34/34 32/32/32 35/35/35
s 6
f 36/36/36 37/37/37 38/38/38
f 38/38/38 37/37/37 39/39/39
s 7
f 40/40/40 41/41/41 42/42/42
f 42/42/42 41/41/41 43/43/43
s 8
f 44/44/44 45/45/45 46/46/46
f 46/46/46 45/45/45 47/47/47
s 9
f 48/48/48 49/49/49 50/50/50
f 50/50/50 49/49/49 51/51/51
s 10
f 52/52/52 53/53/53 54/54/54
f 54/54/54 53/53/53 55/55/55
s 11
f 56/56/56 57/57/57 58/58/58
f 58/58/58 57/57/57 59/59/59
s 12
f 60/60/60 61/61/61 62/62/62
f 62/62/62 61/61/61 63/63/63
s 13
f 64/64/64 65/65/65 66/66/66
f 66/66/66 65/65/65 67/67/67
s 14
f 68/68/68 69/69/69 70/70/70
f 70/70/70 69/69/69 71/71/71
s 15
f 72/72/72 73/73/73 74/74/74
f 74/74/74 73/73/73 75/75/75
s 16
f 76/76/76 77/77/77 78/78/78
f 78/78/78 77/77/77 79/79/79
s 17
f 80/80/80 81/81/81 82/82/82
f 82/82/82 81/81/81 83/83/83
s 18
f 84/84/84 85/85/85 86/86/86
f 86/86/86 85/85/85 87/87/87
s 19
f 88/88/88 89/89/89 90/90/90
f 90/90/90 89/89/89 91/91/91
s 20
f 92/92/92 93/93/93 94/94/94
f 94/94/94 93/93/93 95/95/95
s 21
f 96/96/96 97/97/97 98/98/98
f 98/98/98 97/97/97 99/99/99
s 22
f 100/100/100 101/101/101 102/102/102
f 102/102/102 101/101/101 103/103/103
s 23
f 104/104/104 105/105/105 106/106/106
f 106/106/106 105/105/105 107/107/107
s 24
f 108/108/108 109/109/109 110/110/110
f 110/110/110 109/109/109 111/111/111
s 25
f 112/112/112 113/113/113 114/114/114
f 114/114/114 113/113/113 115/115/115
s 26
f 116/116/116 117/117/117 118/118/118
f 118/118/118 117/117/117 119/119/119
s 27
f 120/120/120 121/121/121 122/122/122
f 122/122/122 121/121/121 123/123/123
s 28
f 124/124/124 125/125/125 126/126/126
f 126/126/126 125/125/125 127/127/127
s 29
f 128/128/128 129/129/129 130/130/130
f 130/130/130 129/129/129 131/131/131
s 30
f 132/132/132 133/133/133 134/134/134
f 134/134/134 133/133/133 135/135/135
s 31
f 136/136/136 137/137/137 138/138/138
f 138/138/138 137/137/137 139/139/139
s 32
f 140/140/140 141/141/141 142/142/142
f 142/142/142 141/141/141 143/143/143
s 33
f 144/144/144 145/145/145 146/146/146
f 146/146/146 145/145/145 147/147/147
s 34
f 148/148/148 149/149/149 150/150/150
f 150/150/150 149/149/149 151/151/151
s 35
f 152/152/152 153/153/153 154/154/154
f 154/154/154 153/153/153 155/155/155
s 36
f 156/156/156 157/157/157 158/158/158
f 158/158/158 157/157/157 159/159/159
s 37
f 160/160/160 161/161/161 162/162/162
f 162/162/162 161/161/161 163/163/163
s 38
f 164/164/164 165/165/165 166/166/166
f 166/166/166 165/165/165 167/167/167
s 39
f 168/168/168 169/169/169 170/170/170
f 170/170/170 169/169/169 171/171/171
s 40
f 172/172/172 173/173/173 174/174/174
f 174/174/174 173/173/173 175/175/175
s 41
f 176/176/176 177/177/177 178/178/178
f 178/178/178 177/177/177 179/179/179
s 42
f 180/180/180 181/181/181 182/182/182
f 182/182/182 181/181/181 183/183/183
s 43
f 184/184/184 185/185/185 186/186/186
f 186/186/186 185/185/185 187/187/187
s 44
f 188/188/188 189/189/189 190/190/190
f 190/190/190 189/189/189 191/191/191
s 45
f 192/192/192 193/193/193 194/194/194
f 194/194/194 193/193/193 195/195/195
s 46
f 196/196/196 197/197/197 198/198/198
f 198/198/198 197/197/197 199/199/199
s 47
f 200/200/200 201/201/201 202/202/202
f 202/202/202 201/201/201 203/203/203
s 48
f 204/204/204 205/205/205 206/206/206
f 206/206/206 205/205/205 207/207/207
s 49
f 208/208/208 209/209/209 210/210/210
f 210/210/210 209/209/209 211/211/211
s 50
f 212/212/212 213/213/213 214/214/214
f 214/214/214 213/213/213 215/215/215
