# This file uses centimeters as units for non-parametric coordinates.

mtllib intermediate_planar.mtl
g default
v 3.044969 -4.228679 0.199357
v 10.927732 5.893505 0.199357
v 9.136195 5.893505 0.199357
v 0.984702 -4.228679 0.199357
v -6.002293 -4.497409 0.199357
v -6.091869 2.937469 0.199357
v -8.152137 2.937469 0.199357
v -8.062560 -4.139102 0.199357
v 6.986351 9.028694 0.187553
v 0.088933 -0.018567 0.187553
v -1.971334 -0.108144 0.187553
v 4.746929 9.118271 0.187553
v -8.062560 7.685042 0.187553
v 4.030314 7.774619 0.187553
v 2.776239 5.803928 0.187553
v -8.600021 5.803928 0.187553
vt 0.089808 0.000000
vt 1.000000 0.000000
vt 0.921906 0.100280
vt 0.000000 0.115321
vt 0.000000 0.000000
vt 0.996673 0.000000
vt 1.000000 0.276146
vt 0.051353 0.275568
vt 0.000000 0.000000
vt 0.101322 0.144540
vt 1.000000 0.124764
vt 0.896012 0.000000
vt 0.057431 0.000000
vt 0.000000 0.187420
vt 0.871806 0.132211
vt 1.000000 0.000000
vn 0.000000 0.000000 1.000000
vn 0.000000 0.000000 1.000000
vn 0.000000 0.000000 1.000000
vn 0.000000 0.000000 1.000000
vn -0.000000 0.000000 1.000000
vn -0.000000 0.000000 1.000000
vn -0.000000 0.000000 1.000000
vn 0.000000 0.000000 1.000000
vn 0.000000 0.000000 1.000000
vn -0.000000 0.000000 1.000000
vn -0.000000 0.000000 1.000000
vn -0.000000 0.000000 1.000000
vn 0.000000 0.000000 1.000000
vn 0.000000 0.000000 1.000000
vn 0.000000 0.000000 1.000000
vn 0.000000 0.000000 1.000000
s 1
g polySurface28
usemtl initialShadingGroup
f 2/2/1 3/3/2 1/1/3
f 1/1/3 3/3/2 4/4/4
s 2
f 5/5/5 6/6/6 8/8/7
f 8/8/7 6/6/6 7/7/8
s 3
f 9/9/9 12/10/10 10/12/11
f 10/12/11 12/10/10 11/11/12
s 4
f 16/14/13 15/15/14 13/13/15
f 13/13/15 15/15/14 14/16/16
