# This file uses centimeters as units for non-parametric coordinates.

mtllib S2Dharder_planar.mtl
g default
v 12.706801 15.748730 0.180364
v 7.164585 15.748730 0.180364
v 7.764585 13.189832 0.180364
v 7.381806 11.971309 0.180364
v 6.614948 11.091861 0.180364
v 5.213647 10.665378 0.180364
v 3.020306 9.960747 0.180364
v 1.131596 9.965378 0.180364
v -1.281085 11.191861 0.183034
v -2.573124 12.757417 0.183034
v -3.596278 13.035565 0.183034
v -4.022761 11.130935 0.183034
v -3.803421 9.899821 0.180364
v -3.803421 9.656116 0.180364
v -3.255086 9.229633 0.180364
v 12.767728 9.229633 0.180364
v -11.787495 15.890956 0.200000
v 3.793671 16.006793 0.200000
v 4.720369 15.717200 0.200000
v 5.531230 15.080095 0.200000
v 5.994579 14.500908 0.200000
v 6.052498 13.747966 0.200000
v 5.936661 12.937105 0.200000
v 5.125800 12.357919 0.200000
v 4.314939 11.952488 0.200000
v 3.619915 11.594570 0.200000
v 2.345705 11.220814 0.200000
v 1.534844 11.504976 0.200000
v 0.723983 11.804976 0.200000
v 0.202715 12.036651 0.200000
v -0.897739 13.010407 0.200000
v -1.998193 14.200000 0.200000
v -2.577379 14.489593 0.200000
v -3.272403 14.721268 0.200000
v -3.909508 14.895024 0.200000
v -4.604532 14.679186 0.200000
v -5.357474 14.073756 0.200000
v -5.878742 12.678732 0.200000
v -6.052498 11.025790 0.200000
v -6.226254 9.635742 0.200000
v -11.787495 9.519905 0.200000
vn 0.000000 0.000000 1.000000
vn 0.000000 0.000000 1.000000
vn 0.000000 0.000000 1.000000
vn 0.000000 0.000000 1.000000
vn 0.000000 0.000000 1.000000
vn 0.000000 0.000000 1.000000
vn 0.000000 0.000000 1.000000
vn 0.000000 0.000000 1.000000
vn 0.000000 0.000000 1.000000
vn 0.000000 0.000000 1.000000
vn 0.000000 0.000000 1.000000
vn 0.000000 0.000000 1.000000
vn 0.000000 0.000000 1.000000
vn 0.000000 0.000000 1.000000
vn 0.000000 0.000000 1.000000
vn 0.000000 0.000000 1.000000
vn 0.000000 0.000000 1.000000
vn 0.000000 0.000000 1.000000
vn 0.000000 0.000000 1.000000
vn 0.000000 -0.000000 1.000000
vn 0.000000 0.000000 1.000000
vn 0.000000 0.000000 1.000000
vn 0.000000 0.000000 1.000000
vn 0.000000 0.000000 1.000000
vn 0.000000 0.000000 1.000000
vn 0.000000 0.000000 1.000000
vn 0.000000 0.000000 1.000000
vn 0.000000 0.000000 1.000000
vn 0.000000 0.000000 1.000000
vn 0.000000 0.000000 1.000000
vn 0.000000 0.000000 1.000000
vn 0.000000 0.000000 1.000000
vn 0.000000 0.000000 1.000000
vn 0.000000 0.000000 1.000000
vn 0.000000 0.000000 1.000000
vn 0.000000 0.000000 1.000000
vn 0.000000 0.000000 1.000000
vn 0.000000 0.000000 1.000000
vn 0.000000 0.000000 1.000000
vn 0.000000 0.000000 1.000000
vn 0.000000 0.000000 1.000000
vn 0.000000 0.000000 1.000000
vn 0.000000 0.000000 1.000000
vn 0.000000 0.000000 1.000000
vn 0.000000 0.000000 1.000000
vn 0.000000 -0.000000 1.000000
vn 0.000000 0.000000 1.000000
vn 0.000000 0.000000 1.000000
vn 0.000000 -0.000000 1.000000
vn 0.000000 0.000000 1.000000
vn 0.000000 0.000000 1.000000
vn 0.000000 -0.000000 1.000000
vn 0.000000 0.000000 1.000000
vn 0.000000 0.000000 1.000000
vn 0.000000 -0.000000 1.000000
vn 0.000000 0.000000 1.000000
vn 0.000000 0.000000 1.000000
vn 0.000000 0.000000 1.000000
vn 0.000000 -0.000000 1.000000
vn 0.000000 0.000000 1.000000
vn 0.000000 0.000000 1.000000
vn 0.000000 -0.000000 1.000000
vn 0.000000 0.000000 1.000000
vn 0.000000 0.000000 1.000000
vn 0.000000 -0.000000 1.000000
vn 0.000000 0.000000 1.000000
vn 0.000000 0.000000 1.000000
vn 0.000000 -0.000000 1.000000
vn 0.000000 0.000000 1.000000
vn 0.000000 0.000000 1.000000
vn 0.000000 -0.000000 1.000000
vn 0.000000 0.000000 1.000000
vn 0.000000 0.000000 1.000000
vn 0.000000 -0.000000 1.000000
vn 0.000000 0.000000 1.000000
vn 0.000000 0.000000 1.000000
vn 0.000000 -0.000000 1.000000
vn 0.000000 0.000000 1.000000
vn 0.000000 0.000000 1.000000
vn 0.000000 -0.000000 1.000000
vn 0.000000 0.000000 1.000000
vn 0.000000 0.000000 1.000000
vn 0.000000 -0.000000 1.000000
vn 0.000000 0.000000 1.000000
vn 0.000000 0.000000 1.000000
vn 0.000000 -0.000000 1.000000
vn 0.000000 0.000000 1.000000
vn 0.000000 0.000000 1.000000
vn 0.000000 -0.000000 1.000000
vn 0.000000 0.000000 1.000000
vn 0.000000 0.000000 1.000000
vn 0.000000 0.000000 1.000000
vn 0.000000 0.000000 1.000000
vn 0.000000 0.000000 1.000000
vn 0.000000 0.000000 1.000000
vn 0.000000 0.000000 1.000000
vn 0.000000 0.000000 1.000000
vn 0.000000 -0.000000 1.000000
vn 0.000000 0.000000 1.000000
vn 0.000000 0.000000 1.000000
vn 0.000000 -0.000000 1.000000
vn 0.000000 0.000000 1.000000
vn 0.000000 0.000000 1.000000
vn 0.000000 0.000000 1.000000
vn 0.000000 0.000000 1.000000
vn 0.000000 -0.000000 1.000000
vn 0.000000 0.000000 1.000000
vn 0.000000 0.000000 1.000000
vn 0.000000 0.000000 1.000000
vn 0.000000 0.000000 1.000000
vn 0.000000 0.000000 1.000000
s off
g S2D:IVCON
usemtl initialShadingGroup
f 2//1 3//2 1//3
f 1//4 3//5 16//6
f 3//7 4//8 16//9
f 4//10 5//11 16//12
f 14//13 15//14 13//15
f 12//16 13//17 11//18
f 13//19 15//20 11//21
f 11//22 15//23 10//24
f 10//25 15//26 9//27
f 5//28 6//29 16//30
f 9//31 15//32 8//33
f 6//34 7//35 16//36
f 16//37 7//38 15//39
f 7//40 8//41 15//42
f 41//43 40//44 17//45
f 40//46 39//47 17//48
f 39//49 38//50 17//51
f 38//52 37//53 17//54
f 37//55 36//56 17//57
f 17//58 36//59 18//60
f 36//61 35//62 18//63
f 35//64 34//65 18//66
f 34//67 33//68 18//69
f 33//70 32//71 18//72
f 32//73 31//74 18//75
f 31//76 30//77 18//78
f 30//79 29//80 18//81
f 29//82 28//83 18//84
f 28//85 27//86 18//87
f 27//88 26//89 18//90
f 18//91 26//92 19//93
f 19//94 26//95 20//96
f 26//97 25//98 20//99
f 25//100 24//101 20//102
f 24//103 23//104 20//105
f 23//106 22//107 20//108
f 22//109 21//110 20//111
