# This file uses centimeters as units for non-parametric coordinates.

mtllib S2Dharder.mtl
g default
v 12.706801 15.748730 -0.300000
v 7.164585 15.748730 -0.300000
v 7.864585 13.189832 -0.300000
v 7.381806 11.971309 -0.300000
v 6.614948 11.091861 -0.300000
v 5.213647 10.665378 -0.300000
v 3.020306 9.960747 -0.300000
v 1.131596 9.965378 -0.300000
v -1.281085 11.191861 -0.297330
v -2.573124 12.757417 -0.297330
v -3.596278 13.035565 -0.297330
v -4.022761 11.130935 -0.297330
v -3.803421 9.899821 -0.300000
v -3.803421 9.656116 -0.300000
v -3.255086 9.229633 -0.300000
v 12.767728 9.229633 -0.300000
v 12.706801 15.748730 0.180364
v 7.164585 15.748730 0.180364
v 7.764585 13.189832 0.180364
v 7.381806 11.971309 0.180364
v 6.614948 11.091861 0.180364
v 5.213647 10.665378 0.180364
v 3.020306 9.960747 0.180364
v 1.131596 9.965378 0.180364
v -1.281085 11.191861 0.183034
v -2.573124 12.757417 0.183034
v -3.596278 13.035565 0.183034
v -4.022761 11.130935 0.183034
v -3.803421 9.899821 0.180364
v -3.803421 9.656116 0.180364
v -3.255086 9.229633 0.180364
v 12.767728 9.229633 0.180364
v -11.787495 15.890956 0.200000
v 3.793671 16.006793 0.200000
v 4.720369 15.717200 0.200000
v 5.531230 15.080095 0.200000
v 5.994579 14.500908 0.200000
v 6.052498 13.747966 0.200000
v 5.936661 12.937105 0.200000
v 5.125800 12.357919 0.200000
v 4.314939 11.952488 0.200000
v 3.619915 11.594570 0.200000
v 2.345705 11.220814 0.200000
v 1.534844 11.504976 0.200000
v 0.723983 11.804976 0.200000
v 0.202715 12.036651 0.200000
v -0.897739 13.010407 0.200000
v -1.998193 14.200000 0.200000
v -2.577379 14.489593 0.200000
v -3.272403 14.721268 0.200000
v -3.909508 14.895024 0.200000
v -4.604532 14.679186 0.200000
v -5.357474 14.073756 0.200000
v -5.878742 12.678732 0.200000
v -6.052498 11.025790 0.200000
v -6.226254 9.635742 0.200000
v -11.787495 9.519905 0.200000
v -11.787495 15.890956 -0.281528
v 3.793671 16.006793 -0.281528
v 4.720369 15.717200 -0.281528
v 5.531230 15.080095 -0.281528
v 5.994579 14.500908 -0.281528
v 6.052498 13.747966 -0.281528
v 5.936661 12.937105 -0.281528
v 5.125800 12.357919 -0.281528
v 4.314939 11.952488 -0.281528
v 3.619915 11.594570 -0.281528
v 2.345705 11.220814 -0.281528
v 1.534844 11.504976 -0.281528
v 0.723983 11.804976 -0.281528
v 0.202715 12.036651 -0.281528
v -0.897739 13.010407 -0.281528
v -1.998193 14.200000 -0.281528
v -2.577380 14.489593 -0.281528
v -3.272403 14.721268 -0.281528
v -3.909508 14.895024 -0.281528
v -4.604532 14.679186 -0.281528
v -5.357474 14.073756 -0.281528
v -5.878742 12.678732 -0.281528
v -6.052498 11.025790 -0.281528
v -6.226254 9.635742 -0.281528
v -11.787495 9.519905 -0.281528
vn 0.000000 0.000000 1.000000
vn 0.000000 0.000000 1.000000
vn 0.000000 0.000000 1.000000
vn 0.000000 0.000000 1.000000
vn 0.000000 0.000000 1.000000
vn 0.000000 0.000000 1.000000
vn 0.000000 0.000000 1.000000
vn 0.000000 0.000000 1.000000
vn 0.000000 0.000000 1.000000
vn 0.000000 0.000000 1.000000
vn 0.000000 0.000000 1.000000
vn 0.000000 0.000000 1.000000
vn 0.000000 0.000000 1.000000
vn 0.000000 0.000000 1.000000
vn 0.000000 0.000000 1.000000
vn 0.000000 0.000000 1.000000
vn 0.000000 0.000000 1.000000
vn 0.000000 0.000000 1.000000
vn 0.000000 0.000000 1.000000
vn 0.000000 -0.000000 1.000000
vn 0.000000 0.000000 1.000000
vn 0.000000 0.000000 1.000000
vn 0.000000 0.000000 1.000000
vn 0.000000 0.000000 1.000000
vn 0.000000 0.000000 1.000000
vn 0.000000 0.000000 1.000000
vn 0.000000 0.000000 1.000000
vn 0.000000 0.000000 1.000000
vn 0.000000 0.000000 1.000000
vn 0.000000 0.000000 1.000000
vn 0.000000 0.000000 1.000000
vn 0.000000 0.000000 1.000000
vn 0.000000 0.000000 1.000000
vn 0.000000 0.000000 1.000000
vn 0.000000 0.000000 1.000000
vn 0.000000 0.000000 1.000000
vn 0.000000 0.000000 1.000000
vn 0.000000 0.000000 1.000000
vn 0.000000 0.000000 1.000000
vn 0.000000 0.000000 1.000000
vn 0.000000 0.000000 1.000000
vn 0.000000 0.000000 1.000000
vn 0.000000 0.000000 -1.000000
vn -0.000000 0.000000 -1.000000
vn 0.000000 0.000000 -1.000000
vn 0.000000 0.000000 -1.000000
vn 0.000000 0.000000 -1.000000
vn 0.000000 0.000000 -1.000000
vn 0.000000 0.000000 -1.000000
vn 0.000000 0.000000 -1.000000
vn 0.000000 0.000000 -1.000000
vn 0.000000 0.000000 -1.000000
vn 0.000000 0.000000 -1.000000
vn 0.000000 0.000000 -1.000000
vn 0.000000 0.000000 -1.000000
vn 0.000000 0.000000 -1.000000
vn 0.000000 0.000000 -1.000000
vn 0.000000 0.000000 -1.000000
vn 0.000000 0.000000 -1.000000
vn 0.000000 0.000000 -1.000000
vn 0.000000 0.000000 -1.000000
vn 0.000000 0.000000 -1.000000
vn 0.000000 0.000000 -1.000000
vn 0.000000 0.000000 -1.000000
vn 0.000000 0.000000 -1.000000
vn 0.000000 0.000000 -1.000000
vn 0.000000 0.000000 -1.000000
vn -0.000000 0.000000 -1.000000
vn 0.000000 0.000000 -1.000000
vn 0.000000 0.000000 -1.000000
vn 0.000000 0.000000 -1.000000
vn 0.000000 0.000000 -1.000000
vn 0.000000 0.000000 -1.000000
vn -0.000000 0.000000 -1.000000
vn 0.000000 0.000000 -1.000000
vn 0.000000 0.000000 -1.000000
vn 0.000000 0.000000 -1.000000
vn 0.000000 0.000000 -1.000000
vn 0.000000 0.000000 -1.000000
vn 0.000000 0.000000 -1.000000
vn 0.000000 0.000000 -1.000000
vn 0.000000 0.000000 -1.000000
vn 0.000000 0.000000 -1.000000
vn -0.000000 0.000000 -1.000000
vn 0.000000 1.000000 0.000000
vn 0.000000 1.000000 0.000000
vn 0.000000 1.000000 0.000000
vn 0.000000 1.000000 0.000000
vn 0.000000 1.000000 0.000000
vn 0.000000 1.000000 0.000000
vn -1.000000 0.000000 0.000000
vn -1.000000 0.000000 0.000000
vn -1.000000 0.000000 -0.000000
vn -1.000000 0.000000 0.000000
vn -1.000000 0.000000 0.000000
vn -1.000000 0.000000 0.000000
vn -0.988936 0.148340 0.000000
vn -0.988936 0.148340 0.000000
vn -0.988936 0.148340 0.000000
vn -0.988936 0.148340 0.000000
vn -0.988936 0.148340 0.000000
vn -0.988936 0.148340 0.000000
vn -0.586509 0.809942 0.000000
vn -0.586509 0.809942 0.000000
vn -0.586509 0.809942 0.000000
vn -0.586509 0.809942 0.000000
vn -0.586509 0.809942 0.000000
vn -0.586509 0.809942 0.000000
vn -0.291162 0.956674 0.000000
vn -0.291162 0.956674 0.000000
vn -0.291162 0.956674 0.000000
vn -0.291162 0.956674 0.000000
vn -0.291162 0.956674 0.000000
vn -0.291162 0.956674 0.000000
vn -0.137569 0.990492 0.000000
vn -0.137569 0.990492 0.000000
vn -0.137569 0.990492 0.000000
vn -0.137569 0.990492 0.000000
vn -0.137569 0.990492 0.000000
vn -0.137569 0.990492 0.000000
vn 0.159233 0.987241 0.000000
vn 0.159233 0.987241 0.000000
vn 0.159233 0.987241 0.000000
vn 0.159233 0.987241 0.000000
vn 0.159233 0.987241 0.000000
vn 0.159233 0.987241 0.000000
vn 0.201653 0.979457 0.000000
vn 0.201653 0.979457 0.000000
vn 0.201653 0.979457 0.000000
vn 0.201653 0.979457 0.000000
vn 0.201653 0.979457 0.000000
vn 0.201653 0.979457 0.000000
vn 0.419058 0.907960 0.000000
vn 0.419058 0.907960 0.000000
vn 0.419058 0.907960 0.000000
vn 0.419058 0.907960 0.000000
vn 0.419058 0.907960 0.000000
vn 0.419058 0.907960 0.000000
vn -0.079745 0.996815 0.000000
vn -0.079745 0.996815 0.000000
vn -0.079745 0.996815 0.000000
vn -0.079745 0.996815 0.000000
vn -0.079745 0.996815 0.000000
vn -0.079745 0.996815 0.000000
vn -0.581237 0.813734 0.000000
vn -0.581237 0.813734 0.000000
vn -0.581237 0.813734 0.000000
vn -0.581237 0.813734 0.000000
vn -0.581237 0.813734 0.000000
vn -0.581237 0.813734 0.000000
vn -0.986394 0.164398 0.000000
vn -0.986394 0.164398 0.000000
vn -0.986394 0.164398 0.000000
vn -0.986394 0.164398 0.000000
vn -0.986394 0.164398 0.000000
vn -0.986394 0.164398 0.000000
vn -1.000000 0.000000 0.000000
vn -1.000000 0.000000 0.000000
vn -1.000000 0.000000 -0.000000
vn -1.000000 0.000000 0.000000
vn -1.000000 0.000000 0.000000
vn -1.000000 0.000000 0.000000
vn -0.613941 -0.789352 0.000000
vn -0.613941 -0.789352 0.000000
vn -0.613941 -0.789352 0.000000
vn -0.613941 -0.789352 0.000000
vn -0.613941 -0.789352 0.000000
vn -0.613941 -0.789352 0.000000
vn 0.000000 -1.000000 0.000000
vn 0.000000 -1.000000 0.000000
vn 0.000000 -1.000000 0.000000
vn 0.000000 -1.000000 0.000000
vn 0.000000 -1.000000 0.000000
vn 0.000000 -1.000000 0.000000
vn 0.999956 0.009345 0.000000
vn 0.999956 0.009345 0.000000
vn 0.999956 0.009345 0.000000
vn 0.999956 0.009345 0.000000
vn 0.999956 0.009345 0.000000
vn 0.999956 0.009345 0.000000
vn 0.000000 0.000000 -1.000000
vn 0.000000 0.000000 -1.000000
vn -0.000000 0.000000 -1.000000
vn 0.000000 0.000000 -1.000000
vn 0.000000 0.000000 -1.000000
vn -0.000000 0.000000 -1.000000
vn 0.000000 0.000000 -1.000000
vn 0.000000 0.000000 -1.000000
vn -0.000000 0.000000 -1.000000
vn 0.000000 0.000000 -1.000000
vn 0.000000 0.000000 -1.000000
vn -0.000000 0.000000 -1.000000
vn 0.000000 0.000000 -1.000000
vn 0.000000 0.000000 -1.000000
vn -0.000000 0.000000 -1.000000
vn 0.000000 0.000000 -1.000000
vn 0.000000 0.000000 -1.000000
vn 0.000000 0.000000 -1.000000
vn 0.000000 0.000000 -1.000000
vn 0.000000 0.000000 -1.000000
vn -0.000000 0.000000 -1.000000
vn 0.000000 0.000000 -1.000000
vn 0.000000 0.000000 -1.000000
vn 0.000000 0.000000 -1.000000
vn 0.000000 0.000000 -1.000000
vn 0.000000 0.000000 -1.000000
vn 0.000000 0.000000 -1.000000
vn 0.000000 0.000000 -1.000000
vn 0.000000 0.000000 -1.000000
vn 0.000000 0.000000 -1.000000
vn 0.000000 0.000000 -1.000000
vn 0.000000 0.000000 -1.000000
vn 0.000000 0.000000 -1.000000
vn 0.000000 0.000000 -1.000000
vn 0.000000 0.000000 -1.000000
vn 0.000000 0.000000 -1.000000
vn 0.000000 0.000000 -1.000000
vn 0.000000 0.000000 -1.000000
vn 0.000000 0.000000 -1.000000
vn 0.000000 0.000000 -1.000000
vn 0.000000 0.000000 -1.000000
vn 0.000000 0.000000 -1.000000
vn 0.000000 0.000000 -1.000000
vn 0.000000 0.000000 -1.000000
vn -0.000000 0.000000 -1.000000
vn 0.000000 0.000000 -1.000000
vn 0.000000 0.000000 -1.000000
vn -0.000000 0.000000 -1.000000
vn 0.000000 0.000000 -1.000000
vn -0.000000 0.000000 -1.000000
vn 0.000000 0.000000 -1.000000
vn 0.000000 0.000000 -1.000000
vn -0.000000 0.000000 -1.000000
vn 0.000000 0.000000 -1.000000
vn 0.000000 0.000000 -1.000000
vn 0.000000 0.000000 -1.000000
vn -0.000000 0.000000 -1.000000
vn 0.000000 0.000000 -1.000000
vn 0.000000 0.000000 -1.000000
vn -0.000000 0.000000 -1.000000
vn 0.000000 0.000000 -1.000000
vn 0.000000 0.000000 -1.000000
vn -0.000000 0.000000 -1.000000
vn 0.000000 0.000000 -1.000000
vn 0.000000 0.000000 -1.000000
vn -0.000000 0.000000 -1.000000
vn 0.000000 0.000000 -1.000000
vn 0.000000 0.000000 -1.000000
vn 0.000000 0.000000 -1.000000
vn 0.000000 0.000000 1.000000
vn 0.000000 0.000000 1.000000
vn 0.000000 0.000000 1.000000
vn 0.000000 -0.000000 1.000000
vn 0.000000 0.000000 1.000000
vn 0.000000 0.000000 1.000000
vn 0.000000 -0.000000 1.000000
vn 0.000000 0.000000 1.000000
vn 0.000000 0.000000 1.000000
vn 0.000000 -0.000000 1.000000
vn 0.000000 0.000000 1.000000
vn 0.000000 0.000000 1.000000
vn 0.000000 -0.000000 1.000000
vn 0.000000 0.000000 1.000000
vn 0.000000 0.000000 1.000000
vn 0.000000 0.000000 1.000000
vn 0.000000 -0.000000 1.000000
vn 0.000000 0.000000 1.000000
vn 0.000000 0.000000 1.000000
vn 0.000000 -0.000000 1.000000
vn 0.000000 0.000000 1.000000
vn 0.000000 0.000000 1.000000
vn 0.000000 -0.000000 1.000000
vn 0.000000 0.000000 1.000000
vn 0.000000 0.000000 1.000000
vn 0.000000 -0.000000 1.000000
vn 0.000000 0.000000 1.000000
vn 0.000000 0.000000 1.000000
vn 0.000000 -0.000000 1.000000
vn 0.000000 0.000000 1.000000
vn 0.000000 0.000000 1.000000
vn 0.000000 -0.000000 1.000000
vn 0.000000 0.000000 1.000000
vn 0.000000 0.000000 1.000000
vn 0.000000 -0.000000 1.000000
vn 0.000000 0.000000 1.000000
vn 0.000000 0.000000 1.000000
vn 0.000000 -0.000000 1.000000
vn 0.000000 0.000000 1.000000
vn 0.000000 0.000000 1.000000
vn 0.000000 -0.000000 1.000000
vn 0.000000 0.000000 1.000000
vn 0.000000 0.000000 1.000000
vn 0.000000 -0.000000 1.000000
vn 0.000000 0.000000 1.000000
vn 0.000000 0.000000 1.000000
vn 0.000000 -0.000000 1.000000
vn 0.000000 0.000000 1.000000
vn 0.000000 0.000000 1.000000
vn 0.000000 0.000000 1.000000
vn 0.000000 0.000000 1.000000
vn 0.000000 0.000000 1.000000
vn 0.000000 0.000000 1.000000
vn 0.000000 0.000000 1.000000
vn 0.000000 0.000000 1.000000
vn 0.000000 -0.000000 1.000000
vn 0.000000 0.000000 1.000000
vn 0.000000 0.000000 1.000000
vn 0.000000 -0.000000 1.000000
vn 0.000000 0.000000 1.000000
vn 0.000000 0.000000 1.000000
vn 0.000000 0.000000 1.000000
vn 0.000000 0.000000 1.000000
vn 0.000000 -0.000000 1.000000
vn 0.000000 0.000000 1.000000
vn 0.000000 0.000000 1.000000
vn 0.000000 0.000000 1.000000
vn 0.000000 0.000000 1.000000
vn 0.000000 0.000000 1.000000
vn -0.007874 0.999969 0.000000
vn -0.007874 0.999969 0.000000
vn -0.007874 0.999969 0.000000
vn -0.007874 0.999969 0.000000
vn -0.007874 0.999969 0.000000
vn -0.007874 0.999969 0.000000
vn 0.298275 0.954480 0.000000
vn 0.298275 0.954480 0.000000
vn 0.298275 0.954480 0.000000
vn 0.298275 0.954480 0.000000
vn 0.298275 0.954480 0.000000
vn 0.298275 0.954480 0.000000
vn 0.617821 0.786319 0.000000
vn 0.617821 0.786319 0.000000
vn 0.617821 0.786319 0.000000
vn 0.617821 0.786319 0.000000
vn 0.617821 0.786319 0.000000
vn 0.617821 0.786319 0.000000
vn 0.780869 0.624694 0.000000
vn 0.780869 0.624694 0.000000
vn 0.780869 0.624694 0.000000
vn 0.780869 0.624694 0.000000
vn 0.780869 0.624694 0.000000
vn 0.780869 0.624694 0.000000
vn 0.997054 0.076697 0.000000
vn 0.997054 0.076697 0.000000
vn 0.997054 0.076697 0.000000
vn 0.997054 0.076697 0.000000
vn 0.997054 0.076697 0.000000
vn 0.997054 0.076697 0.000000
vn 0.989950 -0.141421 0.000000
vn 0.989950 -0.141421 0.000000
vn 0.989950 -0.141421 0.000000
vn 0.989950 -0.141421 0.000000
vn 0.989950 -0.141421 0.000000
vn 0.989950 -0.141421 0.000000
vn 0.581238 -0.813734 0.000000
vn 0.581238 -0.813734 0.000000
vn 0.581238 -0.813734 0.000000
vn 0.581238 -0.813734 0.000000
vn 0.581238 -0.813734 0.000000
vn 0.581238 -0.813734 0.000000
vn 0.447214 -0.894427 0.000000
vn 0.447214 -0.894427 0.000000
vn 0.447214 -0.894427 0.000000
vn 0.447214 -0.894427 0.000000
vn 0.447214 -0.894427 0.000000
vn 0.447214 -0.894427 0.000000
vn 0.083044 -0.996546 0.000000
vn 0.083044 -0.996546 0.000000
vn 0.083044 -0.996546 0.000000
vn 0.083044 -0.996546 0.000000
vn 0.083044 -0.996546 0.000000
vn 0.083044 -0.996546 0.000000
vn 0.135113 -0.990830 0.000000
vn 0.135113 -0.990830 0.000000
vn 0.135113 -0.990830 0.000000
vn 0.135113 -0.990830 0.000000
vn 0.135113 -0.990830 0.000000
vn 0.135113 -0.990830 0.000000
vn 0.141422 -0.989949 0.000000
vn 0.141422 -0.989949 0.000000
vn 0.141422 -0.989949 0.000000
vn 0.141422 -0.989949 0.000000
vn 0.141422 -0.989949 0.000000
vn 0.141422 -0.989949 0.000000
vn 0.000000 -1.000000 0.000000
vn 0.000000 -1.000000 0.000000
vn 0.000000 -1.000000 0.000000
vn 0.000000 -1.000000 0.000000
vn 0.000000 -1.000000 0.000000
vn 0.000000 -1.000000 0.000000
vn -0.406139 -0.913811 0.000000
vn -0.406139 -0.913811 0.000000
vn -0.406139 -0.913811 0.000000
vn -0.406139 -0.913811 0.000000
vn -0.406139 -0.913811 0.000000
vn -0.406139 -0.913811 0.000000
vn -0.155963 -0.987763 0.000000
vn -0.155963 -0.987763 0.000000
vn -0.155963 -0.987763 0.000000
vn -0.155963 -0.987763 0.000000
vn -0.155963 -0.987763 0.000000
vn -0.155963 -0.987763 0.000000
vn -0.254493 -0.967075 0.000000
vn -0.254493 -0.967075 0.000000
vn -0.254493 -0.967075 0.000000
vn -0.254493 -0.967075 0.000000
vn -0.254493 -0.967075 0.000000
vn -0.254493 -0.967075 0.000000
vn -0.447214 -0.894427 0.000000
vn -0.447214 -0.894427 0.000000
vn -0.447214 -0.894427 0.000000
vn -0.447213 -0.894427 0.000001
vn -0.447213 -0.894427 0.000001
vn -0.447213 -0.894427 0.000001
vn -0.316228 -0.948683 0.000001
vn -0.316228 -0.948683 0.000001
vn -0.316228 -0.948683 0.000001
vn -0.316229 -0.948683 0.000000
vn -0.316229 -0.948683 0.000000
vn -0.316229 -0.948683 0.000000
vn -0.263118 -0.964764 0.000000
vn -0.263118 -0.964764 0.000000
vn -0.263118 -0.964764 0.000000
vn -0.263118 -0.964764 0.000000
vn -0.263118 -0.964764 0.000000
vn -0.263118 -0.964764 0.000000
vn 0.164400 -0.986394 0.000000
vn 0.164400 -0.986394 0.000000
vn 0.164400 -0.986394 0.000000
vn 0.164400 -0.986394 0.000000
vn 0.164400 -0.986394 0.000000
vn 0.164400 -0.986394 0.000000
vn 0.474100 -0.880471 0.000000
vn 0.474100 -0.880471 0.000000
vn 0.474100 -0.880471 0.000000
vn 0.474100 -0.880471 0.000000
vn 0.474100 -0.880471 0.000000
vn 0.474100 -0.880471 0.000000
vn 0.800000 -0.600000 0.000000
vn 0.800000 -0.600000 0.000000
vn 0.800000 -0.600000 0.000000
vn 0.800000 -0.600000 0.000000
vn 0.800000 -0.600000 0.000000
vn 0.800000 -0.600000 0.000000
vn 0.974391 -0.224859 0.000000
vn 0.974391 -0.224859 0.000000
vn 0.974391 -0.224859 0.000000
vn 0.974391 -0.224859 0.000000
vn 0.974391 -0.224859 0.000000
vn 0.974391 -0.224859 0.000000
vn 0.992278 -0.124035 0.000000
vn 0.992278 -0.124035 0.000000
vn 0.992278 -0.124035 0.000000
vn 0.992278 -0.124035 0.000000
vn 0.992278 -0.124035 0.000000
vn 0.992278 -0.124035 0.000000
vn 0.024684 -0.999695 0.000000
vn 0.024684 -0.999695 0.000000
vn 0.024684 -0.999695 0.000000
vn 0.024684 -0.999695 0.000000
vn 0.024684 -0.999695 0.000000
vn 0.024684 -0.999695 0.000000
vn -1.000000 0.000000 0.000000
vn -1.000000 0.000000 0.000000
vn -1.000000 0.000000 0.000000
vn -1.000000 0.000000 0.000000
vn -1.000000 0.000000 -0.000000
vn -1.000000 0.000000 0.000000
s off
g S2D:IVCON
usemtl initialShadingGroup
f 18//1 19//2 17//3
f 17//4 19//5 32//6
f 19//7 20//8 32//9
f 20//10 21//11 32//12
f 30//13 31//14 29//15
f 28//16 29//17 27//18
f 29//19 31//20 27//21
f 27//22 31//23 26//24
f 26//25 31//26 25//27
f 21//28 22//29 32//30
f 25//31 31//32 24//33
f 22//34 23//35 32//36
f 32//37 23//38 31//39
f 23//40 24//41 31//42
f 2//43 1//44 3//45
f 1//46 16//47 3//48
f 3//49 16//50 4//51
f 4//52 16//53 5//54
f 14//55 13//56 15//57
f 12//58 11//59 13//60
f 13//61 11//62 15//63
f 11//64 10//65 15//66
f 10//67 9//68 15//69
f 5//70 16//71 6//72
f 9//73 8//74 15//75
f 6//76 16//77 7//78
f 16//79 15//80 7//81
f 15//82 8//83 7//84
f 1//85 2//86 17//87
f 17//88 2//89 18//90
f 2//91 3//92 18//93
f 18//94 3//95 19//96
f 3//97 4//98 19//99
f 19//100 4//101 20//102
f 4//103 5//104 20//105
f 20//106 5//107 21//108
f 5//109 6//110 21//111
f 21//112 6//113 22//114
f 6//115 7//116 22//117
f 22//118 7//119 23//120
f 7//121 8//122 23//123
f 23//124 8//125 24//126
f 8//127 9//128 24//129
f 24//130 9//131 25//132
f 9//133 10//134 25//135
f 25//136 10//137 26//138
f 10//139 11//140 26//141
f 26//142 11//143 27//144
f 11//145 12//146 27//147
f 27//148 12//149 28//150
f 12//151 13//152 28//153
f 28//154 13//155 29//156
f 13//157 14//158 29//159
f 29//160 14//161 30//162
f 14//163 15//164 30//165
f 30//166 15//167 31//168
f 15//169 16//170 31//171
f 31//172 16//173 32//174
f 16//175 1//176 32//177
f 32//178 1//179 17//180
f 82//181 58//182 81//183
f 81//184 58//185 80//186
f 80//187 58//188 79//189
f 79//190 58//191 78//192
f 78//193 58//194 77//195
f 58//196 59//197 77//198
f 77//199 59//200 76//201
f 76//202 59//203 75//204
f 75//205 59//206 74//207
f 74//208 59//209 73//210
f 73//211 59//212 72//213
f 72//214 59//215 71//216
f 71//217 59//218 70//219
f 70//220 59//221 69//222
f 69//223 59//224 68//225
f 68//226 59//227 67//228
f 59//229 60//230 67//231
f 60//232 61//233 67//234
f 67//235 61//236 66//237
f 66//238 61//239 65//240
f 65//241 61//242 64//243
f 64//244 61//245 63//246
f 61//247 62//248 63//249
f 57//250 56//251 33//252
f 56//253 55//254 33//255
f 55//256 54//257 33//258
f 54//259 53//260 33//261
f 53//262 52//263 33//264
f 33//265 52//266 34//267
f 52//268 51//269 34//270
f 51//271 50//272 34//273
f 50//274 49//275 34//276
f 49//277 48//278 34//279
f 48//280 47//281 34//282
f 47//283 46//284 34//285
f 46//286 45//287 34//288
f 45//289 44//290 34//291
f 44//292 43//293 34//294
f 43//295 42//296 34//297
f 34//298 42//299 35//300
f 35//301 42//302 36//303
f 42//304 41//305 36//306
f 41//307 40//308 36//309
f 40//310 39//311 36//312
f 39//313 38//314 36//315
f 38//316 37//317 36//318
f 33//319 34//320 58//321
f 58//322 34//323 59//324
f 34//325 35//326 59//327
f 59//328 35//329 60//330
f 35//331 36//332 60//333
f 60//334 36//335 61//336
f 36//337 37//338 61//339
f 61//340 37//341 62//342
f 37//343 38//344 62//345
f 62//346 38//347 63//348
f 38//349 39//350 63//351
f 63//352 39//353 64//354
f 39//355 40//356 64//357
f 64//358 40//359 65//360
f 40//361 41//362 65//363
f 65//364 41//365 66//366
f 41//367 42//368 66//369
f 66//370 42//371 67//372
f 42//373 43//374 67//375
f 67//376 43//377 68//378
f 43//379 44//380 68//381
f 68//382 44//383 69//384
f 44//385 45//386 69//387
f 69//388 45//389 70//390
f 45//391 46//392 70//393
f 70//394 46//395 71//396
f 46//397 47//398 71//399
f 71//400 47//401 72//402
f 47//403 48//404 72//405
f 72//406 48//407 73//408
f 48//409 49//410 73//411
f 73//412 49//413 74//414
f 49//415 50//416 74//417
f 74//418 50//419 75//420
f 50//421 51//422 75//423
f 75//424 51//425 76//426
f 51//427 52//428 76//429
f 76//430 52//431 77//432
f 52//433 53//434 77//435
f 77//436 53//437 78//438
f 53//439 54//440 78//441
f 78//442 54//443 79//444
f 54//445 55//446 79//447
f 79//448 55//449 80//450
f 55//451 56//452 80//453
f 80//454 56//455 81//456
f 56//457 57//458 81//459
f 81//460 57//461 82//462
f 57//463 33//464 82//465
f 82//466 33//467 58//468
