# Zig2DLSide.obj created by IVCON.
# Original data in Zig2DLSide.g.

g IVCON

v -7.815471 5.679409 0.200000 1.000000
v -1.384502 5.679409 0.200000 1.000000
v -4.827856 2.387968 0.200000 1.000000
v -1.283227 -1.156661 0.200000 1.000000
v -4.827856 -5.005116 0.200000 1.000000
v -7.866109 -5.005116 0.200000 1.000000
v -7.815471 5.679409 -0.301118 1.000000
v -1.384502 5.679409 -0.301118 1.000000
v -4.827856 2.387968 -0.301118 1.000000
v -1.283227 -1.156661 -0.301118 1.000000
v -4.827856 -5.005116 -0.301118 1.000000
v -7.866109 -5.005116 -0.301118 1.000000

vn -0.000000 0.000000 -1.000000
vn 0.000000 0.000000 -1.000000
vn 0.000000 0.000000 -1.000000
vn 0.000000 -0.000000 -1.000000
vn -0.000000 0.000000 -1.000000
vn 0.000000 0.000000 -1.000000
vn 0.000000 0.000000 -1.000000
vn 0.000000 -0.000000 -1.000000
vn 0.000000 0.000000 -1.000000
vn 0.000000 0.000000 -1.000000
vn -0.000000 0.000000 -1.000000
vn 0.000000 0.000000 -1.000000
vn 0.000000 0.000000 1.000000
vn -0.000000 0.000000 1.000000
vn 0.000000 -0.000000 1.000000
vn 0.000000 0.000000 1.000000
vn 0.000000 0.000000 1.000000
vn 0.000000 0.000000 1.000000
vn 0.000000 0.000000 1.000000
vn 0.000000 -0.000000 1.000000
vn 0.000000 0.000000 1.000000
vn 0.000000 0.000000 1.000000
vn 0.000000 0.000000 1.000000
vn 0.000000 0.000000 1.000000
vn -0.000000 1.000000 0.000000
vn 0.000000 1.000000 0.000000
vn 0.000000 1.000000 0.000000
vn 0.000000 1.000000 0.000000
vn 0.000000 1.000000 0.000000
vn 0.000000 1.000000 -0.000000
vn 0.690981 -0.722873 0.000000
vn 0.690981 -0.722873 0.000000
vn 0.690981 -0.722873 0.000000
vn 0.690981 -0.722873 0.000000
vn 0.690981 -0.722873 0.000000
vn 0.690981 -0.722873 0.000000
vn 0.707107 0.707107 0.000000
vn 0.707107 0.707107 0.000000
vn 0.707107 0.707107 -0.000000
vn 0.707107 0.707107 0.000000
vn 0.707107 0.707107 0.000000
vn 0.707107 0.707107 -0.000000
vn 0.735545 -0.677476 0.000000
vn 0.735545 -0.677476 0.000000
vn 0.735545 -0.677476 0.000000
vn 0.735545 -0.677476 0.000000
vn 0.735545 -0.677476 0.000000
vn 0.735545 -0.677476 0.000000
vn -0.000000 -1.000000 -0.000000
vn 0.000000 -1.000000 0.000000
vn 0.000000 -1.000000 0.000000
vn 0.000000 -1.000000 0.000000
vn 0.000000 -1.000000 0.000000
vn 0.000000 -1.000000 0.000000
vn -0.999989 0.004739 0.000000
vn -0.999989 0.004739 0.000000
vn -0.999989 0.004739 0.000000
vn -0.999989 0.004739 0.000000
vn -0.999989 0.004739 0.000000
vn -0.999989 0.004739 0.000000

f 8//1 9//2 7//3
f 7//4 9//5 12//6
f 12//7 9//8 11//9
f 9//10 10//11 11//12
f 2//13 1//14 3//15
f 1//16 6//17 3//18
f 6//19 5//20 3//21
f 5//22 4//23 3//24
f 1//25 2//26 7//27
f 7//28 2//29 8//30
f 2//31 3//32 8//33
f 8//34 3//35 9//36
f 3//37 4//38 9//39
f 9//40 4//41 10//42
f 4//43 5//44 10//45
f 10//46 5//47 11//48
f 5//49 6//50 11//51
f 11//52 6//53 12//54
f 6//55 1//56 12//57
f 12//58 1//59 7//60

