# This file uses centimeters as units for non-parametric coordinates.

mtllib cyl-std2-new.mtl
g default
v 1.097510 -0.000000 -1.097510
v 0.000000 -0.000000 -1.552114
v -1.097510 -0.000000 -1.097510
v -1.552114 -0.000000 0.000000
v -1.097510 -0.000000 1.097510
v 0.000000 -0.000000 1.552114
v 1.097510 -0.000000 1.097510
v 1.552114 -0.000000 0.000000
v 1.097510 6.213316 -1.097510
v 0.000000 6.213316 -1.552114
v -1.097510 6.213316 -1.097510
v -1.552114 6.213316 0.000000
v -1.097510 6.213316 1.097510
v 0.000000 6.213316 1.552114
v 1.097510 6.213316 1.097510
v 1.552114 6.213316 0.000000
v 0.000000 -0.000000 0.000000
v 0.000000 6.213316 0.000000
vt 0.610485 0.045765
vt 0.500000 0.000000
vt 0.389515 0.045765
vt 0.343750 0.156250
vt 0.389515 0.266735
vt 0.500000 0.312500
vt 0.610485 0.266735
vt 0.656250 0.156250
vt 0.375000 0.312500
vt 0.406250 0.312500
vt 0.437500 0.312500
vt 0.468750 0.312500
vt 0.500000 0.312500
vt 0.531250 0.312500
vt 0.562500 0.312500
vt 0.593750 0.312500
vt 0.625000 0.312500
vt 0.375000 0.688440
vt 0.406250 0.688440
vt 0.437500 0.688440
vt 0.468750 0.688440
vt 0.500000 0.688440
vt 0.531250 0.688440
vt 0.562500 0.688440
vt 0.593750 0.688440
vt 0.625000 0.688440
vt 0.610485 0.733265
vt 0.500000 0.687500
vt 0.389515 0.733265
vt 0.343750 0.843750
vt 0.389515 0.954235
vt 0.500000 1.000000
vt 0.610485 0.954235
vt 0.656250 0.843750
vt 0.500000 0.150000
vt 0.500000 0.837500
vn 0.382683 0.000000 -0.923880
vn 0.382683 0.000000 -0.923880
vn 0.382683 0.000000 -0.923880
vn 0.382684 0.000000 -0.923880
vn -0.382684 0.000000 -0.923880
vn -0.382683 0.000000 -0.923880
vn -0.382683 0.000000 -0.923880
vn -0.382683 0.000000 -0.923880
vn -0.923880 0.000000 -0.382683
vn -0.923880 0.000000 -0.382683
vn -0.923880 0.000000 -0.382683
vn -0.923880 0.000000 -0.382683
vn -0.923880 0.000000 0.382683
vn -0.923880 0.000000 0.382683
vn -0.923880 0.000000 0.382683
vn -0.923880 0.000000 0.382683
vn -0.382684 0.000000 0.923880
vn -0.382684 0.000000 0.923880
vn -0.382684 0.000000 0.923880
vn -0.382684 0.000000 0.923880
vn 0.382683 0.000000 0.923880
vn 0.382683 0.000000 0.923880
vn 0.382683 0.000000 0.923880
vn 0.382683 0.000000 0.923880
vn 0.923880 0.000000 0.382683
vn 0.923880 0.000000 0.382683
vn 0.923880 0.000000 0.382683
vn 0.923880 0.000000 0.382683
vn 0.923879 0.000000 -0.382684
vn 0.923879 0.000000 -0.382684
vn 0.923879 0.000000 -0.382684
vn 0.923879 0.000000 -0.382684
vn 0.000000 -1.000000 0.000000
vn 0.000000 -1.000000 -0.000000
vn 0.000000 -1.000000 -0.000000
vn 0.000000 -1.000000 0.000000
vn 0.000000 -1.000000 0.000000
vn 0.000000 -1.000000 0.000000
vn 0.000000 -1.000000 0.000000
vn 0.000000 -1.000000 0.000000
vn 0.000000 -1.000000 -0.000000
vn 0.000000 1.000000 -0.000000
vn 0.000000 1.000000 0.000000
vn 0.000000 1.000000 -0.000000
vn 0.000000 1.000000 0.000000
vn 0.000000 1.000000 0.000000
vn 0.000000 1.000000 0.000000
vn 0.000000 1.000000 0.000000
vn 0.000000 1.000000 0.000000
vn 0.000000 1.000000 -0.000000
s 1
g pCylinder1
usemtl initialShadingGroup
f 1/9/1 2/10/2 9/18/3
f 9/18/3 2/10/2 10/19/4
s 2
f 2/10/5 3/11/6 10/19/7
f 10/19/7 3/11/6 11/20/8
s 3
f 3/11/9 4/12/10 11/20/11
f 11/20/11 4/12/10 12/21/12
s 4
f 4/12/13 5/13/14 12/21/15
f 12/21/15 5/13/14 13/22/16
s 5
f 5/13/17 6/14/18 13/22/19
f 13/22/19 6/14/18 14/23/20
s 6
f 6/14/21 7/15/22 14/23/23
f 14/23/23 7/15/22 15/24/24
s 7
f 7/15/25 8/16/26 15/24/27
f 15/24/27 8/16/26 16/25/28
s 8
f 8/16/29 1/17/30 16/25/31
f 16/25/31 1/17/30 9/26/32
s 9
f 2/2/33 1/1/34 17/35/35
f 3/3/36 2/2/33 17/35/35
f 4/4/37 3/3/36 17/35/35
f 5/5/38 4/4/37 17/35/35
f 6/6/39 5/5/38 17/35/35
f 7/7/40 6/6/39 17/35/35
f 8/8/41 7/7/40 17/35/35
f 1/1/34 8/8/41 17/35/35
s 10
f 9/33/42 10/32/43 18/36/44
f 10/32/43 11/31/45 18/36/44
f 11/31/45 12/30/46 18/36/44
f 12/30/46 13/29/47 18/36/44
f 13/29/47 14/28/48 18/36/44
f 14/28/48 15/27/49 18/36/44
f 15/27/49 16/34/50 18/36/44
f 16/34/50 9/33/42 18/36/44
