# This file uses centimeters as units for non-parametric coordinates.

v -9.261443 -28.956783 -0.327097
v -10.352991 -25.361094 -0.327097
v -9.518278 -25.104259 -0.327097
v -9.068817 -26.773685 -0.327097
v -3.354240 -25.232677 -0.327097
v -3.932119 -22.921164 -0.327097
v -2.840571 -22.535910 -0.327097
v -1.620605 -27.223146 -0.327097
v -2.712153 -28.057861 -0.327097
v -3.097406 -26.645269 -0.327097
v -8.811982 -27.993652 -0.327097
v -7.784643 -30.369375 -0.327097
v -9.582487 -31.011461 -0.327097
v -9.261443 -28.956783 0.204818
v -10.352991 -25.361094 0.204818
v -9.518278 -25.104259 0.204818
v -9.068817 -26.773685 0.204818
v -3.354240 -25.232677 0.204818
v -3.932119 -22.921164 0.204818
v -2.840571 -22.535910 0.204818
v -1.620605 -27.223146 0.204818
v -2.712153 -28.057861 0.204818
v -3.097406 -26.645269 0.204818
v -8.811982 -27.993652 0.204818
v -7.784643 -30.369375 0.204818
v -9.582487 -31.011461 0.204818
vt 0.000000 0.000000
vt 0.210118 0.101428
vt 0.010340 0.213934
vt 0.298867 0.181068
vt 0.631709 0.101428
vt 0.093181 0.833826
vt 0.257386 0.838503
vt 0.147218 0.978213
vt 0.690178 1.000000
vt 0.632078 0.199409
vt 0.438208 0.193255
vt 0.417405 0.856967
vt 0.684392 0.870261
vt 0.000000 0.000000
vt 0.010340 0.213934
vt 0.210118 0.101428
vt 0.298867 0.181068
vt 0.631709 0.101428
vt 0.093181 0.833826
vt 0.147218 0.978213
vt 0.257386 0.838503
vt 0.690178 1.000000
vt 0.632078 0.199409
vt 0.438208 0.193255
vt 0.417405 0.856967
vt 0.684392 0.870261
vt 0.210118 0.101428
vt 0.631709 0.101428
vt 0.632078 0.199409
vt 0.438208 0.193255
vt 0.417405 0.856967
vt 0.684392 0.870261
vt 0.690178 1.000000
vt 0.147218 0.978213
vt 0.093181 0.833826
vt 0.257386 0.838503
vt 0.298867 0.181068
vt 0.010340 0.213934
vt 0.000000 0.000000
vn 0.000000 0.000000 -1.000000
vn 0.000000 0.000000 -1.000000
vn 0.000000 0.000000 -1.000000
vn 0.000000 0.000000 -1.000000
vn 0.000000 0.000000 -1.000000
vn 0.000000 0.000000 -1.000000
vn 0.000000 0.000000 -1.000000
vn 0.000000 0.000000 -1.000000
vn 0.000000 0.000000 -1.000000
vn -0.000000 0.000000 -1.000000
vn -0.000000 0.000000 -1.000000
vn -0.000000 0.000000 -1.000000
vn -0.000000 0.000000 -1.000000
vn -0.000000 0.000000 -1.000000
vn -0.000000 0.000000 -1.000000
vn 0.000000 0.000000 -1.000000
vn 0.000000 0.000000 -1.000000
vn 0.000000 0.000000 -1.000000
vn 0.000000 0.000000 -1.000000
vn 0.000000 0.000000 -1.000000
vn 0.000000 0.000000 -1.000000
vn 0.000000 0.000000 -1.000000
vn 0.000000 0.000000 -1.000000
vn -0.000000 0.000000 -1.000000
vn 0.000000 0.000000 -1.000000
vn 0.000000 0.000000 -1.000000
vn -0.000000 0.000000 -1.000000
vn -0.000000 0.000000 -1.000000
vn 0.000000 0.000000 -1.000000
vn -0.000000 0.000000 -1.000000
vn 0.000000 0.000000 -1.000000
vn 0.000000 0.000000 -1.000000
vn -0.000000 0.000000 -1.000000
vn 0.000000 0.000000 1.000000
vn 0.000000 0.000000 1.000000
vn 0.000000 0.000000 1.000000
vn 0.000000 0.000000 1.000000
vn 0.000000 0.000000 1.000000
vn 0.000000 0.000000 1.000000
vn 0.000000 0.000000 1.000000
vn 0.000000 0.000000 1.000000
vn 0.000000 0.000000 1.000000
vn 0.000000 0.000000 1.000000
vn 0.000000 0.000000 1.000000
vn 0.000000 0.000000 1.000000
vn 0.000000 0.000000 1.000000
vn 0.000000 0.000000 1.000000
vn 0.000000 0.000000 1.000000
vn 0.000000 0.000000 1.000000
vn 0.000000 0.000000 1.000000
vn 0.000000 0.000000 1.000000
vn 0.000000 0.000000 1.000000
vn 0.000000 0.000000 1.000000
vn 0.000000 0.000000 1.000000
vn 0.000000 0.000000 1.000000
vn 0.000000 0.000000 1.000000
vn 0.000000 0.000000 1.000000
vn 0.000000 0.000000 1.000000
vn 0.000000 0.000000 1.000000
vn 0.000000 0.000000 1.000000
vn 0.000000 0.000000 1.000000
vn 0.000000 0.000000 1.000000
vn 0.000000 0.000000 1.000000
vn 0.000000 0.000000 1.000000
vn 0.000000 0.000000 1.000000
vn 0.000000 0.000000 1.000000
vn 0.999981 -0.006230 0.000000
vn 0.956881 0.290481 0.000000
vn 0.989366 0.145446 0.000000
vn 0.989366 0.145446 0.000000
vn 0.956881 0.290481 0.000000
vn 0.956881 0.290482 0.000000
vn 0.294085 -0.955779 0.000000
vn 0.294085 -0.955779 0.000000
vn 0.294085 -0.955779 0.000000
vn 0.294085 -0.955779 0.000000
vn 0.294085 -0.955779 0.000000
vn 0.294085 -0.955779 0.000000
vn -0.965616 -0.259973 0.000000
vn -0.965616 -0.259974 0.000000
vn -0.965616 -0.259974 0.000000
vn -0.965616 -0.259974 0.000000
vn -0.965616 -0.259974 0.000000
vn -0.965616 -0.259974 0.000000
vn 0.260362 -0.965511 0.000000
vn 0.260362 -0.965511 0.000000
vn 0.260362 -0.965511 0.000000
vn 0.260362 -0.965511 0.000000
vn 0.260362 -0.965511 0.000000
vn 0.260362 -0.965511 0.000000
vn 0.970142 0.242536 0.000000
vn 0.970142 0.242536 0.000000
vn 0.970142 0.242536 0.000000
vn 0.970142 0.242536 0.000000
vn 0.970142 0.242536 0.000000
vn 0.970142 0.242536 0.000000
vn 0.332821 -0.942990 0.000000
vn 0.332821 -0.942990 0.000000
vn 0.332821 -0.942990 0.000000
vn 0.332821 -0.942990 0.000000
vn 0.332821 -0.942990 0.000000
vn 0.332821 -0.942990 0.000000
vn -0.967758 -0.251882 0.000000
vn -0.967758 -0.251882 0.000000
vn -0.967758 -0.251882 0.000000
vn -0.967758 -0.251882 0.000000
vn -0.967758 -0.251882 0.000000
vn -0.967758 -0.251882 0.000000
vn -0.607451 0.794357 0.000000
vn -0.607451 0.794357 0.000000
vn -0.607451 0.794357 0.000000
vn -0.607451 0.794357 0.000000
vn -0.607451 0.794357 0.000000
vn -0.607451 0.794357 0.000000
vn 0.964764 0.263117 0.000000
vn 0.964764 0.263118 0.000000
vn 0.964764 0.263118 0.000000
vn 0.964764 0.263118 0.000000
vn 0.964764 0.263118 0.000000
vn 0.964764 0.263118 0.000000
vn -0.229649 0.973274 0.000000
vn -0.229649 0.973274 0.000000
vn -0.229649 0.973274 0.000000
vn -0.229649 0.973274 0.000000
vn -0.229649 0.973274 0.000000
vn -0.229649 0.973274 0.000000
vn -0.917857 -0.396911 0.000000
vn -0.917857 -0.396911 0.000000
vn -0.917857 -0.396911 0.000000
vn -0.917857 -0.396911 0.000000
vn -0.917857 -0.396911 0.000000
vn -0.917857 -0.396911 0.000000
vn -0.336336 0.941742 0.000000
vn -0.336336 0.941742 0.000000
vn -0.336336 0.941742 0.000000
vn -0.336336 0.941742 0.000000
vn -0.336336 0.941742 0.000000
vn -0.336336 0.941742 0.000000
vn 0.988012 -0.154378 0.000000
vn 0.999981 -0.006230 0.000000
vn 0.988012 -0.154377 0.000000
vn 0.988012 -0.154377 0.000000
vn 0.999981 -0.006230 0.000000
vn 0.989366 0.145446 0.000000
f 26/1/1 14/2/2 25/3/3
f 25/3/4 14/2/5 24/4/6
f 14/2/7 15/5/8 24/4/9
f 22/6/10 23/7/11 21/8/12
f 21/8/13 23/7/14 20/9/15
f 15/5/16 16/10/17 24/4/18
f 16/10/19 17/11/20 24/4/21
f 24/4/22 17/11/23 23/7/24
f 17/11/25 18/12/26 23/7/27
f 23/7/28 18/12/29 20/9/30
f 18/12/31 19/13/32 20/9/33
f 13/14/34 12/15/35 1/16/36
f 12/15/37 11/17/38 1/16/39
f 1/16/40 11/17/41 2/18/42
f 9/19/43 8/20/44 10/21/45
f 8/20/46 7/22/47 10/21/48
f 2/18/49 11/17/50 3/23/51
f 3/23/52 11/17/53 4/24/54
f 11/17/55 10/21/56 4/24/57
f 4/24/58 10/21/59 5/25/60
f 10/21/61 7/22/62 5/25/63
f 7/22/64 6/26/65 5/25/66
f 1/27/67 2/28/68 14/2/69
f 14/2/70 2/28/71 15/5/72
f 2/28/73 3/29/74 15/5/75
f 15/5/76 3/29/77 16/10/78
f 3/29/79 4/30/80 16/10/81
f 16/10/82 4/30/83 17/11/84
f 4/30/85 5/31/86 17/11/87
f 17/11/88 5/31/89 18/12/90
f 5/31/91 6/32/92 18/12/93
f 18/12/94 6/32/95 19/13/96
f 6/32/97 7/33/98 19/13/99
f 19/13/100 7/33/101 20/9/102
f 7/33/103 8/34/104 20/9/105
f 20/9/106 8/34/107 21/8/108
f 8/34/109 9/35/110 21/8/111
f 21/8/112 9/35/113 22/6/114
f 9/35/115 10/36/116 22/6/117
f 22/6/118 10/36/119 23/7/120
f 10/36/121 11/37/122 23/7/123
f 23/7/124 11/37/125 24/4/126
f 11/37/127 12/38/128 24/4/129
f 24/4/130 12/38/131 25/3/132
f 12/38/133 13/39/134 25/3/135
f 25/3/136 13/39/137 26/1/138
f 13/39/139 1/27/140 26/1/141
f 26/1/142 1/27/143 14/2/144
