# This file uses centimeters as units for non-parametric coordinates.

v -12.349444 -43.598808 -0.327097
v -12.423880 -42.780025 -0.327097
v -12.423880 -41.216892 -0.327097
v -11.307357 -39.579327 -0.327097
v -8.851008 -38.388371 -0.327097
v -6.766833 -39.504890 -0.327097
v -5.501441 -41.142456 -0.327097
v -5.352572 -43.524372 -0.327097
v -6.841268 -43.524372 -0.327097
v -6.841268 -42.110111 -0.327097
v -7.362312 -40.621414 -0.327097
v -8.925443 -39.951500 -0.327097
v -10.860748 -40.844719 -0.327097
v -10.860748 -42.556721 -0.327097
v -10.860748 -43.896545 -0.327097
v -12.349444 -43.598808 0.204818
v -12.423880 -42.780025 0.204818
v -12.423880 -41.216892 0.204818
v -11.307357 -39.579327 0.204818
v -8.851008 -38.388371 0.204818
v -6.766833 -39.504890 0.204818
v -5.501441 -41.142456 0.204818
v -5.352572 -43.524372 0.204818
v -6.841268 -43.524372 0.204818
v -6.841268 -42.110111 0.204818
v -7.362312 -40.621414 0.204818
v -8.925443 -39.951500 0.204818
v -10.860748 -40.844719 0.204818
v -10.860748 -42.556721 0.204818
v -10.860748 -43.896545 0.204818
vt 0.018182 0.206699
vt 0.079426 0.000000
vt 0.207656 0.223923
vt 0.196173 0.000000
vt 0.417225 0.020096
vt 0.449761 0.245933
vt 0.634450 0.199043
vt 0.551196 0.531101
vt 0.771292 0.561723
vt 0.586603 0.842105
vt 0.436364 0.743541
vt 0.338756 1.000000
vt 0.219139 0.798086
vt 0.000000 0.990430
vt 0.019139 0.779904
vt 0.018182 0.206699
vt 0.207656 0.223923
vt 0.079426 0.000000
vt 0.196173 0.000000
vt 0.417225 0.020096
vt 0.449761 0.245933
vt 0.634450 0.199043
vt 0.551196 0.531101
vt 0.771292 0.561723
vt 0.586603 0.842105
vt 0.436364 0.743541
vt 0.338756 1.000000
vt 0.219139 0.798086
vt 0.000000 0.990430
vt 0.019139 0.779904
vt 0.079426 0.000000
vt 0.196173 0.000000
vt 0.417225 0.020096
vt 0.634450 0.199043
vt 0.771292 0.561723
vt 0.586603 0.842105
vt 0.338756 1.000000
vt 0.000000 0.990430
vt 0.019139 0.779904
vt 0.219139 0.798086
vt 0.436364 0.743541
vt 0.551196 0.531101
vt 0.449761 0.245933
vt 0.207656 0.223923
vt 0.018182 0.206699
vn 0.000000 0.000000 -1.000000
vn 0.000000 0.000000 -1.000000
vn -0.000000 0.000000 -1.000000
vn 0.000000 0.000000 -1.000000
vn -0.000000 0.000000 -1.000000
vn -0.000000 0.000000 -1.000000
vn -0.000000 0.000000 -1.000000
vn -0.000000 0.000000 -1.000000
vn -0.000000 0.000000 -1.000000
vn -0.000000 0.000000 -1.000000
vn -0.000000 0.000000 -1.000000
vn 0.000000 0.000000 -1.000000
vn -0.000000 0.000000 -1.000000
vn 0.000000 0.000000 -1.000000
vn 0.000000 0.000000 -1.000000
vn 0.000000 0.000000 -1.000000
vn 0.000000 0.000000 -1.000000
vn 0.000000 0.000000 -1.000000
vn 0.000000 0.000000 -1.000000
vn 0.000000 0.000000 -1.000000
vn 0.000000 0.000000 -1.000000
vn 0.000000 0.000000 -1.000000
vn 0.000000 0.000000 -1.000000
vn 0.000000 0.000000 -1.000000
vn 0.000000 0.000000 -1.000000
vn 0.000000 0.000000 -1.000000
vn -0.000000 0.000000 -1.000000
vn 0.000000 0.000000 -1.000000
vn 0.000000 0.000000 -1.000000
vn -0.000000 0.000000 -1.000000
vn -0.000000 0.000000 -1.000000
vn 0.000000 0.000000 -1.000000
vn 0.000000 0.000000 -1.000000
vn 0.000000 0.000000 -1.000000
vn 0.000000 0.000000 -1.000000
vn 0.000000 0.000000 -1.000000
vn 0.000000 0.000000 -1.000000
vn 0.000000 0.000000 -1.000000
vn 0.000000 0.000000 -1.000000
vn 0.000000 0.000000 1.000000
vn 0.000000 0.000000 1.000000
vn 0.000000 0.000000 1.000000
vn 0.000000 0.000000 1.000000
vn 0.000000 0.000000 1.000000
vn 0.000000 0.000000 1.000000
vn 0.000000 0.000000 1.000000
vn 0.000000 0.000000 1.000000
vn 0.000000 0.000000 1.000000
vn 0.000000 0.000000 1.000000
vn 0.000000 0.000000 1.000000
vn 0.000000 0.000000 1.000000
vn 0.000000 0.000000 1.000000
vn 0.000000 0.000000 1.000000
vn 0.000000 0.000000 1.000000
vn 0.000000 0.000000 1.000000
vn 0.000000 0.000000 1.000000
vn 0.000000 0.000000 1.000000
vn 0.000000 0.000000 1.000000
vn 0.000000 0.000000 1.000000
vn 0.000000 0.000000 1.000000
vn 0.000000 0.000000 1.000000
vn 0.000000 0.000000 1.000000
vn 0.000000 0.000000 1.000000
vn 0.000000 0.000000 1.000000
vn 0.000000 0.000000 1.000000
vn 0.000000 0.000000 1.000000
vn 0.000000 0.000000 1.000000
vn 0.000000 0.000000 1.000000
vn 0.000000 0.000000 1.000000
vn 0.000000 0.000000 1.000000
vn 0.000000 0.000000 1.000000
vn 0.000000 0.000000 1.000000
vn 0.000000 0.000000 1.000000
vn 0.000000 0.000000 1.000000
vn 0.000000 0.000000 1.000000
vn 0.000000 0.000000 1.000000
vn 0.000000 0.000000 1.000000
vn 0.000000 0.000000 1.000000
vn 0.995893 0.090535 0.000000
vn 0.998174 0.060413 0.000000
vn 0.995893 0.090536 0.000000
vn 0.995893 0.090536 0.000000
vn 0.998174 0.060413 0.000000
vn 0.999544 0.030207 0.000000
vn 0.998174 0.060413 0.000000
vn 1.000000 0.000000 0.000000
vn 0.999544 0.030207 0.000000
vn 0.999544 0.030207 0.000000
vn 1.000000 0.000000 0.000000
vn 1.000000 0.000000 0.000000
vn 0.826227 -0.563337 0.000000
vn 0.717719 -0.696333 0.000000
vn 0.826227 -0.563337 0.000000
vn 0.826227 -0.563337 0.000000
vn 0.717719 -0.696333 0.000000
vn 0.583725 -0.811952 0.000000
vn 0.717719 -0.696333 0.000000
vn 0.436273 -0.899814 0.000000
vn 0.583725 -0.811952 0.000000
vn 0.583725 -0.811952 0.000000
vn 0.436273 -0.899814 0.000000
vn 0.436273 -0.899814 0.000000
vn -0.472221 -0.881480 0.000000
vn -0.590145 -0.807297 0.000000
vn -0.472221 -0.881480 0.000000
vn -0.472221 -0.881480 0.000000
vn -0.590145 -0.807297 0.000000
vn -0.698627 -0.715486 0.000000
vn -0.590145 -0.807297 0.000000
vn -0.791285 -0.611448 0.000000
vn -0.698627 -0.715486 0.000000
vn -0.698627 -0.715486 0.000000
vn -0.791285 -0.611448 0.000000
vn -0.791285 -0.611448 0.000000
vn -0.998053 -0.062378 0.000000
vn -0.998053 -0.062378 0.000000
vn -0.998053 -0.062378 0.000000
vn -0.998053 -0.062378 0.000000
vn -0.998053 -0.062378 0.000000
vn -0.998053 -0.062378 0.000000
vn 0.000000 1.000000 0.000000
vn 0.000000 1.000000 0.000000
vn 0.000000 1.000000 0.000000
vn 0.000000 1.000000 0.000000
vn 0.000000 1.000000 0.000000
vn 0.000000 1.000000 0.000000
vn 1.000000 0.000000 0.000000
vn 0.993763 0.111517 0.000000
vn 1.000000 0.000000 0.000000
vn 1.000000 0.000000 0.000000
vn 0.993763 0.111517 0.000000
vn 0.974811 0.223034 0.000000
vn 0.993763 0.111517 0.000000
vn 0.943859 0.330350 0.000000
vn 0.974811 0.223034 0.000000
vn 0.974811 0.223034 0.000000
vn 0.943859 0.330350 0.000000
vn 0.943859 0.330350 0.000000
vn 0.393920 0.919145 0.000000
vn 0.393920 0.919145 0.000000
vn 0.393920 0.919145 0.000000
vn 0.393920 0.919145 0.000000
vn 0.393920 0.919145 0.000000
vn 0.393920 0.919145 0.000000
vn -0.419059 0.907959 0.000000
vn -0.419059 0.907959 0.000000
vn -0.419059 0.907959 0.000000
vn -0.419059 0.907959 0.000000
vn -0.419059 0.907959 0.000000
vn -0.419059 0.907959 0.000000
vn -1.000000 0.000000 0.000000
vn -1.000000 0.000000 0.000000
vn -1.000000 0.000000 0.000000
vn -1.000000 0.000000 0.000000
vn -1.000000 0.000000 0.000000
vn -1.000000 0.000000 0.000000
vn -1.000000 0.000000 0.000000
vn -1.000000 0.000000 0.000000
vn -1.000000 0.000000 0.000000
vn -1.000000 0.000000 0.000000
vn -1.000000 0.000000 0.000000
vn -1.000000 0.000000 0.000000
vn 0.196115 0.980581 0.000000
vn 0.196115 0.980581 0.000000
vn 0.196115 0.980581 0.000000
vn 0.196115 0.980581 0.000000
vn 0.196115 0.980581 0.000000
vn 0.196115 0.980581 0.000000
f 30/1/1 16/2/2 29/3/3
f 16/2/4 17/4/5 29/3/6
f 17/4/7 18/5/8 29/3/9
f 29/3/10 18/5/11 28/6/12
f 18/5/13 19/7/14 28/6/15
f 28/6/16 19/7/17 27/8/18
f 19/7/19 20/9/20 27/8/21
f 20/9/22 21/10/23 27/8/24
f 27/8/25 21/10/26 26/11/27
f 21/10/28 22/12/29 26/11/30
f 26/11/31 22/12/32 25/13/33
f 22/12/34 23/14/35 25/13/36
f 23/14/37 24/15/38 25/13/39
f 15/16/40 14/17/41 1/18/42
f 1/18/43 14/17/44 2/19/45
f 2/19/46 14/17/47 3/20/48
f 14/17/49 13/21/50 3/20/51
f 3/20/52 13/21/53 4/22/54
f 13/21/55 12/23/56 4/22/57
f 4/22/58 12/23/59 5/24/60
f 5/24/61 12/23/62 6/25/63
f 12/23/64 11/26/65 6/25/66
f 6/25/67 11/26/68 7/27/69
f 11/26/70 10/28/71 7/27/72
f 7/27/73 10/28/74 8/29/75
f 10/28/76 9/30/77 8/29/78
f 1/31/79 2/32/80 16/2/81
f 16/2/82 2/32/83 17/4/84
f 2/32/85 3/33/86 17/4/87
f 17/4/88 3/33/89 18/5/90
f 3/33/91 4/34/92 18/5/93
f 18/5/94 4/34/95 19/7/96
f 4/34/97 5/35/98 19/7/99
f 19/7/100 5/35/101 20/9/102
f 5/35/103 6/36/104 20/9/105
f 20/9/106 6/36/107 21/10/108
f 6/36/109 7/37/110 21/10/111
f 21/10/112 7/37/113 22/12/114
f 7/37/115 8/38/116 22/12/117
f 22/12/118 8/38/119 23/14/120
f 8/38/121 9/39/122 23/14/123
f 23/14/124 9/39/125 24/15/126
f 9/39/127 10/40/128 24/15/129
f 24/15/130 10/40/131 25/13/132
f 10/40/133 11/41/134 25/13/135
f 25/13/136 11/41/137 26/11/138
f 11/41/139 12/42/140 26/11/141
f 26/11/142 12/42/143 27/8/144
f 12/42/145 13/43/146 27/8/147
f 27/8/148 13/43/149 28/6/150
f 13/43/151 14/44/152 28/6/153
f 28/6/154 14/44/155 29/3/156
f 14/44/157 15/45/158 29/3/159
f 29/3/160 15/45/161 30/1/162
f 15/45/163 1/31/164 30/1/165
f 30/1/166 1/31/167 16/2/168
