# This file uses centimeters as units for non-parametric coordinates.

v -2.950568 -30.045441 -0.327097
v 4.686185 -28.136251 -0.327097
v 4.686185 -30.045441 -0.327097
v -2.803707 -31.954628 -0.327097
v -2.950568 -30.045441 0.204818
v 4.686185 -28.136251 0.204818
v 4.686185 -30.045441 0.204818
v -2.803707 -31.954628 0.204818
vt 1.000000 0.000000
vt 0.943478 0.226087
vt 0.039130 0.000000
vt 0.000000 0.230435
vt 0.000000 0.230435
vt 0.943478 0.226087
vt 0.039130 0.000000
vt 1.000000 0.000000
vt 0.039130 0.000000
vt 1.000000 0.000000
vt 0.943478 0.226087
vt 0.000000 0.230435
vn 0.000000 0.000000 -1.000000
vn 0.000000 0.000000 -1.000000
vn 0.000000 0.000000 -1.000000
vn 0.000000 0.000000 -1.000000
vn 0.000000 0.000000 -1.000000
vn 0.000000 0.000000 -1.000000
vn 0.000000 0.000000 1.000000
vn 0.000000 0.000000 1.000000
vn 0.000000 0.000000 1.000000
vn 0.000000 0.000000 1.000000
vn 0.000000 0.000000 1.000000
vn 0.000000 0.000000 1.000000
vn 0.242536 -0.970142 0.000000
vn 0.242536 -0.970142 0.000000
vn 0.242536 -0.970142 0.000000
vn 0.242536 -0.970142 0.000000
vn 0.242536 -0.970142 0.000000
vn 0.242536 -0.970142 0.000000
vn -1.000000 0.000000 0.000000
vn -1.000000 0.000000 0.000000
vn -1.000000 0.000000 0.000000
vn -1.000000 0.000000 0.000000
vn -1.000000 0.000000 0.000000
vn -1.000000 0.000000 0.000000
vn -0.247004 0.969015 0.000000
vn -0.247004 0.969015 0.000000
vn -0.247004 0.969015 0.000000
vn -0.247004 0.969015 0.000000
vn -0.247004 0.969015 0.000000
vn -0.247004 0.969015 0.000000
vn 0.997055 0.076697 0.000000
vn 0.997055 0.076696 0.000000
vn 0.997055 0.076696 0.000000
vn 0.997055 0.076696 0.000000
vn 0.997055 0.076696 0.000000
vn 0.997055 0.076696 0.000000
f 6/1/1 7/2/2 5/3/3
f 5/3/4 7/2/5 8/4/6
f 4/5/7 3/6/8 1/7/9
f 1/7/10 3/6/11 2/8/12
f 1/9/13 2/10/14 5/3/15
f 5/3/16 2/10/17 6/1/18
f 2/10/19 3/11/20 6/1/21
f 6/1/22 3/11/23 7/2/24
f 3/11/25 4/12/26 7/2/27
f 7/2/28 4/12/29 8/4/30
f 4/12/31 1/9/32 8/4/33
f 8/4/34 1/9/35 5/3/36
