# This file uses centimeters as units for non-parametric coordinates.

v 2.524268 -25.816021 -0.301936
v 1.609637 -23.494265 -0.301936
v 3.649969 -23.001770 -0.301936
v 6.675290 -25.534597 -0.301936
v 2.524268 -25.816021 0.229979
v 1.609637 -23.494265 0.229979
v 3.649969 -23.001770 0.229979
v 6.675290 -25.534597 0.229979
vt 0.946974 0.000000
vt 0.873937 0.524262
vt 0.317659 0.000000
vt 0.000000 1.000000
vt 0.000000 1.000000
vt 0.873937 0.524262
vt 0.317659 0.000000
vt 0.946974 0.000000
vt 0.317659 0.000000
vt 0.946974 0.000000
vt 0.873937 0.524262
vt 0.000000 1.000000
vn 0.000000 0.000000 -1.000000
vn 0.000000 0.000000 -1.000000
vn 0.000000 0.000000 -1.000000
vn 0.000000 0.000000 -1.000000
vn 0.000000 0.000000 -1.000000
vn -0.000000 0.000000 -1.000000
vn 0.000000 0.000000 1.000000
vn 0.000000 0.000000 1.000000
vn 0.000000 0.000000 1.000000
vn 0.000000 0.000000 1.000000
vn 0.000000 0.000000 1.000000
vn 0.000000 0.000000 1.000000
vn 0.930408 0.366525 0.000000
vn 0.930408 0.366525 0.000000
vn 0.930408 0.366525 0.000000
vn 0.930408 0.366525 0.000000
vn 0.930408 0.366525 0.000000
vn 0.930408 0.366525 0.000000
vn 0.234641 -0.972082 0.000000
vn 0.234641 -0.972082 0.000000
vn 0.234641 -0.972082 0.000000
vn 0.234641 -0.972082 0.000000
vn 0.234641 -0.972082 0.000000
vn 0.234641 -0.972082 0.000000
vn -0.641937 -0.766758 0.000000
vn -0.641937 -0.766758 0.000000
vn -0.641937 -0.766758 0.000000
vn -0.641937 -0.766758 0.000000
vn -0.641937 -0.766758 0.000000
vn -0.641937 -0.766758 0.000000
vn -0.067641 0.997710 0.000000
vn -0.067641 0.997710 0.000000
vn -0.067641 0.997710 0.000000
vn -0.067641 0.997710 0.000000
vn -0.067641 0.997710 0.000000
vn -0.067641 0.997710 0.000000
f 6/1/1 7/2/2 5/3/3
f 5/3/4 7/2/5 8/4/6
f 4/5/7 3/6/8 1/7/9
f 1/7/10 3/6/11 2/8/12
f 1/9/13 2/10/14 5/3/15
f 5/3/16 2/10/17 6/1/18
f 2/10/19 3/11/20 6/1/21
f 6/1/22 3/11/23 7/2/24
f 3/11/25 4/12/26 7/2/27
f 7/2/28 4/12/29 8/4/30
f 4/12/31 1/9/32 8/4/33
f 8/4/34 1/9/35 5/3/36
