# This file uses centimeters as units for non-parametric coordinates.

mtllib intermediate.mtl
g default
v 3.044969 -4.228679 -0.375106
v 10.927732 5.893505 -0.375106
v 9.136195 5.893505 -0.375106
v 0.984702 -4.228679 -0.375106
v 3.044969 -4.228679 0.199357
v 10.927732 5.893505 0.199357
v 9.136195 5.893505 0.199357
v 0.984702 -4.228679 0.199357
v -6.002293 -4.497409 -0.375106
v -6.091869 2.937469 -0.375106
v -8.152137 2.937469 -0.375106
v -8.062560 -4.139102 -0.375106
v -6.002293 -4.497409 0.199357
v -6.091869 2.937469 0.199357
v -8.152137 2.937469 0.199357
v -8.062560 -4.139102 0.199357
v 6.986351 9.028694 0.187553
v 0.088933 -0.018567 0.187553
v -1.971334 -0.108144 0.187553
v 4.746929 9.118271 0.187553
v 6.986351 9.028694 -0.386910
v 0.088933 -0.018567 -0.386910
v -1.971334 -0.108144 -0.386910
v 4.746929 9.118271 -0.386910
v -8.062560 7.685042 0.187553
v 4.030314 7.774619 0.187553
v 2.776239 5.803928 0.187553
v -8.600021 5.803928 0.187553
v -8.062560 7.685042 -0.386910
v 4.030314 7.774619 -0.386910
v 2.776239 5.803928 -0.386910
v -8.600021 5.803928 -0.386910
vt 0.089808 0.000000
vt 1.000000 0.000000
vt 0.921906 0.100280
vt 0.000000 0.115321
vt 0.089808 0.000000
vt 1.000000 0.000000
vt 0.921906 0.100280
vt 0.000000 0.115321
vt 0.089808 0.000000
vt 1.000000 0.000000
vt 0.921906 0.100280
vt 0.000000 0.115321
vt 0.000000 0.000000
vt 0.996673 0.000000
vt 1.000000 0.276146
vt 0.051353 0.275568
vt 0.000000 0.000000
vt 0.051353 0.275568
vt 1.000000 0.276146
vt 0.996673 0.000000
vt 0.000000 0.000000
vt 0.996673 0.000000
vt 1.000000 0.276146
vt 0.051353 0.275568
vt 0.000000 0.000000
vt 0.896012 0.000000
vt 1.000000 0.124764
vt 0.101322 0.144540
vt 0.000000 0.000000
vt 0.101322 0.144540
vt 1.000000 0.124764
vt 0.896012 0.000000
vt 0.000000 0.000000
vt 0.896012 0.000000
vt 1.000000 0.124764
vt 0.101322 0.144540
vt 0.057431 0.000000
vt 1.000000 0.000000
vt 0.871806 0.132211
vt 0.000000 0.187420
vt 0.057431 0.000000
vt 0.000000 0.187420
vt 0.871806 0.132211
vt 1.000000 0.000000
vt 0.057431 0.000000
vt 1.000000 0.000000
vt 0.871806 0.132211
vt 0.000000 0.187420
vn 0.000000 0.000000 1.000000
vn 0.000000 0.000000 1.000000
vn 0.000000 0.000000 1.000000
vn 0.000000 0.000000 1.000000
vn 0.000000 0.000000 -1.000000
vn 0.000000 0.000000 -1.000000
vn 0.000000 0.000000 -1.000000
vn 0.000000 0.000000 -1.000000
vn 0.788976 -0.614424 0.000000
vn 0.788976 -0.614424 0.000000
vn 0.788976 -0.614424 0.000000
vn 0.788976 -0.614424 0.000000
vn 0.000000 1.000000 0.000000
vn 0.000000 1.000000 0.000000
vn 0.000000 1.000000 0.000000
vn 0.000000 1.000000 0.000000
vn -0.778848 0.627213 0.000000
vn -0.778848 0.627213 0.000000
vn -0.778848 0.627213 0.000000
vn -0.778848 0.627213 0.000000
vn 0.000000 -1.000000 0.000000
vn 0.000000 -1.000000 0.000000
vn 0.000000 -1.000000 0.000000
vn 0.000000 -1.000000 0.000000
vn -0.000000 0.000000 1.000000
vn -0.000000 0.000000 1.000000
vn -0.000000 0.000000 1.000000
vn 0.000000 0.000000 1.000000
vn 0.000000 0.000000 -1.000000
vn 0.000000 0.000000 -1.000000
vn 0.000000 0.000000 -1.000000
vn 0.000000 0.000000 -1.000000
vn 0.999928 0.012047 0.000000
vn 0.999928 0.012047 0.000000
vn 0.999928 0.012047 0.000000
vn 0.999928 0.012047 0.000000
vn 0.000000 1.000000 0.000000
vn 0.000000 1.000000 0.000000
vn 0.000000 1.000000 0.000000
vn 0.000000 1.000000 0.000000
vn -0.999920 -0.012657 0.000000
vn -0.999920 -0.012657 0.000000
vn -0.999920 -0.012657 0.000000
vn -0.999920 -0.012657 0.000000
vn -0.171341 -0.985212 0.000000
vn -0.171341 -0.985212 0.000000
vn -0.171341 -0.985212 0.000000
vn -0.171341 -0.985212 0.000000
vn 0.000000 0.000000 -1.000000
vn -0.000000 0.000000 -1.000000
vn -0.000000 0.000000 -1.000000
vn -0.000000 0.000000 -1.000000
vn 0.000000 0.000000 1.000000
vn -0.000000 0.000000 1.000000
vn -0.000000 0.000000 1.000000
vn -0.000000 0.000000 1.000000
vn 0.795251 -0.606280 0.000000
vn 0.795251 -0.606280 0.000000
vn 0.795251 -0.606280 0.000000
vn 0.795251 -0.606280 0.000000
vn 0.043437 -0.999056 0.000000
vn 0.043437 -0.999056 0.000000
vn 0.043437 -0.999056 0.000000
vn 0.043437 -0.999056 0.000000
vn -0.808397 0.588638 0.000000
vn -0.808397 0.588638 0.000000
vn -0.808397 0.588638 0.000000
vn -0.808397 0.588638 0.000000
vn 0.039968 0.999201 0.000000
vn 0.039968 0.999201 0.000000
vn 0.039968 0.999201 0.000000
vn 0.039968 0.999201 0.000000
vn -0.000000 0.000000 -1.000000
vn -0.000000 0.000000 -1.000000
vn -0.000000 0.000000 -1.000000
vn 0.000000 0.000000 -1.000000
vn 0.000000 0.000000 1.000000
vn 0.000000 0.000000 1.000000
vn 0.000000 0.000000 1.000000
vn 0.000000 0.000000 1.000000
vn -0.007407 0.999973 0.000000
vn -0.007407 0.999973 0.000000
vn -0.007407 0.999973 0.000000
vn -0.007407 0.999973 0.000000
vn 0.843662 -0.536876 0.000000
vn 0.843662 -0.536875 0.000000
vn 0.843662 -0.536875 0.000000
vn 0.843662 -0.536875 0.000000
vn 0.000000 -1.000000 0.000000
vn 0.000000 -1.000000 0.000000
vn 0.000000 -1.000000 0.000000
vn 0.000000 -1.000000 0.000000
vn -0.961524 0.274721 0.000000
vn -0.961524 0.274721 0.000000
vn -0.961524 0.274721 0.000000
vn -0.961524 0.274722 0.000000
s 1
g polySurface28
usemtl initialShadingGroup
f 6/10/1 7/11/2 5/9/3
f 5/9/3 7/11/2 8/12/4
s 2
f 4/8/5 3/7/6 1/5/7
f 1/5/7 3/7/6 2/6/8
s 3
f 1/1/9 2/2/10 5/9/11
f 5/9/11 2/2/10 6/10/12
s 4
f 2/2/13 3/3/14 6/10/15
f 6/10/15 3/3/14 7/11/16
s 5
f 3/3/17 4/4/18 7/11/19
f 7/11/19 4/4/18 8/12/20
s 6
f 4/4/21 1/1/22 8/12/23
f 8/12/23 1/1/22 5/9/24
s 7
f 13/13/25 14/14/26 16/16/27
f 16/16/27 14/14/26 15/15/28
s 8
f 9/17/29 12/18/30 10/20/31
f 10/20/31 12/18/30 11/19/32
s 9
f 9/21/33 10/22/34 13/13/35
f 13/13/35 10/22/34 14/14/36
s 10
f 10/22/37 11/23/38 14/14/39
f 14/14/39 11/23/38 15/15/40
s 11
f 11/23/41 12/24/42 15/15/43
f 15/15/43 12/24/42 16/16/44
s 12
f 12/24/45 9/21/46 16/16/47
f 16/16/47 9/21/46 13/13/48
s 13
f 21/25/49 22/26/50 24/28/51
f 24/28/51 22/26/50 23/27/52
s 14
f 17/29/53 20/30/54 18/32/55
f 18/32/55 20/30/54 19/31/56
s 15
f 17/33/57 18/34/58 21/25/59
f 21/25/59 18/34/58 22/26/60
s 16
f 18/34/61 19/35/62 22/26/63
f 22/26/63 19/35/62 23/27/64
s 17
f 19/35/65 20/36/66 23/27/67
f 23/27/67 20/36/66 24/28/68
s 18
f 20/36/69 17/33/70 24/28/71
f 24/28/71 17/33/70 21/25/72
s 19
f 30/38/73 31/39/74 29/37/75
f 29/37/75 31/39/74 32/40/76
s 20
f 28/42/77 27/43/78 25/41/79
f 25/41/79 27/43/78 26/44/80
s 21
f 25/45/81 26/46/82 29/37/83
f 29/37/83 26/46/82 30/38/84
s 22
f 26/46/85 27/47/86 30/38/87
f 30/38/87 27/47/86 31/39/88
s 23
f 27/47/89 28/48/90 31/39/91
f 31/39/91 28/48/90 32/40/92
s 24
f 28/48/93 25/45/94 32/40/95
f 32/40/95 25/45/94 29/37/96
