# Blender v2.70 (sub 0) OBJ File: ''
# www.blender.org
o IVCON.018
v 17.187092 -0.390154 2.430753
v 16.879786 -0.656438 2.430753
v 17.187092 -0.390153 -3.480000
v 16.879786 -0.656437 -3.480000
v 16.477299 -0.714307 2.430753
v 16.477299 -0.714306 -3.480000
v 16.107418 -0.545388 2.430753
v 16.107418 -0.545387 -3.480000
v 15.887580 -0.203313 2.430753
v 15.887580 -0.203312 -3.480000
v 15.887580 0.203313 2.430753
v 15.887580 0.203314 -3.480000
v 16.107418 0.545388 2.430753
v 16.107418 0.545389 -3.480000
v 16.477299 0.714307 2.430753
v 16.477299 0.714308 -3.480000
v 16.879786 0.656438 2.430753
v 16.879786 0.656439 -3.480000
v 17.187092 0.390155 2.430753
v 17.187092 0.390156 -3.480000
v 17.301653 -0.000000 2.430753
v 17.301653 0.000001 -3.480000
v 17.187092 -0.390152 -9.390753
v 16.879786 -0.656436 -9.390753
v 16.477299 -0.714305 -9.390753
v 16.107418 -0.545386 -9.390753
v 15.887580 -0.203311 -9.390753
v 15.887580 0.203315 -9.390753
v 16.107418 0.545390 -9.390753
v 16.477299 0.714309 -9.390753
v 16.879786 0.656440 -9.390753
v 17.187092 0.390157 -9.390753
v 17.301653 0.000002 -9.390753
v 16.580000 -0.000000 2.430753
v 16.580000 0.000002 -9.390753
v 17.187092 -0.390154 2.430753
v 16.879786 -0.656438 2.430753
v 17.187092 -0.390153 -3.480000
v 16.879786 -0.656437 -3.480000
v 16.477299 -0.714307 2.430753
v 16.477299 -0.714306 -3.480000
v 16.107418 -0.545388 2.430753
v 16.107418 -0.545387 -3.480000
v 15.887580 -0.203313 2.430753
v 15.887580 -0.203312 -3.480000
v 15.887580 0.203313 2.430753
v 15.887580 0.203314 -3.480000
v 16.107418 0.545388 2.430753
v 16.107418 0.545389 -3.480000
v 16.477299 0.714307 2.430753
v 16.477299 0.714308 -3.480000
v 16.879786 0.656438 2.430753
v 16.879786 0.656439 -3.480000
v 17.187092 0.390155 2.430753
v 17.187092 0.390156 -3.480000
v 17.301653 -0.000000 2.430753
v 17.301653 0.000001 -3.480000
v 17.187092 -0.390152 -9.390753
v 16.879786 -0.656436 -9.390753
v 16.477299 -0.714305 -9.390753
v 16.107418 -0.545386 -9.390753
v 15.887580 -0.203311 -9.390753
v 15.887580 0.203315 -9.390753
v 16.107418 0.545390 -9.390753
v 16.477299 0.714309 -9.390753
v 16.879786 0.656440 -9.390753
v 17.187092 0.390157 -9.390753
v 17.301653 0.000002 -9.390753
v 16.580000 -0.000000 2.430753
v 16.580000 0.000002 -9.390753
vn 0.654864 -0.755747 -0.000000
vn 0.654861 -0.755749 -0.000000
vn 0.142316 -0.989821 -0.000000
vn 0.142314 -0.989821 -0.000000
vn -0.415414 -0.909632 -0.000000
vn -0.841257 -0.540636 -0.000000
vn -0.841251 -0.540645 -0.000000
vn -1.000000 0.000000 0.000000
vn -0.841251 0.540645 0.000000
vn -0.841257 0.540636 0.000000
vn -0.415414 0.909632 0.000000
vn 0.142314 0.989821 0.000000
vn 0.142316 0.989821 0.000000
vn 0.654859 0.755751 0.000000
vn 0.654863 0.755748 0.000000
vn 0.959491 0.281740 0.000000
vn 0.959494 0.281728 0.000000
vn 0.959494 -0.281729 -0.000000
vn 0.959491 -0.281741 -0.000000
vn -0.000000 0.000000 1.000000
vn 0.000001 0.000000 1.000000
vn 0.000000 0.000000 -1.000000
vn -0.000003 0.000000 -1.000000
vn 0.000003 0.000000 -1.000000
s off
f 1//1 2//1 3//1
f 2//2 4//2 3//2
f 2//3 5//3 4//3
f 5//4 6//4 4//4
f 5//5 7//5 6//5
f 7//5 8//5 6//5
f 7//6 9//6 8//6
f 9//7 10//7 8//7
f 9//8 11//8 10//8
f 11//8 12//8 10//8
f 11//9 13//9 12//9
f 13//10 14//10 12//10
f 13//11 15//11 14//11
f 15//11 16//11 14//11
f 15//12 17//12 16//12
f 17//13 18//13 16//13
f 17//14 19//14 18//14
f 19//15 20//15 18//15
f 19//16 21//16 20//16
f 21//17 22//17 20//17
f 21//18 1//18 22//18
f 1//19 3//19 22//19
f 3//1 4//1 23//1
f 4//2 24//2 23//2
f 4//3 6//3 24//3
f 6//4 25//4 24//4
f 6//5 8//5 25//5
f 8//5 26//5 25//5
f 8//6 10//6 26//6
f 10//7 27//7 26//7
f 10//8 12//8 27//8
f 12//8 28//8 27//8
f 12//9 14//9 28//9
f 14//10 29//10 28//10
f 14//11 16//11 29//11
f 16//11 30//11 29//11
f 16//12 18//12 30//12
f 18//13 31//13 30//13
f 18//14 20//14 31//14
f 20//15 32//15 31//15
f 20//16 22//16 32//16
f 22//17 33//17 32//17
f 22//18 3//18 33//18
f 3//19 23//19 33//19
f 2//20 1//20 34//20
f 5//20 2//20 34//20
f 7//20 5//20 34//20
f 9//20 7//20 34//20
f 11//20 9//20 34//20
f 13//20 11//20 34//20
f 15//20 13//20 34//20
f 17//20 15//20 34//20
f 19//21 17//21 34//21
f 21//20 19//20 34//20
f 1//20 21//20 34//20
f 23//22 24//22 35//22
f 24//22 25//22 35//22
f 25//23 26//23 35//23
f 26//24 27//24 35//24
f 27//22 28//22 35//22
f 28//24 29//24 35//24
f 29//23 30//23 35//23
f 30//22 31//22 35//22
f 31//23 32//23 35//23
f 32//22 33//22 35//22
f 33//22 23//22 35//22
f 36//1 37//1 38//1
f 37//2 39//2 38//2
f 37//3 40//3 39//3
f 40//4 41//4 39//4
f 40//5 42//5 41//5
f 42//5 43//5 41//5
f 42//6 44//6 43//6
f 44//7 45//7 43//7
f 44//8 46//8 45//8
f 46//8 47//8 45//8
f 46//9 48//9 47//9
f 48//10 49//10 47//10
f 48//11 50//11 49//11
f 50//11 51//11 49//11
f 50//12 52//12 51//12
f 52//13 53//13 51//13
f 52//14 54//14 53//14
f 54//15 55//15 53//15
f 54//16 56//16 55//16
f 56//17 57//17 55//17
f 56//18 36//18 57//18
f 36//19 38//19 57//19
f 38//1 39//1 58//1
f 39//2 59//2 58//2
f 39//3 41//3 59//3
f 41//4 60//4 59//4
f 41//5 43//5 60//5
f 43//5 61//5 60//5
f 43//6 45//6 61//6
f 45//7 62//7 61//7
f 45//8 47//8 62//8
f 47//8 63//8 62//8
f 47//9 49//9 63//9
f 49//10 64//10 63//10
f 49//11 51//11 64//11
f 51//11 65//11 64//11
f 51//12 53//12 65//12
f 53//13 66//13 65//13
f 53//14 55//14 66//14
f 55//15 67//15 66//15
f 55//16 57//16 67//16
f 57//17 68//17 67//17
f 57//18 38//18 68//18
f 38//19 58//19 68//19
f 37//20 36//20 69//20
f 40//20 37//20 69//20
f 42//20 40//20 69//20
f 44//20 42//20 69//20
f 46//20 44//20 69//20
f 48//20 46//20 69//20
f 50//20 48//20 69//20
f 52//20 50//20 69//20
f 54//21 52//21 69//21
f 56//20 54//20 69//20
f 36//20 56//20 69//20
f 58//22 59//22 70//22
f 59//22 60//22 70//22
f 60//23 61//23 70//23
f 61//24 62//24 70//24
f 62//22 63//22 70//22
f 63//24 64//24 70//24
f 64//23 65//23 70//23
f 65//22 66//22 70//22
f 66//23 67//23 70//23
f 67//22 68//22 70//22
f 68//22 58//22 70//22
