# This file uses centimeters as units for non-parametric coordinates.

v -8.062560 7.685042 0.187553
v 4.030314 7.774619 0.187553
v 2.776239 5.803928 0.187553
v -8.600021 5.803928 0.187553
v -8.062560 7.685042 -0.386910
v 4.030314 7.774619 -0.386910
v 2.776239 5.803928 -0.386910
v -8.600021 5.803928 -0.386910
vt 1.000000 0.000000
vt 0.871806 0.132211
vt 0.057431 0.000000
vt 0.000000 0.187420
vt 0.000000 0.187420
vt 0.871806 0.132211
vt 0.057431 0.000000
vt 1.000000 0.000000
vt 0.057431 0.000000
vt 1.000000 0.000000
vt 0.871806 0.132211
vt 0.000000 0.187420
vn -0.000000 0.000000 -1.000000
vn -0.000000 0.000000 -1.000000
vn -0.000000 0.000000 -1.000000
vn -0.000000 0.000000 -1.000000
vn -0.000000 0.000000 -1.000000
vn 0.000000 0.000000 -1.000000
vn 0.000000 0.000000 1.000000
vn 0.000000 0.000000 1.000000
vn 0.000000 0.000000 1.000000
vn 0.000000 0.000000 1.000000
vn 0.000000 0.000000 1.000000
vn 0.000000 0.000000 1.000000
vn -0.007407 0.999973 0.000000
vn -0.007407 0.999973 0.000000
vn -0.007407 0.999973 0.000000
vn -0.007407 0.999973 0.000000
vn -0.007407 0.999973 0.000000
vn -0.007407 0.999973 0.000000
vn 0.843661 -0.536876 0.000000
vn 0.843662 -0.536875 0.000000
vn 0.843662 -0.536875 0.000000
vn 0.843662 -0.536875 0.000000
vn 0.843662 -0.536875 0.000000
vn 0.843662 -0.536875 0.000000
vn 0.000000 -1.000000 0.000000
vn 0.000000 -1.000000 0.000000
vn 0.000000 -1.000000 0.000000
vn 0.000000 -1.000000 0.000000
vn 0.000000 -1.000000 0.000000
vn 0.000000 -1.000000 0.000000
vn -0.961524 0.274721 0.000000
vn -0.961524 0.274721 0.000000
vn -0.961524 0.274721 0.000000
vn -0.961524 0.274721 0.000000
vn -0.961524 0.274721 0.000000
vn -0.961524 0.274722 0.000000
f 6/1/1 7/2/2 5/3/3
f 5/3/4 7/2/5 8/4/6
f 4/5/7 3/6/8 1/7/9
f 1/7/10 3/6/11 2/8/12
f 1/9/13 2/10/14 5/3/15
f 5/3/16 2/10/17 6/1/18
f 2/10/19 3/11/20 6/1/21
f 6/1/22 3/11/23 7/2/24
f 3/11/25 4/12/26 7/2/27
f 7/2/28 4/12/29 8/4/30
f 4/12/31 1/9/32 8/4/33
f 8/4/34 1/9/35 5/3/36
