# This file uses centimeters as units for non-parametric coordinates.

v 6.986351 9.2 0.187553
v 0.088933 0.5 0.187553
v -1.971334 0.5 0.187553
v 4.746929 9.2 0.187553
v 6.986351 9.2 -0.386910
v 0.088933 0.5 -0.386910
v -1.971334 0.5 -0.386910
v 4.746929 9.2 -0.386910
vt 0.000000 0.000000
vt 0.896012 0.000000
vt 0.101322 0.144540
vt 1.000000 0.124764
vt 0.000000 0.000000
vt 0.101322 0.144540
vt 0.896012 0.000000
vt 1.000000 0.124764
vt 0.000000 0.000000
vt 0.896012 0.000000
vt 1.000000 0.124764
vt 0.101322 0.144540
vn 0.000000 0.000000 -1.000000
vn -0.000000 0.000000 -1.000000
vn -0.000000 0.000000 -1.000000
vn -0.000000 0.000000 -1.000000
vn -0.000000 0.000000 -1.000000
vn -0.000000 0.000000 -1.000000
vn 0.000000 0.000000 1.000000
vn 0.000000 0.000000 1.000000
vn 0.000000 0.000000 1.000000
vn 0.000000 0.000000 1.000000
vn 0.000000 0.000000 1.000000
vn 0.000000 0.000000 1.000000
vn 0.795251 -0.606280 0.000000
vn 0.795251 -0.606280 0.000000
vn 0.795251 -0.606280 0.000000
vn 0.795251 -0.606280 0.000000
vn 0.795251 -0.606280 0.000000
vn 0.795251 -0.606280 0.000000
vn 0.043437 -0.999056 0.000000
vn 0.043437 -0.999056 0.000000
vn 0.043437 -0.999056 0.000000
vn 0.043437 -0.999056 0.000000
vn 0.043437 -0.999056 0.000000
vn 0.043437 -0.999056 0.000000
vn -0.808397 0.588638 0.000000
vn -0.808397 0.588638 0.000000
vn -0.808397 0.588638 0.000000
vn -0.808397 0.588638 0.000000
vn -0.808397 0.588638 0.000000
vn -0.808397 0.588638 0.000000
vn 0.039968 0.999201 0.000000
vn 0.039968 0.999201 0.000000
vn 0.039968 0.999201 0.000000
vn 0.039968 0.999201 0.000000
vn 0.039968 0.999201 0.000000
vn 0.039968 0.999201 0.000000
f 5/1/1 6/2/2 8/3/3
f 8/3/4 6/2/5 7/4/6
f 1/5/7 4/6/8 2/7/9
f 2/7/10 4/6/11 3/8/12
f 1/9/13 2/10/14 5/1/15
f 5/1/16 2/10/17 6/2/18
f 2/10/19 3/11/20 6/2/21
f 6/2/22 3/11/23 7/4/24
f 3/11/25 4/12/26 7/4/27
f 7/4/28 4/12/29 8/3/30
f 4/12/31 1/9/32 8/3/33
f 8/3/34 1/9/35 5/1/36
