# This file uses centimeters as units for non-parametric coordinates.

v -7.815471 -4.733767 0.200000
v -1.384502 -4.733767 0.200000
v -4.827856 -8.025208 0.200000
v -1.283227 -11.569837 0.200000
v -4.827856 -15.418291 0.200000
v -7.866109 -15.418291 0.200000
v -7.815471 -4.733767 -0.301118
v -1.384502 -4.733767 -0.301118
v -4.827856 -8.025208 -0.301118
v -1.283227 -11.569837 -0.301118
v -4.827856 -15.418291 -0.301118
v -7.866109 -15.418291 -0.301118
vt 0.853571 0.100000
vt 0.857143 0.000000
vt 0.946429 0.100000
vt 0.992857 0.003571
vt 0.989286 1.000000
vt 0.942857 0.867857
vt 0.003571 1.000000
vt 0.000000 0.867857
vt 0.853571 0.100000
vt 0.946429 0.100000
vt 0.857143 0.000000
vt 0.992857 0.003571
vt 0.989286 1.000000
vt 0.942857 0.867857
vt 0.003571 1.000000
vt 0.000000 0.867857
vt 0.000000 0.867857
vt 0.942857 0.867857
vt 0.946429 0.100000
vt 0.853571 0.100000
vt 0.857143 0.000000
vt 0.857143 0.000000
vt 0.946429 0.100000
vt 0.992857 0.003571
vt 0.946429 0.100000
vt 0.946429 0.100000
vt 0.989286 1.000000
vt 0.989286 1.000000
vt 0.942857 0.867857
vt 0.942857 0.867857
vt 0.003571 1.000000
vt 0.857143 0.000000
vt 0.946429 0.100000
vt 0.992857 0.003571
vt 0.946429 0.100000
vt 0.946429 0.100000
vt 0.989286 1.000000
vt 0.989286 1.000000
vt 0.942857 0.867857
vt 0.003571 1.000000
vt 0.942857 0.867857
vt 0.000000 0.867857
vt 0.000000 0.867857
vt 0.942857 0.867857
vt 0.942857 0.867857
vt 0.942857 0.867857
vt 0.946429 0.100000
vt 0.946429 0.100000
vt 0.946429 0.100000
vt 0.853571 0.100000
vt 0.853571 0.100000
vt 0.853571 0.100000
vt 0.857143 0.000000
vn 0.000000 0.000000 -1.000000
vn 0.000000 0.000000 -1.000000
vn 0.000000 0.000000 -1.000000
vn 0.000000 0.000000 -1.000000
vn 0.000000 0.000000 -1.000000
vn 0.000000 0.000000 -1.000000
vn 0.000000 0.000000 -1.000000
vn 0.000000 0.000000 -1.000000
vn 0.000000 0.000000 -1.000000
vn 0.000000 0.000000 -1.000000
vn 0.000000 0.000000 -1.000000
vn 0.000000 0.000000 -1.000000
vn 0.000000 0.000000 1.000000
vn 0.000000 0.000000 1.000000
vn 0.000000 0.000000 1.000000
vn 0.000000 0.000000 1.000000
vn 0.000000 0.000000 1.000000
vn 0.000000 0.000000 1.000000
vn 0.000000 0.000000 1.000000
vn 0.000000 0.000000 1.000000
vn 0.000000 0.000000 1.000000
vn 0.000000 0.000000 1.000000
vn 0.000000 0.000000 1.000000
vn 0.000000 0.000000 1.000000
vn 0.000000 1.000000 0.000000
vn 0.000000 1.000000 0.000000
vn 0.000000 1.000000 0.000000
vn 0.000000 1.000000 0.000000
vn 0.000000 1.000000 0.000000
vn 0.000000 1.000000 0.000000
vn 0.690981 -0.722873 0.000000
vn 0.690981 -0.722873 0.000000
vn 0.690981 -0.722873 0.000000
vn 0.690981 -0.722873 0.000000
vn 0.690981 -0.722873 0.000000
vn 0.690981 -0.722873 0.000000
vn 0.707107 0.707107 0.000000
vn 0.707107 0.707107 0.000000
vn 0.707107 0.707107 0.000000
vn 0.707107 0.707107 0.000000
vn 0.707107 0.707107 0.000000
vn 0.707107 0.707107 0.000000
vn 0.735545 -0.677476 0.000000
vn 0.735545 -0.677476 0.000000
vn 0.735545 -0.677476 0.000000
vn 0.735545 -0.677476 0.000000
vn 0.735545 -0.677476 0.000000
vn 0.735545 -0.677476 0.000000
vn 0.000000 -1.000000 0.000000
vn 0.000000 -1.000000 0.000000
vn 0.000000 -1.000000 0.000000
vn 0.000000 -1.000000 0.000000
vn 0.000000 -1.000000 0.000000
vn 0.000000 -1.000000 0.000000
vn -0.999989 0.004739 0.000000
vn -0.999989 0.004739 0.000000
vn -0.999989 0.004739 0.000000
vn -0.999989 0.004739 0.000000
vn -0.999989 0.004739 0.000000
vn -0.999989 0.004739 0.000000
f 8/1/1 9/2/2 7/3/3
f 7/22/4 9/4/5 12/23/6
f 12/24/7 9/5/8 11/25/9
f 9/26/10 10/27/11 11/6/12
f 2/28/13 1/7/14 3/29/15
f 1/8/16 6/30/17 3/31/18
f 6/9/19 5/10/20 3/11/21
f 5/32/22 4/33/23 3/12/24
f 1/34/25 2/35/26 7/13/27
f 7/36/28 2/14/29 8/37/30
f 2/38/31 3/39/32 8/15/33
f 8/16/34 3/40/35 9/41/36
f 3/17/37 4/18/38 9/42/39
f 9/43/40 4/18/41 10/44/42
f 4/18/43 5/19/44 10/45/45
f 10/46/46 5/19/47 11/47/48
f 5/19/49 6/20/50 11/48/51
f 11/49/52 6/20/53 12/50/54
f 6/20/55 1/21/56 12/51/57
f 12/52/58 1/21/59 7/53/60
