# This file uses centimeters as units for non-parametric coordinates.

v 8.371162 -1.409380 0.200000
v 8.371162 -16.607311 0.200000
v -5.305941 -16.664879 0.200000
v -5.305941 -15.168114 0.200000
v -6.917843 -15.225681 0.200000
v -6.860275 -17.413261 0.200000
v 13.601175 -17.355694 0.200000
v 13.601175 -1.466948 0.200000
v 8.371162 -1.409380 -0.300015
v 8.371162 -16.607311 -0.300015
v -5.305941 -16.664879 -0.300015
v -5.305941 -15.168114 -0.300015
v -6.917843 -15.225681 -0.300015
v -6.860275 -17.413261 -0.300015
v 12.501175 -17.355694 -0.300015
v 12.501175 -1.466948 -0.300015
vn 0.000000 0.000000 1.000000
vn 0.000000 0.000000 1.000000
vn 0.000000 0.000000 1.000000
vn 0.000000 0.000000 1.000000
vn 0.000000 0.000000 1.000000
vn 0.000000 0.000000 1.000000
vn 0.000000 0.000000 1.000000
vn 0.000000 0.000000 1.000000
vn 0.000000 0.000000 1.000000
vn 0.000000 0.000000 1.000000
vn 0.000000 0.000000 1.000000
vn 0.000000 0.000000 1.000000
vn 0.000000 0.000000 1.000000
vn 0.000000 0.000000 1.000000
vn 0.000000 0.000000 1.000000
vn 0.000000 0.000000 1.000000
vn 0.000000 0.000000 1.000000
vn 0.000000 0.000000 1.000000
vn 0.000000 0.000000 -1.000000
vn 0.000000 0.000000 -1.000000
vn 0.000000 0.000000 -1.000000
vn 0.000000 0.000000 -1.000000
vn 0.000000 0.000000 -1.000000
vn -0.000000 0.000000 -1.000000
vn -0.000000 0.000000 -1.000000
vn 0.000000 0.000000 -1.000000
vn 0.000000 0.000000 -1.000000
vn 0.000000 0.000000 -1.000000
vn 0.000000 0.000000 -1.000000
vn 0.000000 0.000000 -1.000000
vn 0.000000 0.000000 -1.000000
vn 0.000000 0.000000 -1.000000
vn 0.000000 0.000000 -1.000000
vn 0.000000 0.000000 -1.000000
vn 0.000000 0.000000 -1.000000
vn 0.000000 0.000000 -1.000000
vn 1.000000 0.000000 0.000000
vn 1.000000 0.000000 0.000000
vn 1.000000 0.000000 0.000000
vn 1.000000 0.000000 0.000000
vn 1.000000 0.000000 0.000000
vn 1.000000 0.000000 0.000000
vn 0.004209 -0.999991 0.000000
vn 0.004209 -0.999991 0.000000
vn 0.004209 -0.999991 0.000000
vn 0.004209 -0.999991 0.000000
vn 0.004209 -0.999991 0.000000
vn 0.004209 -0.999991 0.000000
vn -1.000000 0.000000 0.000000
vn -1.000000 0.000000 0.000000
vn -1.000000 0.000000 0.000000
vn -1.000000 0.000000 0.000000
vn -1.000000 0.000000 0.000000
vn -1.000000 0.000000 0.000000
vn 0.035691 -0.999363 0.000000
vn 0.035691 -0.999363 0.000000
vn 0.035691 -0.999363 0.000000
vn 0.035691 -0.999363 0.000000
vn 0.035691 -0.999363 0.000000
vn 0.035691 -0.999363 0.000000
vn 0.999654 0.026307 0.000000
vn 0.999654 0.026307 0.000000
vn 0.999654 0.026307 0.000000
vn 0.999654 0.026307 0.000000
vn 0.999654 0.026307 0.000000
vn 0.999654 0.026307 0.000000
vn -0.002973 0.999996 0.000000
vn -0.002973 0.999996 0.000000
vn -0.002973 0.999996 0.000000
vn -0.002973 0.999996 0.000000
vn -0.002973 0.999996 0.000000
vn -0.002973 0.999996 0.000000
vn -1.000000 0.000000 0.000000
vn -1.000000 0.000000 0.000000
vn -1.000000 0.000000 0.000000
vn -1.000000 0.000000 0.000000
vn -1.000000 0.000000 0.000000
vn -1.000000 0.000000 0.000000
vn -0.013937 -0.999903 0.000000
vn -0.013937 -0.999903 0.000000
vn -0.013937 -0.999903 0.000000
vn -0.013937 -0.999903 0.000000
vn -0.013937 -0.999903 0.000000
vn -0.013937 -0.999903 0.000000
f 12//1 13//2 11//3
f 13//4 14//5 11//6
f 14//7 15//8 11//9
f 11//10 15//11 10//12
f 15//13 16//14 10//15
f 9//16 10//17 16//18
f 4//19 3//20 5//21
f 5//22 3//23 6//24
f 6//25 3//26 7//27
f 3//28 2//29 7//30
f 7//31 2//32 8//33
f 1//34 8//35 2//36
f 1//37 2//38 9//39
f 9//40 2//41 10//42
f 2//43 3//44 10//45
f 10//46 3//47 11//48
f 3//49 4//50 11//51
f 11//52 4//53 12//54
f 4//55 5//56 12//57
f 12//58 5//59 13//60
f 5//61 6//62 13//63
f 13//64 6//65 14//66
f 6//67 7//68 14//69
f 14//70 7//71 15//72
f 7//73 8//74 15//75
f 15//76 8//77 16//78
f 8//79 1//80 16//81
f 16//82 1//83 9//84
